%TF.GenerationSoftware,KiCad,Pcbnew,(5.1.6)-1*%
%TF.CreationDate,2025-04-15T16:12:05-04:00*%
%TF.ProjectId,MT32-zero-breakout,4d543332-2d7a-4657-926f-2d627265616b,rev?*%
%TF.SameCoordinates,Original*%
%TF.FileFunction,Copper,L2,Bot*%
%TF.FilePolarity,Positive*%
%FSLAX46Y46*%
G04 Gerber Fmt 4.6, Leading zero omitted, Abs format (unit mm)*
G04 Created by KiCad (PCBNEW (5.1.6)-1) date 2025-04-15 16:12:05*
%MOMM*%
%LPD*%
G01*
G04 APERTURE LIST*
%TA.AperFunction,ComponentPad*%
%ADD10R,1.700000X1.700000*%
%TD*%
%TA.AperFunction,ComponentPad*%
%ADD11O,1.700000X1.700000*%
%TD*%
%TA.AperFunction,ComponentPad*%
%ADD12C,1.600000*%
%TD*%
%TA.AperFunction,ComponentPad*%
%ADD13R,1.600000X1.600000*%
%TD*%
%TA.AperFunction,ComponentPad*%
%ADD14O,1.600000X1.600000*%
%TD*%
%TA.AperFunction,ViaPad*%
%ADD15C,0.800000*%
%TD*%
%TA.AperFunction,Conductor*%
%ADD16C,0.250000*%
%TD*%
%TA.AperFunction,Conductor*%
%ADD17C,0.254000*%
%TD*%
G04 APERTURE END LIST*
D10*
%TO.P,J1,1*%
%TO.N,N/C*%
X126428500Y-73787000D03*
D11*
%TO.P,J1,2*%
%TO.N,+5V*%
X126428500Y-71247000D03*
%TO.P,J1,3*%
%TO.N,SDA*%
X128968500Y-73787000D03*
%TO.P,J1,4*%
%TO.N,N/C*%
X128968500Y-71247000D03*
%TO.P,J1,5*%
%TO.N,SCL*%
X131508500Y-73787000D03*
%TO.P,J1,6*%
%TO.N,GND*%
X131508500Y-71247000D03*
%TO.P,J1,7*%
%TO.N,ENC_BTN*%
X134048500Y-73787000D03*
%TO.P,J1,8*%
%TO.N,N/C*%
X134048500Y-71247000D03*
%TO.P,J1,9*%
%TO.N,GND*%
X136588500Y-73787000D03*
%TO.P,J1,10*%
%TO.N,MIDI_IN*%
X136588500Y-71247000D03*
%TO.P,J1,11*%
%TO.N,BTN1*%
X139128500Y-73787000D03*
%TO.P,J1,12*%
%TO.N,BCK*%
X139128500Y-71247000D03*
%TO.P,J1,13*%
%TO.N,BTN2*%
X141668500Y-73787000D03*
%TO.P,J1,14*%
%TO.N,GND*%
X141668500Y-71247000D03*
%TO.P,J1,15*%
%TO.N,ENC_CLK*%
X144208500Y-73787000D03*
%TO.P,J1,16*%
%TO.N,ENC_DAT*%
X144208500Y-71247000D03*
%TO.P,J1,17*%
%TO.N,+3V3*%
X146748500Y-73787000D03*
%TO.P,J1,18*%
%TO.N,N/C*%
X146748500Y-71247000D03*
%TO.P,J1,19*%
X149288500Y-73787000D03*
%TO.P,J1,20*%
%TO.N,GND*%
X149288500Y-71247000D03*
%TO.P,J1,21*%
%TO.N,N/C*%
X151828500Y-73787000D03*
%TO.P,J1,22*%
X151828500Y-71247000D03*
%TO.P,J1,23*%
X154368500Y-73787000D03*
%TO.P,J1,24*%
X154368500Y-71247000D03*
%TO.P,J1,25*%
%TO.N,GND*%
X156908500Y-73787000D03*
%TO.P,J1,26*%
%TO.N,N/C*%
X156908500Y-71247000D03*
%TO.P,J1,27*%
X159448500Y-73787000D03*
%TO.P,J1,28*%
X159448500Y-71247000D03*
%TO.P,J1,29*%
X161988500Y-73787000D03*
%TO.P,J1,30*%
%TO.N,GND*%
X161988500Y-71247000D03*
%TO.P,J1,31*%
%TO.N,N/C*%
X164528500Y-73787000D03*
%TO.P,J1,32*%
X164528500Y-71247000D03*
%TO.P,J1,33*%
X167068500Y-73787000D03*
%TO.P,J1,34*%
%TO.N,GND*%
X167068500Y-71247000D03*
%TO.P,J1,35*%
%TO.N,LCK*%
X169608500Y-73787000D03*
%TO.P,J1,36*%
%TO.N,N/C*%
X169608500Y-71247000D03*
%TO.P,J1,37*%
X172148500Y-73787000D03*
%TO.P,J1,38*%
X172148500Y-71247000D03*
%TO.P,J1,39*%
%TO.N,GND*%
X174688500Y-73787000D03*
%TO.P,J1,40*%
%TO.N,DIN*%
X174688500Y-71247000D03*
%TD*%
D10*
%TO.P,J2,1*%
%TO.N,GND*%
X127190500Y-83820000D03*
D11*
%TO.P,J2,2*%
%TO.N,BCK*%
X127190500Y-86360000D03*
%TO.P,J2,3*%
%TO.N,DIN*%
X127190500Y-88900000D03*
%TO.P,J2,4*%
%TO.N,LCK*%
X127190500Y-91440000D03*
%TO.P,J2,5*%
%TO.N,GND*%
X127190500Y-93980000D03*
%TO.P,J2,6*%
%TO.N,+5V*%
X127190500Y-96520000D03*
%TD*%
D10*
%TO.P,J3,1*%
%TO.N,N/C*%
X151320500Y-83312000D03*
%TD*%
D12*
%TO.P,C1,1*%
%TO.N,+3V3*%
X170815000Y-78676500D03*
%TO.P,C1,2*%
%TO.N,GND*%
X175815000Y-78676500D03*
%TD*%
D13*
%TO.P,D1,1*%
%TO.N,Net-(D1-Pad1)*%
X161480500Y-89916000D03*
D14*
%TO.P,D1,2*%
%TO.N,Net-(D1-Pad2)*%
X169100500Y-89916000D03*
%TD*%
D10*
%TO.P,J4,1*%
%TO.N,SDA*%
X120396000Y-80454500D03*
D11*
%TO.P,J4,2*%
%TO.N,SCL*%
X120396000Y-82994500D03*
%TO.P,J4,3*%
%TO.N,+5V*%
X120396000Y-85534500D03*
%TO.P,J4,4*%
%TO.N,GND*%
X120396000Y-88074500D03*
%TD*%
D10*
%TO.P,J5,1*%
%TO.N,BTN1*%
X127127000Y-78803500D03*
D11*
%TO.P,J5,2*%
%TO.N,GND*%
X129667000Y-78803500D03*
%TD*%
%TO.P,J6,2*%
%TO.N,GND*%
X136969500Y-78867000D03*
D10*
%TO.P,J6,1*%
%TO.N,BTN2*%
X134429500Y-78867000D03*
%TD*%
D11*
%TO.P,J7,4*%
%TO.N,GND*%
X149288500Y-78867000D03*
%TO.P,J7,3*%
%TO.N,ENC_DAT*%
X146748500Y-78867000D03*
%TO.P,J7,2*%
%TO.N,ENC_CLK*%
X144208500Y-78867000D03*
D10*
%TO.P,J7,1*%
%TO.N,ENC_BTN*%
X141668500Y-78867000D03*
%TD*%
%TO.P,J8,1*%
%TO.N,GND*%
X173291500Y-87947500D03*
D11*
%TO.P,J8,2*%
%TO.N,Net-(D1-Pad2)*%
X173291500Y-90487500D03*
%TO.P,J8,3*%
%TO.N,Net-(J8-Pad3)*%
X173291500Y-93027500D03*
%TD*%
D12*
%TO.P,R1,1*%
%TO.N,+3V3*%
X169545000Y-82931000D03*
D14*
%TO.P,R1,2*%
%TO.N,MIDI_IN*%
X177165000Y-82931000D03*
%TD*%
%TO.P,R2,2*%
%TO.N,Net-(J8-Pad3)*%
X169100500Y-93916500D03*
D12*
%TO.P,R2,1*%
%TO.N,Net-(D1-Pad1)*%
X161480500Y-93916500D03*
%TD*%
D13*
%TO.P,U1,1*%
%TO.N,Net-(D1-Pad1)*%
X161480500Y-86233000D03*
D14*
%TO.P,U1,4*%
%TO.N,MIDI_IN*%
X166560500Y-78613000D03*
%TO.P,U1,2*%
%TO.N,Net-(D1-Pad2)*%
X164020500Y-86233000D03*
%TO.P,U1,5*%
%TO.N,GND*%
X164020500Y-78613000D03*
%TO.P,U1,3*%
%TO.N,N/C*%
X166560500Y-86233000D03*
%TO.P,U1,6*%
%TO.N,+3V3*%
X161480500Y-78613000D03*
%TD*%
D15*
%TO.N,GND*%
X120396000Y-76517500D03*
X132461000Y-90170000D03*
X171513500Y-75628500D03*
%TO.N,BCK*%
X139128500Y-79946500D03*
%TO.N,LCK*%
X159067500Y-84201000D03*
%TO.N,DIN*%
X165177572Y-83370734D03*
%TD*%
D16*
%TO.N,BCK*%
X140303501Y-78771499D02*
X140303501Y-72422001D01*
X140303501Y-72422001D02*
X139128500Y-71247000D01*
X139128500Y-79946500D02*
X140303501Y-78771499D01*
%TO.N,LCK*%
X159067500Y-84201000D02*
X163322000Y-84201000D01*
X169608500Y-77914500D02*
X169608500Y-73787000D01*
X163322000Y-84201000D02*
X169608500Y-77914500D01*
%TO.N,DIN*%
X173418500Y-72517000D02*
X174688500Y-71247000D01*
X165177572Y-83370734D02*
X167839806Y-80708500D01*
X173418500Y-78359000D02*
X173418500Y-72517000D01*
X171069000Y-80708500D02*
X173418500Y-78359000D01*
X167839806Y-80708500D02*
X171069000Y-80708500D01*
%TD*%
D17*
%TO.N,GND*%
G36*
X178008442Y-69653770D02*
G01*
X177479907Y-70006925D01*
X177030425Y-70456407D01*
X176677270Y-70984942D01*
X176434012Y-71572219D01*
X176310000Y-72195668D01*
X176310000Y-72831332D01*
X176434012Y-73454781D01*
X176677270Y-74042058D01*
X177030425Y-74570593D01*
X177479907Y-75020075D01*
X178008442Y-75373230D01*
X178595719Y-75616488D01*
X179219168Y-75740500D01*
X179854832Y-75740500D01*
X180478281Y-75616488D01*
X181065558Y-75373230D01*
X181594093Y-75020075D01*
X182043575Y-74570593D01*
X182396730Y-74042058D01*
X182560000Y-73647889D01*
X182560001Y-94379113D01*
X182396730Y-93984942D01*
X182043575Y-93456407D01*
X181594093Y-93006925D01*
X181065558Y-92653770D01*
X180478281Y-92410512D01*
X179854832Y-92286500D01*
X179219168Y-92286500D01*
X178595719Y-92410512D01*
X178008442Y-92653770D01*
X177479907Y-93006925D01*
X177030425Y-93456407D01*
X176677270Y-93984942D01*
X176434012Y-94572219D01*
X176310000Y-95195668D01*
X176310000Y-95831332D01*
X176434012Y-96454781D01*
X176677270Y-97042058D01*
X177030425Y-97570593D01*
X177479907Y-98020075D01*
X178008442Y-98373230D01*
X178402611Y-98536500D01*
X122671389Y-98536500D01*
X123065558Y-98373230D01*
X123594093Y-98020075D01*
X124043575Y-97570593D01*
X124396730Y-97042058D01*
X124639988Y-96454781D01*
X124652033Y-96394226D01*
X125913500Y-96394226D01*
X125913500Y-96645774D01*
X125962574Y-96892487D01*
X126058837Y-97124886D01*
X126198589Y-97334040D01*
X126376460Y-97511911D01*
X126585614Y-97651663D01*
X126818013Y-97747926D01*
X127064726Y-97797000D01*
X127316274Y-97797000D01*
X127562987Y-97747926D01*
X127795386Y-97651663D01*
X128004540Y-97511911D01*
X128182411Y-97334040D01*
X128322163Y-97124886D01*
X128418426Y-96892487D01*
X128467500Y-96645774D01*
X128467500Y-96394226D01*
X128418426Y-96147513D01*
X128322163Y-95915114D01*
X128182411Y-95705960D01*
X128004540Y-95528089D01*
X127795386Y-95388337D01*
X127562987Y-95292074D01*
X127316274Y-95243000D01*
X127213502Y-95243000D01*
X127213502Y-95150045D01*
X127412951Y-95237477D01*
X127653998Y-95169917D01*
X127877233Y-95056629D01*
X128074078Y-94901967D01*
X128236967Y-94711874D01*
X128359641Y-94493656D01*
X128437386Y-94255698D01*
X128447976Y-94202451D01*
X128360524Y-94003000D01*
X127213500Y-94003000D01*
X127213500Y-94023000D01*
X127167500Y-94023000D01*
X127167500Y-94003000D01*
X126020476Y-94003000D01*
X125933024Y-94202451D01*
X125943614Y-94255698D01*
X126021359Y-94493656D01*
X126144033Y-94711874D01*
X126306922Y-94901967D01*
X126503767Y-95056629D01*
X126727002Y-95169917D01*
X126968049Y-95237477D01*
X127167498Y-95150045D01*
X127167498Y-95243000D01*
X127064726Y-95243000D01*
X126818013Y-95292074D01*
X126585614Y-95388337D01*
X126376460Y-95528089D01*
X126198589Y-95705960D01*
X126058837Y-95915114D01*
X125962574Y-96147513D01*
X125913500Y-96394226D01*
X124652033Y-96394226D01*
X124764000Y-95831332D01*
X124764000Y-95195668D01*
X124639988Y-94572219D01*
X124396730Y-93984942D01*
X124043575Y-93456407D01*
X123594093Y-93006925D01*
X123065558Y-92653770D01*
X122478281Y-92410512D01*
X121854832Y-92286500D01*
X121219168Y-92286500D01*
X120595719Y-92410512D01*
X120008442Y-92653770D01*
X119479907Y-93006925D01*
X119030425Y-93456407D01*
X118677270Y-93984942D01*
X118514000Y-94379111D01*
X118514000Y-88296951D01*
X119138524Y-88296951D01*
X119149114Y-88350198D01*
X119226859Y-88588156D01*
X119349533Y-88806374D01*
X119512422Y-88996467D01*
X119709267Y-89151129D01*
X119932502Y-89264417D01*
X120173549Y-89331977D01*
X120373000Y-89244544D01*
X120373000Y-88097500D01*
X120419000Y-88097500D01*
X120419000Y-89244544D01*
X120618451Y-89331977D01*
X120859498Y-89264417D01*
X121082733Y-89151129D01*
X121279578Y-88996467D01*
X121442467Y-88806374D01*
X121565141Y-88588156D01*
X121642886Y-88350198D01*
X121653476Y-88296951D01*
X121566024Y-88097500D01*
X120419000Y-88097500D01*
X120373000Y-88097500D01*
X119225976Y-88097500D01*
X119138524Y-88296951D01*
X118514000Y-88296951D01*
X118514000Y-79604500D01*
X119116934Y-79604500D01*
X119116934Y-81304500D01*
X119125178Y-81388207D01*
X119149595Y-81468696D01*
X119189245Y-81542876D01*
X119242605Y-81607895D01*
X119307624Y-81661255D01*
X119381804Y-81700905D01*
X119462293Y-81725322D01*
X119546000Y-81733566D01*
X120189456Y-81733566D01*
X120023513Y-81766574D01*
X119791114Y-81862837D01*
X119581960Y-82002589D01*
X119404089Y-82180460D01*
X119264337Y-82389614D01*
X119168074Y-82622013D01*
X119119000Y-82868726D01*
X119119000Y-83120274D01*
X119168074Y-83366987D01*
X119264337Y-83599386D01*
X119404089Y-83808540D01*
X119581960Y-83986411D01*
X119791114Y-84126163D01*
X120023513Y-84222426D01*
X120235034Y-84264500D01*
X120023513Y-84306574D01*
X119791114Y-84402837D01*
X119581960Y-84542589D01*
X119404089Y-84720460D01*
X119264337Y-84929614D01*
X119168074Y-85162013D01*
X119119000Y-85408726D01*
X119119000Y-85660274D01*
X119168074Y-85906987D01*
X119264337Y-86139386D01*
X119404089Y-86348540D01*
X119581960Y-86526411D01*
X119791114Y-86666163D01*
X120023513Y-86762426D01*
X120270226Y-86811500D01*
X120372998Y-86811500D01*
X120372998Y-86904455D01*
X120173549Y-86817023D01*
X119932502Y-86884583D01*
X119709267Y-86997871D01*
X119512422Y-87152533D01*
X119349533Y-87342626D01*
X119226859Y-87560844D01*
X119149114Y-87798802D01*
X119138524Y-87852049D01*
X119225976Y-88051500D01*
X120373000Y-88051500D01*
X120373000Y-88031500D01*
X120419000Y-88031500D01*
X120419000Y-88051500D01*
X121566024Y-88051500D01*
X121653476Y-87852049D01*
X121642886Y-87798802D01*
X121565141Y-87560844D01*
X121442467Y-87342626D01*
X121279578Y-87152533D01*
X121082733Y-86997871D01*
X120859498Y-86884583D01*
X120618451Y-86817023D01*
X120419002Y-86904455D01*
X120419002Y-86811500D01*
X120521774Y-86811500D01*
X120768487Y-86762426D01*
X121000886Y-86666163D01*
X121210040Y-86526411D01*
X121387911Y-86348540D01*
X121527663Y-86139386D01*
X121623926Y-85906987D01*
X121673000Y-85660274D01*
X121673000Y-85408726D01*
X121623926Y-85162013D01*
X121527663Y-84929614D01*
X121387911Y-84720460D01*
X121337451Y-84670000D01*
X125911434Y-84670000D01*
X125919678Y-84753707D01*
X125944095Y-84834196D01*
X125983745Y-84908376D01*
X126037105Y-84973395D01*
X126102124Y-85026755D01*
X126176304Y-85066405D01*
X126256793Y-85090822D01*
X126340500Y-85099066D01*
X126993371Y-85097193D01*
X126818013Y-85132074D01*
X126585614Y-85228337D01*
X126376460Y-85368089D01*
X126198589Y-85545960D01*
X126058837Y-85755114D01*
X125962574Y-85987513D01*
X125913500Y-86234226D01*
X125913500Y-86485774D01*
X125962574Y-86732487D01*
X126058837Y-86964886D01*
X126198589Y-87174040D01*
X126376460Y-87351911D01*
X126585614Y-87491663D01*
X126818013Y-87587926D01*
X127029534Y-87630000D01*
X126818013Y-87672074D01*
X126585614Y-87768337D01*
X126376460Y-87908089D01*
X126198589Y-88085960D01*
X126058837Y-88295114D01*
X125962574Y-88527513D01*
X125913500Y-88774226D01*
X125913500Y-89025774D01*
X125962574Y-89272487D01*
X126058837Y-89504886D01*
X126198589Y-89714040D01*
X126376460Y-89891911D01*
X126585614Y-90031663D01*
X126818013Y-90127926D01*
X127029534Y-90170000D01*
X126818013Y-90212074D01*
X126585614Y-90308337D01*
X126376460Y-90448089D01*
X126198589Y-90625960D01*
X126058837Y-90835114D01*
X125962574Y-91067513D01*
X125913500Y-91314226D01*
X125913500Y-91565774D01*
X125962574Y-91812487D01*
X126058837Y-92044886D01*
X126198589Y-92254040D01*
X126376460Y-92431911D01*
X126585614Y-92571663D01*
X126818013Y-92667926D01*
X127064726Y-92717000D01*
X127167498Y-92717000D01*
X127167498Y-92809955D01*
X126968049Y-92722523D01*
X126727002Y-92790083D01*
X126503767Y-92903371D01*
X126306922Y-93058033D01*
X126144033Y-93248126D01*
X126021359Y-93466344D01*
X125943614Y-93704302D01*
X125933024Y-93757549D01*
X126020476Y-93957000D01*
X127167500Y-93957000D01*
X127167500Y-93937000D01*
X127213500Y-93937000D01*
X127213500Y-93957000D01*
X128360524Y-93957000D01*
X128431269Y-93795651D01*
X160253500Y-93795651D01*
X160253500Y-94037349D01*
X160300653Y-94274403D01*
X160393147Y-94497702D01*
X160527427Y-94698667D01*
X160698333Y-94869573D01*
X160899298Y-95003853D01*
X161122597Y-95096347D01*
X161359651Y-95143500D01*
X161601349Y-95143500D01*
X161838403Y-95096347D01*
X162061702Y-95003853D01*
X162262667Y-94869573D01*
X162433573Y-94698667D01*
X162567853Y-94497702D01*
X162660347Y-94274403D01*
X162707500Y-94037349D01*
X162707500Y-93795651D01*
X167873500Y-93795651D01*
X167873500Y-94037349D01*
X167920653Y-94274403D01*
X168013147Y-94497702D01*
X168147427Y-94698667D01*
X168318333Y-94869573D01*
X168519298Y-95003853D01*
X168742597Y-95096347D01*
X168979651Y-95143500D01*
X169221349Y-95143500D01*
X169458403Y-95096347D01*
X169681702Y-95003853D01*
X169882667Y-94869573D01*
X170053573Y-94698667D01*
X170187853Y-94497702D01*
X170280347Y-94274403D01*
X170327500Y-94037349D01*
X170327500Y-93795651D01*
X170280347Y-93558597D01*
X170187853Y-93335298D01*
X170053573Y-93134333D01*
X169882667Y-92963427D01*
X169681702Y-92829147D01*
X169458403Y-92736653D01*
X169221349Y-92689500D01*
X168979651Y-92689500D01*
X168742597Y-92736653D01*
X168519298Y-92829147D01*
X168318333Y-92963427D01*
X168147427Y-93134333D01*
X168013147Y-93335298D01*
X167920653Y-93558597D01*
X167873500Y-93795651D01*
X162707500Y-93795651D01*
X162660347Y-93558597D01*
X162567853Y-93335298D01*
X162433573Y-93134333D01*
X162262667Y-92963427D01*
X162061702Y-92829147D01*
X161838403Y-92736653D01*
X161601349Y-92689500D01*
X161359651Y-92689500D01*
X161122597Y-92736653D01*
X160899298Y-92829147D01*
X160698333Y-92963427D01*
X160527427Y-93134333D01*
X160393147Y-93335298D01*
X160300653Y-93558597D01*
X160253500Y-93795651D01*
X128431269Y-93795651D01*
X128447976Y-93757549D01*
X128437386Y-93704302D01*
X128359641Y-93466344D01*
X128236967Y-93248126D01*
X128074078Y-93058033D01*
X127877233Y-92903371D01*
X127653998Y-92790083D01*
X127412951Y-92722523D01*
X127213502Y-92809955D01*
X127213502Y-92717000D01*
X127316274Y-92717000D01*
X127562987Y-92667926D01*
X127795386Y-92571663D01*
X128004540Y-92431911D01*
X128182411Y-92254040D01*
X128322163Y-92044886D01*
X128418426Y-91812487D01*
X128467500Y-91565774D01*
X128467500Y-91314226D01*
X128418426Y-91067513D01*
X128322163Y-90835114D01*
X128182411Y-90625960D01*
X128004540Y-90448089D01*
X127795386Y-90308337D01*
X127562987Y-90212074D01*
X127351466Y-90170000D01*
X127562987Y-90127926D01*
X127795386Y-90031663D01*
X128004540Y-89891911D01*
X128182411Y-89714040D01*
X128322163Y-89504886D01*
X128418426Y-89272487D01*
X128449553Y-89116000D01*
X160251434Y-89116000D01*
X160251434Y-90716000D01*
X160259678Y-90799707D01*
X160284095Y-90880196D01*
X160323745Y-90954376D01*
X160377105Y-91019395D01*
X160442124Y-91072755D01*
X160516304Y-91112405D01*
X160596793Y-91136822D01*
X160680500Y-91145066D01*
X162280500Y-91145066D01*
X162364207Y-91136822D01*
X162444696Y-91112405D01*
X162518876Y-91072755D01*
X162583895Y-91019395D01*
X162637255Y-90954376D01*
X162676905Y-90880196D01*
X162701322Y-90799707D01*
X162709566Y-90716000D01*
X162709566Y-89795151D01*
X167873500Y-89795151D01*
X167873500Y-90036849D01*
X167920653Y-90273903D01*
X168013147Y-90497202D01*
X168147427Y-90698167D01*
X168318333Y-90869073D01*
X168519298Y-91003353D01*
X168742597Y-91095847D01*
X168979651Y-91143000D01*
X169221349Y-91143000D01*
X169458403Y-91095847D01*
X169681702Y-91003353D01*
X169882667Y-90869073D01*
X170053573Y-90698167D01*
X170187853Y-90497202D01*
X170280347Y-90273903D01*
X170327500Y-90036849D01*
X170327500Y-89795151D01*
X170280347Y-89558097D01*
X170187853Y-89334798D01*
X170053573Y-89133833D01*
X169882667Y-88962927D01*
X169681702Y-88828647D01*
X169606507Y-88797500D01*
X172012434Y-88797500D01*
X172020678Y-88881207D01*
X172045095Y-88961696D01*
X172084745Y-89035876D01*
X172138105Y-89100895D01*
X172203124Y-89154255D01*
X172277304Y-89193905D01*
X172357793Y-89218322D01*
X172441500Y-89226566D01*
X173094371Y-89224693D01*
X172919013Y-89259574D01*
X172686614Y-89355837D01*
X172477460Y-89495589D01*
X172299589Y-89673460D01*
X172159837Y-89882614D01*
X172063574Y-90115013D01*
X172014500Y-90361726D01*
X172014500Y-90613274D01*
X172063574Y-90859987D01*
X172159837Y-91092386D01*
X172299589Y-91301540D01*
X172477460Y-91479411D01*
X172686614Y-91619163D01*
X172919013Y-91715426D01*
X173130534Y-91757500D01*
X172919013Y-91799574D01*
X172686614Y-91895837D01*
X172477460Y-92035589D01*
X172299589Y-92213460D01*
X172159837Y-92422614D01*
X172063574Y-92655013D01*
X172014500Y-92901726D01*
X172014500Y-93153274D01*
X172063574Y-93399987D01*
X172159837Y-93632386D01*
X172299589Y-93841540D01*
X172477460Y-94019411D01*
X172686614Y-94159163D01*
X172919013Y-94255426D01*
X173165726Y-94304500D01*
X173417274Y-94304500D01*
X173663987Y-94255426D01*
X173896386Y-94159163D01*
X174105540Y-94019411D01*
X174283411Y-93841540D01*
X174423163Y-93632386D01*
X174519426Y-93399987D01*
X174568500Y-93153274D01*
X174568500Y-92901726D01*
X174519426Y-92655013D01*
X174423163Y-92422614D01*
X174283411Y-92213460D01*
X174105540Y-92035589D01*
X173896386Y-91895837D01*
X173663987Y-91799574D01*
X173452466Y-91757500D01*
X173663987Y-91715426D01*
X173896386Y-91619163D01*
X174105540Y-91479411D01*
X174283411Y-91301540D01*
X174423163Y-91092386D01*
X174519426Y-90859987D01*
X174568500Y-90613274D01*
X174568500Y-90361726D01*
X174519426Y-90115013D01*
X174423163Y-89882614D01*
X174283411Y-89673460D01*
X174105540Y-89495589D01*
X173896386Y-89355837D01*
X173663987Y-89259574D01*
X173488629Y-89224693D01*
X174141500Y-89226566D01*
X174225207Y-89218322D01*
X174305696Y-89193905D01*
X174379876Y-89154255D01*
X174444895Y-89100895D01*
X174498255Y-89035876D01*
X174537905Y-88961696D01*
X174562322Y-88881207D01*
X174570566Y-88797500D01*
X174568500Y-88077250D01*
X174461750Y-87970500D01*
X173314500Y-87970500D01*
X173314500Y-87990500D01*
X173268500Y-87990500D01*
X173268500Y-87970500D01*
X172121250Y-87970500D01*
X172014500Y-88077250D01*
X172012434Y-88797500D01*
X169606507Y-88797500D01*
X169458403Y-88736153D01*
X169221349Y-88689000D01*
X168979651Y-88689000D01*
X168742597Y-88736153D01*
X168519298Y-88828647D01*
X168318333Y-88962927D01*
X168147427Y-89133833D01*
X168013147Y-89334798D01*
X167920653Y-89558097D01*
X167873500Y-89795151D01*
X162709566Y-89795151D01*
X162709566Y-89116000D01*
X162701322Y-89032293D01*
X162676905Y-88951804D01*
X162637255Y-88877624D01*
X162583895Y-88812605D01*
X162518876Y-88759245D01*
X162444696Y-88719595D01*
X162364207Y-88695178D01*
X162280500Y-88686934D01*
X160680500Y-88686934D01*
X160596793Y-88695178D01*
X160516304Y-88719595D01*
X160442124Y-88759245D01*
X160377105Y-88812605D01*
X160323745Y-88877624D01*
X160284095Y-88951804D01*
X160259678Y-89032293D01*
X160251434Y-89116000D01*
X128449553Y-89116000D01*
X128467500Y-89025774D01*
X128467500Y-88774226D01*
X128418426Y-88527513D01*
X128322163Y-88295114D01*
X128182411Y-88085960D01*
X128004540Y-87908089D01*
X127795386Y-87768337D01*
X127562987Y-87672074D01*
X127351466Y-87630000D01*
X127562987Y-87587926D01*
X127795386Y-87491663D01*
X128004540Y-87351911D01*
X128182411Y-87174040D01*
X128322163Y-86964886D01*
X128418426Y-86732487D01*
X128467500Y-86485774D01*
X128467500Y-86234226D01*
X128418426Y-85987513D01*
X128322163Y-85755114D01*
X128182411Y-85545960D01*
X128069451Y-85433000D01*
X160251434Y-85433000D01*
X160251434Y-87033000D01*
X160259678Y-87116707D01*
X160284095Y-87197196D01*
X160323745Y-87271376D01*
X160377105Y-87336395D01*
X160442124Y-87389755D01*
X160516304Y-87429405D01*
X160596793Y-87453822D01*
X160680500Y-87462066D01*
X162280500Y-87462066D01*
X162364207Y-87453822D01*
X162444696Y-87429405D01*
X162518876Y-87389755D01*
X162583895Y-87336395D01*
X162637255Y-87271376D01*
X162676905Y-87197196D01*
X162701322Y-87116707D01*
X162709566Y-87033000D01*
X162709566Y-86112151D01*
X162793500Y-86112151D01*
X162793500Y-86353849D01*
X162840653Y-86590903D01*
X162933147Y-86814202D01*
X163067427Y-87015167D01*
X163238333Y-87186073D01*
X163439298Y-87320353D01*
X163662597Y-87412847D01*
X163899651Y-87460000D01*
X164141349Y-87460000D01*
X164378403Y-87412847D01*
X164601702Y-87320353D01*
X164802667Y-87186073D01*
X164973573Y-87015167D01*
X165107853Y-86814202D01*
X165200347Y-86590903D01*
X165247500Y-86353849D01*
X165247500Y-86112151D01*
X165333500Y-86112151D01*
X165333500Y-86353849D01*
X165380653Y-86590903D01*
X165473147Y-86814202D01*
X165607427Y-87015167D01*
X165778333Y-87186073D01*
X165979298Y-87320353D01*
X166202597Y-87412847D01*
X166439651Y-87460000D01*
X166681349Y-87460000D01*
X166918403Y-87412847D01*
X167141702Y-87320353D01*
X167342667Y-87186073D01*
X167431240Y-87097500D01*
X172012434Y-87097500D01*
X172014500Y-87817750D01*
X172121250Y-87924500D01*
X173268500Y-87924500D01*
X173268500Y-86777250D01*
X173314500Y-86777250D01*
X173314500Y-87924500D01*
X174461750Y-87924500D01*
X174568500Y-87817750D01*
X174570566Y-87097500D01*
X174562322Y-87013793D01*
X174537905Y-86933304D01*
X174498255Y-86859124D01*
X174444895Y-86794105D01*
X174379876Y-86740745D01*
X174305696Y-86701095D01*
X174225207Y-86676678D01*
X174141500Y-86668434D01*
X173421250Y-86670500D01*
X173314500Y-86777250D01*
X173268500Y-86777250D01*
X173161750Y-86670500D01*
X172441500Y-86668434D01*
X172357793Y-86676678D01*
X172277304Y-86701095D01*
X172203124Y-86740745D01*
X172138105Y-86794105D01*
X172084745Y-86859124D01*
X172045095Y-86933304D01*
X172020678Y-87013793D01*
X172012434Y-87097500D01*
X167431240Y-87097500D01*
X167513573Y-87015167D01*
X167647853Y-86814202D01*
X167740347Y-86590903D01*
X167787500Y-86353849D01*
X167787500Y-86112151D01*
X167740347Y-85875097D01*
X167647853Y-85651798D01*
X167513573Y-85450833D01*
X167342667Y-85279927D01*
X167141702Y-85145647D01*
X166918403Y-85053153D01*
X166681349Y-85006000D01*
X166439651Y-85006000D01*
X166202597Y-85053153D01*
X165979298Y-85145647D01*
X165778333Y-85279927D01*
X165607427Y-85450833D01*
X165473147Y-85651798D01*
X165380653Y-85875097D01*
X165333500Y-86112151D01*
X165247500Y-86112151D01*
X165200347Y-85875097D01*
X165107853Y-85651798D01*
X164973573Y-85450833D01*
X164802667Y-85279927D01*
X164601702Y-85145647D01*
X164378403Y-85053153D01*
X164141349Y-85006000D01*
X163899651Y-85006000D01*
X163662597Y-85053153D01*
X163439298Y-85145647D01*
X163238333Y-85279927D01*
X163067427Y-85450833D01*
X162933147Y-85651798D01*
X162840653Y-85875097D01*
X162793500Y-86112151D01*
X162709566Y-86112151D01*
X162709566Y-85433000D01*
X162701322Y-85349293D01*
X162676905Y-85268804D01*
X162637255Y-85194624D01*
X162583895Y-85129605D01*
X162518876Y-85076245D01*
X162444696Y-85036595D01*
X162364207Y-85012178D01*
X162280500Y-85003934D01*
X160680500Y-85003934D01*
X160596793Y-85012178D01*
X160516304Y-85036595D01*
X160442124Y-85076245D01*
X160377105Y-85129605D01*
X160323745Y-85194624D01*
X160284095Y-85268804D01*
X160259678Y-85349293D01*
X160251434Y-85433000D01*
X128069451Y-85433000D01*
X128004540Y-85368089D01*
X127795386Y-85228337D01*
X127562987Y-85132074D01*
X127387629Y-85097193D01*
X128040500Y-85099066D01*
X128124207Y-85090822D01*
X128204696Y-85066405D01*
X128278876Y-85026755D01*
X128343895Y-84973395D01*
X128397255Y-84908376D01*
X128436905Y-84834196D01*
X128461322Y-84753707D01*
X128469566Y-84670000D01*
X128467500Y-83949750D01*
X128360750Y-83843000D01*
X127213500Y-83843000D01*
X127213500Y-83863000D01*
X127167500Y-83863000D01*
X127167500Y-83843000D01*
X126020250Y-83843000D01*
X125913500Y-83949750D01*
X125911434Y-84670000D01*
X121337451Y-84670000D01*
X121210040Y-84542589D01*
X121000886Y-84402837D01*
X120768487Y-84306574D01*
X120556966Y-84264500D01*
X120768487Y-84222426D01*
X121000886Y-84126163D01*
X121210040Y-83986411D01*
X121387911Y-83808540D01*
X121527663Y-83599386D01*
X121623926Y-83366987D01*
X121673000Y-83120274D01*
X121673000Y-82970000D01*
X125911434Y-82970000D01*
X125913500Y-83690250D01*
X126020250Y-83797000D01*
X127167500Y-83797000D01*
X127167500Y-82649750D01*
X127213500Y-82649750D01*
X127213500Y-83797000D01*
X128360750Y-83797000D01*
X128467500Y-83690250D01*
X128469566Y-82970000D01*
X128461322Y-82886293D01*
X128436905Y-82805804D01*
X128397255Y-82731624D01*
X128343895Y-82666605D01*
X128278876Y-82613245D01*
X128204696Y-82573595D01*
X128124207Y-82549178D01*
X128040500Y-82540934D01*
X127320250Y-82543000D01*
X127213500Y-82649750D01*
X127167500Y-82649750D01*
X127060750Y-82543000D01*
X126340500Y-82540934D01*
X126256793Y-82549178D01*
X126176304Y-82573595D01*
X126102124Y-82613245D01*
X126037105Y-82666605D01*
X125983745Y-82731624D01*
X125944095Y-82805804D01*
X125919678Y-82886293D01*
X125911434Y-82970000D01*
X121673000Y-82970000D01*
X121673000Y-82868726D01*
X121623926Y-82622013D01*
X121557647Y-82462000D01*
X150041434Y-82462000D01*
X150041434Y-84162000D01*
X150049678Y-84245707D01*
X150074095Y-84326196D01*
X150113745Y-84400376D01*
X150167105Y-84465395D01*
X150232124Y-84518755D01*
X150306304Y-84558405D01*
X150386793Y-84582822D01*
X150470500Y-84591066D01*
X152170500Y-84591066D01*
X152254207Y-84582822D01*
X152334696Y-84558405D01*
X152408876Y-84518755D01*
X152473895Y-84465395D01*
X152527255Y-84400376D01*
X152566905Y-84326196D01*
X152591322Y-84245707D01*
X152599566Y-84162000D01*
X152599566Y-82462000D01*
X152591322Y-82378293D01*
X152566905Y-82297804D01*
X152527255Y-82223624D01*
X152473895Y-82158605D01*
X152408876Y-82105245D01*
X152334696Y-82065595D01*
X152254207Y-82041178D01*
X152170500Y-82032934D01*
X150470500Y-82032934D01*
X150386793Y-82041178D01*
X150306304Y-82065595D01*
X150232124Y-82105245D01*
X150167105Y-82158605D01*
X150113745Y-82223624D01*
X150074095Y-82297804D01*
X150049678Y-82378293D01*
X150041434Y-82462000D01*
X121557647Y-82462000D01*
X121527663Y-82389614D01*
X121387911Y-82180460D01*
X121210040Y-82002589D01*
X121000886Y-81862837D01*
X120768487Y-81766574D01*
X120602544Y-81733566D01*
X121246000Y-81733566D01*
X121329707Y-81725322D01*
X121410196Y-81700905D01*
X121484376Y-81661255D01*
X121549395Y-81607895D01*
X121602755Y-81542876D01*
X121642405Y-81468696D01*
X121666822Y-81388207D01*
X121675066Y-81304500D01*
X121675066Y-79604500D01*
X121666822Y-79520793D01*
X121642405Y-79440304D01*
X121602755Y-79366124D01*
X121549395Y-79301105D01*
X121484376Y-79247745D01*
X121410196Y-79208095D01*
X121329707Y-79183678D01*
X121246000Y-79175434D01*
X119546000Y-79175434D01*
X119462293Y-79183678D01*
X119381804Y-79208095D01*
X119307624Y-79247745D01*
X119242605Y-79301105D01*
X119189245Y-79366124D01*
X119149595Y-79440304D01*
X119125178Y-79520793D01*
X119116934Y-79604500D01*
X118514000Y-79604500D01*
X118514000Y-77953500D01*
X125847934Y-77953500D01*
X125847934Y-79653500D01*
X125856178Y-79737207D01*
X125880595Y-79817696D01*
X125920245Y-79891876D01*
X125973605Y-79956895D01*
X126038624Y-80010255D01*
X126112804Y-80049905D01*
X126193293Y-80074322D01*
X126277000Y-80082566D01*
X127977000Y-80082566D01*
X128060707Y-80074322D01*
X128141196Y-80049905D01*
X128215376Y-80010255D01*
X128280395Y-79956895D01*
X128333755Y-79891876D01*
X128373405Y-79817696D01*
X128397822Y-79737207D01*
X128406066Y-79653500D01*
X128406066Y-78826502D01*
X128496955Y-78826502D01*
X128409523Y-79025951D01*
X128477083Y-79266998D01*
X128590371Y-79490233D01*
X128745033Y-79687078D01*
X128935126Y-79849967D01*
X129153344Y-79972641D01*
X129391302Y-80050386D01*
X129444549Y-80060976D01*
X129644000Y-79973524D01*
X129644000Y-78826500D01*
X129690000Y-78826500D01*
X129690000Y-79973524D01*
X129889451Y-80060976D01*
X129942698Y-80050386D01*
X130180656Y-79972641D01*
X130398874Y-79849967D01*
X130588967Y-79687078D01*
X130743629Y-79490233D01*
X130856917Y-79266998D01*
X130924477Y-79025951D01*
X130837044Y-78826500D01*
X129690000Y-78826500D01*
X129644000Y-78826500D01*
X129624000Y-78826500D01*
X129624000Y-78780500D01*
X129644000Y-78780500D01*
X129644000Y-77633476D01*
X129690000Y-77633476D01*
X129690000Y-78780500D01*
X130837044Y-78780500D01*
X130924477Y-78581049D01*
X130856917Y-78340002D01*
X130743629Y-78116767D01*
X130665242Y-78017000D01*
X133150434Y-78017000D01*
X133150434Y-79717000D01*
X133158678Y-79800707D01*
X133183095Y-79881196D01*
X133222745Y-79955376D01*
X133276105Y-80020395D01*
X133341124Y-80073755D01*
X133415304Y-80113405D01*
X133495793Y-80137822D01*
X133579500Y-80146066D01*
X135279500Y-80146066D01*
X135363207Y-80137822D01*
X135443696Y-80113405D01*
X135517876Y-80073755D01*
X135582895Y-80020395D01*
X135636255Y-79955376D01*
X135675905Y-79881196D01*
X135700322Y-79800707D01*
X135708566Y-79717000D01*
X135708566Y-78890002D01*
X135799455Y-78890002D01*
X135712023Y-79089451D01*
X135779583Y-79330498D01*
X135892871Y-79553733D01*
X136047533Y-79750578D01*
X136237626Y-79913467D01*
X136455844Y-80036141D01*
X136693802Y-80113886D01*
X136747049Y-80124476D01*
X136946500Y-80037024D01*
X136946500Y-78890000D01*
X136992500Y-78890000D01*
X136992500Y-80037024D01*
X137191951Y-80124476D01*
X137245198Y-80113886D01*
X137483156Y-80036141D01*
X137701374Y-79913467D01*
X137891467Y-79750578D01*
X138046129Y-79553733D01*
X138159417Y-79330498D01*
X138226977Y-79089451D01*
X138139544Y-78890000D01*
X136992500Y-78890000D01*
X136946500Y-78890000D01*
X136926500Y-78890000D01*
X136926500Y-78844000D01*
X136946500Y-78844000D01*
X136946500Y-77696976D01*
X136992500Y-77696976D01*
X136992500Y-78844000D01*
X138139544Y-78844000D01*
X138226977Y-78644549D01*
X138159417Y-78403502D01*
X138046129Y-78180267D01*
X137891467Y-77983422D01*
X137701374Y-77820533D01*
X137483156Y-77697859D01*
X137245198Y-77620114D01*
X137191951Y-77609524D01*
X136992500Y-77696976D01*
X136946500Y-77696976D01*
X136747049Y-77609524D01*
X136693802Y-77620114D01*
X136455844Y-77697859D01*
X136237626Y-77820533D01*
X136047533Y-77983422D01*
X135892871Y-78180267D01*
X135779583Y-78403502D01*
X135712023Y-78644549D01*
X135799455Y-78843998D01*
X135708566Y-78843998D01*
X135708566Y-78017000D01*
X135700322Y-77933293D01*
X135675905Y-77852804D01*
X135636255Y-77778624D01*
X135582895Y-77713605D01*
X135517876Y-77660245D01*
X135443696Y-77620595D01*
X135363207Y-77596178D01*
X135279500Y-77587934D01*
X133579500Y-77587934D01*
X133495793Y-77596178D01*
X133415304Y-77620595D01*
X133341124Y-77660245D01*
X133276105Y-77713605D01*
X133222745Y-77778624D01*
X133183095Y-77852804D01*
X133158678Y-77933293D01*
X133150434Y-78017000D01*
X130665242Y-78017000D01*
X130588967Y-77919922D01*
X130398874Y-77757033D01*
X130180656Y-77634359D01*
X129942698Y-77556614D01*
X129889451Y-77546024D01*
X129690000Y-77633476D01*
X129644000Y-77633476D01*
X129444549Y-77546024D01*
X129391302Y-77556614D01*
X129153344Y-77634359D01*
X128935126Y-77757033D01*
X128745033Y-77919922D01*
X128590371Y-78116767D01*
X128477083Y-78340002D01*
X128409523Y-78581049D01*
X128496955Y-78780498D01*
X128406066Y-78780498D01*
X128406066Y-77953500D01*
X128397822Y-77869793D01*
X128373405Y-77789304D01*
X128333755Y-77715124D01*
X128280395Y-77650105D01*
X128215376Y-77596745D01*
X128141196Y-77557095D01*
X128060707Y-77532678D01*
X127977000Y-77524434D01*
X126277000Y-77524434D01*
X126193293Y-77532678D01*
X126112804Y-77557095D01*
X126038624Y-77596745D01*
X125973605Y-77650105D01*
X125920245Y-77715124D01*
X125880595Y-77789304D01*
X125856178Y-77869793D01*
X125847934Y-77953500D01*
X118514000Y-77953500D01*
X118514000Y-73647889D01*
X118677270Y-74042058D01*
X119030425Y-74570593D01*
X119479907Y-75020075D01*
X120008442Y-75373230D01*
X120595719Y-75616488D01*
X121219168Y-75740500D01*
X121854832Y-75740500D01*
X122478281Y-75616488D01*
X123065558Y-75373230D01*
X123594093Y-75020075D01*
X124043575Y-74570593D01*
X124396730Y-74042058D01*
X124639988Y-73454781D01*
X124742981Y-72937000D01*
X125149434Y-72937000D01*
X125149434Y-74637000D01*
X125157678Y-74720707D01*
X125182095Y-74801196D01*
X125221745Y-74875376D01*
X125275105Y-74940395D01*
X125340124Y-74993755D01*
X125414304Y-75033405D01*
X125494793Y-75057822D01*
X125578500Y-75066066D01*
X127278500Y-75066066D01*
X127362207Y-75057822D01*
X127442696Y-75033405D01*
X127516876Y-74993755D01*
X127581895Y-74940395D01*
X127635255Y-74875376D01*
X127674905Y-74801196D01*
X127699322Y-74720707D01*
X127707566Y-74637000D01*
X127707566Y-73993544D01*
X127740574Y-74159487D01*
X127836837Y-74391886D01*
X127976589Y-74601040D01*
X128154460Y-74778911D01*
X128363614Y-74918663D01*
X128596013Y-75014926D01*
X128842726Y-75064000D01*
X129094274Y-75064000D01*
X129340987Y-75014926D01*
X129573386Y-74918663D01*
X129782540Y-74778911D01*
X129960411Y-74601040D01*
X130100163Y-74391886D01*
X130196426Y-74159487D01*
X130238500Y-73947966D01*
X130280574Y-74159487D01*
X130376837Y-74391886D01*
X130516589Y-74601040D01*
X130694460Y-74778911D01*
X130903614Y-74918663D01*
X131136013Y-75014926D01*
X131382726Y-75064000D01*
X131634274Y-75064000D01*
X131880987Y-75014926D01*
X132113386Y-74918663D01*
X132322540Y-74778911D01*
X132500411Y-74601040D01*
X132640163Y-74391886D01*
X132736426Y-74159487D01*
X132778500Y-73947966D01*
X132820574Y-74159487D01*
X132916837Y-74391886D01*
X133056589Y-74601040D01*
X133234460Y-74778911D01*
X133443614Y-74918663D01*
X133676013Y-75014926D01*
X133922726Y-75064000D01*
X134174274Y-75064000D01*
X134420987Y-75014926D01*
X134653386Y-74918663D01*
X134862540Y-74778911D01*
X135040411Y-74601040D01*
X135180163Y-74391886D01*
X135276426Y-74159487D01*
X135325500Y-73912774D01*
X135325500Y-73810002D01*
X135418455Y-73810002D01*
X135331023Y-74009451D01*
X135398583Y-74250498D01*
X135511871Y-74473733D01*
X135666533Y-74670578D01*
X135856626Y-74833467D01*
X136074844Y-74956141D01*
X136312802Y-75033886D01*
X136366049Y-75044476D01*
X136565500Y-74957024D01*
X136565500Y-73810000D01*
X136545500Y-73810000D01*
X136545500Y-73764000D01*
X136565500Y-73764000D01*
X136565500Y-73744000D01*
X136611500Y-73744000D01*
X136611500Y-73764000D01*
X136631500Y-73764000D01*
X136631500Y-73810000D01*
X136611500Y-73810000D01*
X136611500Y-74957024D01*
X136810951Y-75044476D01*
X136864198Y-75033886D01*
X137102156Y-74956141D01*
X137320374Y-74833467D01*
X137510467Y-74670578D01*
X137665129Y-74473733D01*
X137778417Y-74250498D01*
X137845977Y-74009451D01*
X137758545Y-73810002D01*
X137851500Y-73810002D01*
X137851500Y-73912774D01*
X137900574Y-74159487D01*
X137996837Y-74391886D01*
X138136589Y-74601040D01*
X138314460Y-74778911D01*
X138523614Y-74918663D01*
X138756013Y-75014926D01*
X139002726Y-75064000D01*
X139254274Y-75064000D01*
X139500987Y-75014926D01*
X139733386Y-74918663D01*
X139751502Y-74906559D01*
X139751501Y-78542853D01*
X139174855Y-79119500D01*
X139047048Y-79119500D01*
X138887273Y-79151282D01*
X138736769Y-79213623D01*
X138601319Y-79304128D01*
X138486128Y-79419319D01*
X138395623Y-79554769D01*
X138333282Y-79705273D01*
X138301500Y-79865048D01*
X138301500Y-80027952D01*
X138333282Y-80187727D01*
X138395623Y-80338231D01*
X138486128Y-80473681D01*
X138601319Y-80588872D01*
X138736769Y-80679377D01*
X138887273Y-80741718D01*
X139047048Y-80773500D01*
X139209952Y-80773500D01*
X139369727Y-80741718D01*
X139520231Y-80679377D01*
X139655681Y-80588872D01*
X139770872Y-80473681D01*
X139861377Y-80338231D01*
X139923718Y-80187727D01*
X139955500Y-80027952D01*
X139955500Y-79900145D01*
X140389434Y-79466211D01*
X140389434Y-79717000D01*
X140397678Y-79800707D01*
X140422095Y-79881196D01*
X140461745Y-79955376D01*
X140515105Y-80020395D01*
X140580124Y-80073755D01*
X140654304Y-80113405D01*
X140734793Y-80137822D01*
X140818500Y-80146066D01*
X142518500Y-80146066D01*
X142602207Y-80137822D01*
X142682696Y-80113405D01*
X142756876Y-80073755D01*
X142821895Y-80020395D01*
X142875255Y-79955376D01*
X142914905Y-79881196D01*
X142939322Y-79800707D01*
X142947566Y-79717000D01*
X142947566Y-79073544D01*
X142980574Y-79239487D01*
X143076837Y-79471886D01*
X143216589Y-79681040D01*
X143394460Y-79858911D01*
X143603614Y-79998663D01*
X143836013Y-80094926D01*
X144082726Y-80144000D01*
X144334274Y-80144000D01*
X144580987Y-80094926D01*
X144813386Y-79998663D01*
X145022540Y-79858911D01*
X145200411Y-79681040D01*
X145340163Y-79471886D01*
X145436426Y-79239487D01*
X145478500Y-79027966D01*
X145520574Y-79239487D01*
X145616837Y-79471886D01*
X145756589Y-79681040D01*
X145934460Y-79858911D01*
X146143614Y-79998663D01*
X146376013Y-80094926D01*
X146622726Y-80144000D01*
X146874274Y-80144000D01*
X147120987Y-80094926D01*
X147353386Y-79998663D01*
X147562540Y-79858911D01*
X147740411Y-79681040D01*
X147880163Y-79471886D01*
X147976426Y-79239487D01*
X148025500Y-78992774D01*
X148025500Y-78890002D01*
X148118455Y-78890002D01*
X148031023Y-79089451D01*
X148098583Y-79330498D01*
X148211871Y-79553733D01*
X148366533Y-79750578D01*
X148556626Y-79913467D01*
X148774844Y-80036141D01*
X149012802Y-80113886D01*
X149066049Y-80124476D01*
X149265500Y-80037024D01*
X149265500Y-78890000D01*
X149311500Y-78890000D01*
X149311500Y-80037024D01*
X149510951Y-80124476D01*
X149564198Y-80113886D01*
X149802156Y-80036141D01*
X150020374Y-79913467D01*
X150210467Y-79750578D01*
X150365129Y-79553733D01*
X150478417Y-79330498D01*
X150545977Y-79089451D01*
X150458544Y-78890000D01*
X149311500Y-78890000D01*
X149265500Y-78890000D01*
X149245500Y-78890000D01*
X149245500Y-78844000D01*
X149265500Y-78844000D01*
X149265500Y-77696976D01*
X149311500Y-77696976D01*
X149311500Y-78844000D01*
X150458544Y-78844000D01*
X150545977Y-78644549D01*
X150503264Y-78492151D01*
X160253500Y-78492151D01*
X160253500Y-78733849D01*
X160300653Y-78970903D01*
X160393147Y-79194202D01*
X160527427Y-79395167D01*
X160698333Y-79566073D01*
X160899298Y-79700353D01*
X161122597Y-79792847D01*
X161359651Y-79840000D01*
X161601349Y-79840000D01*
X161838403Y-79792847D01*
X162061702Y-79700353D01*
X162262667Y-79566073D01*
X162433573Y-79395167D01*
X162567853Y-79194202D01*
X162660347Y-78970903D01*
X162688846Y-78827628D01*
X162812417Y-78827628D01*
X162877502Y-79059189D01*
X162986512Y-79273603D01*
X163135257Y-79462631D01*
X163318021Y-79619008D01*
X163527781Y-79736725D01*
X163756476Y-79811258D01*
X163805872Y-79821082D01*
X163997500Y-79733014D01*
X163997500Y-78636000D01*
X164043500Y-78636000D01*
X164043500Y-79733014D01*
X164235128Y-79821082D01*
X164284524Y-79811258D01*
X164513219Y-79736725D01*
X164722979Y-79619008D01*
X164905743Y-79462631D01*
X165054488Y-79273603D01*
X165163498Y-79059189D01*
X165228583Y-78827628D01*
X165140535Y-78636000D01*
X164043500Y-78636000D01*
X163997500Y-78636000D01*
X162900465Y-78636000D01*
X162812417Y-78827628D01*
X162688846Y-78827628D01*
X162707500Y-78733849D01*
X162707500Y-78492151D01*
X162688847Y-78398372D01*
X162812417Y-78398372D01*
X162900465Y-78590000D01*
X163997500Y-78590000D01*
X163997500Y-77492986D01*
X164043500Y-77492986D01*
X164043500Y-78590000D01*
X165140535Y-78590000D01*
X165228583Y-78398372D01*
X165163498Y-78166811D01*
X165054488Y-77952397D01*
X164905743Y-77763369D01*
X164722979Y-77606992D01*
X164513219Y-77489275D01*
X164284524Y-77414742D01*
X164235128Y-77404918D01*
X164043500Y-77492986D01*
X163997500Y-77492986D01*
X163805872Y-77404918D01*
X163756476Y-77414742D01*
X163527781Y-77489275D01*
X163318021Y-77606992D01*
X163135257Y-77763369D01*
X162986512Y-77952397D01*
X162877502Y-78166811D01*
X162812417Y-78398372D01*
X162688847Y-78398372D01*
X162660347Y-78255097D01*
X162567853Y-78031798D01*
X162433573Y-77830833D01*
X162262667Y-77659927D01*
X162061702Y-77525647D01*
X161838403Y-77433153D01*
X161601349Y-77386000D01*
X161359651Y-77386000D01*
X161122597Y-77433153D01*
X160899298Y-77525647D01*
X160698333Y-77659927D01*
X160527427Y-77830833D01*
X160393147Y-78031798D01*
X160300653Y-78255097D01*
X160253500Y-78492151D01*
X150503264Y-78492151D01*
X150478417Y-78403502D01*
X150365129Y-78180267D01*
X150210467Y-77983422D01*
X150020374Y-77820533D01*
X149802156Y-77697859D01*
X149564198Y-77620114D01*
X149510951Y-77609524D01*
X149311500Y-77696976D01*
X149265500Y-77696976D01*
X149066049Y-77609524D01*
X149012802Y-77620114D01*
X148774844Y-77697859D01*
X148556626Y-77820533D01*
X148366533Y-77983422D01*
X148211871Y-78180267D01*
X148098583Y-78403502D01*
X148031023Y-78644549D01*
X148118455Y-78843998D01*
X148025500Y-78843998D01*
X148025500Y-78741226D01*
X147976426Y-78494513D01*
X147880163Y-78262114D01*
X147740411Y-78052960D01*
X147562540Y-77875089D01*
X147353386Y-77735337D01*
X147120987Y-77639074D01*
X146874274Y-77590000D01*
X146622726Y-77590000D01*
X146376013Y-77639074D01*
X146143614Y-77735337D01*
X145934460Y-77875089D01*
X145756589Y-78052960D01*
X145616837Y-78262114D01*
X145520574Y-78494513D01*
X145478500Y-78706034D01*
X145436426Y-78494513D01*
X145340163Y-78262114D01*
X145200411Y-78052960D01*
X145022540Y-77875089D01*
X144813386Y-77735337D01*
X144580987Y-77639074D01*
X144334274Y-77590000D01*
X144082726Y-77590000D01*
X143836013Y-77639074D01*
X143603614Y-77735337D01*
X143394460Y-77875089D01*
X143216589Y-78052960D01*
X143076837Y-78262114D01*
X142980574Y-78494513D01*
X142947566Y-78660456D01*
X142947566Y-78017000D01*
X142939322Y-77933293D01*
X142914905Y-77852804D01*
X142875255Y-77778624D01*
X142821895Y-77713605D01*
X142756876Y-77660245D01*
X142682696Y-77620595D01*
X142602207Y-77596178D01*
X142518500Y-77587934D01*
X140855501Y-77587934D01*
X140855501Y-74779607D01*
X141063614Y-74918663D01*
X141296013Y-75014926D01*
X141542726Y-75064000D01*
X141794274Y-75064000D01*
X142040987Y-75014926D01*
X142273386Y-74918663D01*
X142482540Y-74778911D01*
X142660411Y-74601040D01*
X142800163Y-74391886D01*
X142896426Y-74159487D01*
X142938500Y-73947966D01*
X142980574Y-74159487D01*
X143076837Y-74391886D01*
X143216589Y-74601040D01*
X143394460Y-74778911D01*
X143603614Y-74918663D01*
X143836013Y-75014926D01*
X144082726Y-75064000D01*
X144334274Y-75064000D01*
X144580987Y-75014926D01*
X144813386Y-74918663D01*
X145022540Y-74778911D01*
X145200411Y-74601040D01*
X145340163Y-74391886D01*
X145436426Y-74159487D01*
X145478500Y-73947966D01*
X145520574Y-74159487D01*
X145616837Y-74391886D01*
X145756589Y-74601040D01*
X145934460Y-74778911D01*
X146143614Y-74918663D01*
X146376013Y-75014926D01*
X146622726Y-75064000D01*
X146874274Y-75064000D01*
X147120987Y-75014926D01*
X147353386Y-74918663D01*
X147562540Y-74778911D01*
X147740411Y-74601040D01*
X147880163Y-74391886D01*
X147976426Y-74159487D01*
X148018500Y-73947966D01*
X148060574Y-74159487D01*
X148156837Y-74391886D01*
X148296589Y-74601040D01*
X148474460Y-74778911D01*
X148683614Y-74918663D01*
X148916013Y-75014926D01*
X149162726Y-75064000D01*
X149414274Y-75064000D01*
X149660987Y-75014926D01*
X149893386Y-74918663D01*
X150102540Y-74778911D01*
X150280411Y-74601040D01*
X150420163Y-74391886D01*
X150516426Y-74159487D01*
X150558500Y-73947966D01*
X150600574Y-74159487D01*
X150696837Y-74391886D01*
X150836589Y-74601040D01*
X151014460Y-74778911D01*
X151223614Y-74918663D01*
X151456013Y-75014926D01*
X151702726Y-75064000D01*
X151954274Y-75064000D01*
X152200987Y-75014926D01*
X152433386Y-74918663D01*
X152642540Y-74778911D01*
X152820411Y-74601040D01*
X152960163Y-74391886D01*
X153056426Y-74159487D01*
X153098500Y-73947966D01*
X153140574Y-74159487D01*
X153236837Y-74391886D01*
X153376589Y-74601040D01*
X153554460Y-74778911D01*
X153763614Y-74918663D01*
X153996013Y-75014926D01*
X154242726Y-75064000D01*
X154494274Y-75064000D01*
X154740987Y-75014926D01*
X154973386Y-74918663D01*
X155182540Y-74778911D01*
X155360411Y-74601040D01*
X155500163Y-74391886D01*
X155596426Y-74159487D01*
X155645500Y-73912774D01*
X155645500Y-73810002D01*
X155738455Y-73810002D01*
X155651023Y-74009451D01*
X155718583Y-74250498D01*
X155831871Y-74473733D01*
X155986533Y-74670578D01*
X156176626Y-74833467D01*
X156394844Y-74956141D01*
X156632802Y-75033886D01*
X156686049Y-75044476D01*
X156885500Y-74957024D01*
X156885500Y-73810000D01*
X156865500Y-73810000D01*
X156865500Y-73764000D01*
X156885500Y-73764000D01*
X156885500Y-73744000D01*
X156931500Y-73744000D01*
X156931500Y-73764000D01*
X156951500Y-73764000D01*
X156951500Y-73810000D01*
X156931500Y-73810000D01*
X156931500Y-74957024D01*
X157130951Y-75044476D01*
X157184198Y-75033886D01*
X157422156Y-74956141D01*
X157640374Y-74833467D01*
X157830467Y-74670578D01*
X157985129Y-74473733D01*
X158098417Y-74250498D01*
X158165977Y-74009451D01*
X158078545Y-73810002D01*
X158171500Y-73810002D01*
X158171500Y-73912774D01*
X158220574Y-74159487D01*
X158316837Y-74391886D01*
X158456589Y-74601040D01*
X158634460Y-74778911D01*
X158843614Y-74918663D01*
X159076013Y-75014926D01*
X159322726Y-75064000D01*
X159574274Y-75064000D01*
X159820987Y-75014926D01*
X160053386Y-74918663D01*
X160262540Y-74778911D01*
X160440411Y-74601040D01*
X160580163Y-74391886D01*
X160676426Y-74159487D01*
X160718500Y-73947966D01*
X160760574Y-74159487D01*
X160856837Y-74391886D01*
X160996589Y-74601040D01*
X161174460Y-74778911D01*
X161383614Y-74918663D01*
X161616013Y-75014926D01*
X161862726Y-75064000D01*
X162114274Y-75064000D01*
X162360987Y-75014926D01*
X162593386Y-74918663D01*
X162802540Y-74778911D01*
X162980411Y-74601040D01*
X163120163Y-74391886D01*
X163216426Y-74159487D01*
X163258500Y-73947966D01*
X163300574Y-74159487D01*
X163396837Y-74391886D01*
X163536589Y-74601040D01*
X163714460Y-74778911D01*
X163923614Y-74918663D01*
X164156013Y-75014926D01*
X164402726Y-75064000D01*
X164654274Y-75064000D01*
X164900987Y-75014926D01*
X165133386Y-74918663D01*
X165342540Y-74778911D01*
X165520411Y-74601040D01*
X165660163Y-74391886D01*
X165756426Y-74159487D01*
X165798500Y-73947966D01*
X165840574Y-74159487D01*
X165936837Y-74391886D01*
X166076589Y-74601040D01*
X166254460Y-74778911D01*
X166463614Y-74918663D01*
X166696013Y-75014926D01*
X166942726Y-75064000D01*
X167194274Y-75064000D01*
X167440987Y-75014926D01*
X167673386Y-74918663D01*
X167882540Y-74778911D01*
X168060411Y-74601040D01*
X168200163Y-74391886D01*
X168296426Y-74159487D01*
X168338500Y-73947966D01*
X168380574Y-74159487D01*
X168476837Y-74391886D01*
X168616589Y-74601040D01*
X168794460Y-74778911D01*
X169003614Y-74918663D01*
X169056501Y-74940569D01*
X169056500Y-77685854D01*
X167718353Y-79024002D01*
X167740347Y-78970903D01*
X167787500Y-78733849D01*
X167787500Y-78492151D01*
X167740347Y-78255097D01*
X167647853Y-78031798D01*
X167513573Y-77830833D01*
X167342667Y-77659927D01*
X167141702Y-77525647D01*
X166918403Y-77433153D01*
X166681349Y-77386000D01*
X166439651Y-77386000D01*
X166202597Y-77433153D01*
X165979298Y-77525647D01*
X165778333Y-77659927D01*
X165607427Y-77830833D01*
X165473147Y-78031798D01*
X165380653Y-78255097D01*
X165333500Y-78492151D01*
X165333500Y-78733849D01*
X165380653Y-78970903D01*
X165473147Y-79194202D01*
X165607427Y-79395167D01*
X165778333Y-79566073D01*
X165979298Y-79700353D01*
X166202597Y-79792847D01*
X166439651Y-79840000D01*
X166681349Y-79840000D01*
X166918403Y-79792847D01*
X166971502Y-79770852D01*
X163093356Y-83649000D01*
X159685053Y-83649000D01*
X159594681Y-83558628D01*
X159459231Y-83468123D01*
X159308727Y-83405782D01*
X159148952Y-83374000D01*
X158986048Y-83374000D01*
X158826273Y-83405782D01*
X158675769Y-83468123D01*
X158540319Y-83558628D01*
X158425128Y-83673819D01*
X158334623Y-83809269D01*
X158272282Y-83959773D01*
X158240500Y-84119548D01*
X158240500Y-84282452D01*
X158272282Y-84442227D01*
X158334623Y-84592731D01*
X158425128Y-84728181D01*
X158540319Y-84843372D01*
X158675769Y-84933877D01*
X158826273Y-84996218D01*
X158986048Y-85028000D01*
X159148952Y-85028000D01*
X159308727Y-84996218D01*
X159459231Y-84933877D01*
X159594681Y-84843372D01*
X159685053Y-84753000D01*
X163294894Y-84753000D01*
X163322000Y-84755670D01*
X163349106Y-84753000D01*
X163349109Y-84753000D01*
X163430211Y-84745012D01*
X163534263Y-84713448D01*
X163630158Y-84662191D01*
X163714211Y-84593211D01*
X163731501Y-84572143D01*
X164483341Y-83820303D01*
X164535200Y-83897915D01*
X164650391Y-84013106D01*
X164785841Y-84103611D01*
X164936345Y-84165952D01*
X165096120Y-84197734D01*
X165259024Y-84197734D01*
X165418799Y-84165952D01*
X165569303Y-84103611D01*
X165704753Y-84013106D01*
X165819944Y-83897915D01*
X165910449Y-83762465D01*
X165972790Y-83611961D01*
X166004572Y-83452186D01*
X166004572Y-83324378D01*
X166518799Y-82810151D01*
X168318000Y-82810151D01*
X168318000Y-83051849D01*
X168365153Y-83288903D01*
X168457647Y-83512202D01*
X168591927Y-83713167D01*
X168762833Y-83884073D01*
X168963798Y-84018353D01*
X169187097Y-84110847D01*
X169424151Y-84158000D01*
X169665849Y-84158000D01*
X169902903Y-84110847D01*
X170126202Y-84018353D01*
X170327167Y-83884073D01*
X170498073Y-83713167D01*
X170632353Y-83512202D01*
X170724847Y-83288903D01*
X170772000Y-83051849D01*
X170772000Y-82810151D01*
X175938000Y-82810151D01*
X175938000Y-83051849D01*
X175985153Y-83288903D01*
X176077647Y-83512202D01*
X176211927Y-83713167D01*
X176382833Y-83884073D01*
X176583798Y-84018353D01*
X176807097Y-84110847D01*
X177044151Y-84158000D01*
X177285849Y-84158000D01*
X177522903Y-84110847D01*
X177746202Y-84018353D01*
X177947167Y-83884073D01*
X178118073Y-83713167D01*
X178252353Y-83512202D01*
X178344847Y-83288903D01*
X178392000Y-83051849D01*
X178392000Y-82810151D01*
X178344847Y-82573097D01*
X178252353Y-82349798D01*
X178118073Y-82148833D01*
X177947167Y-81977927D01*
X177746202Y-81843647D01*
X177522903Y-81751153D01*
X177285849Y-81704000D01*
X177044151Y-81704000D01*
X176807097Y-81751153D01*
X176583798Y-81843647D01*
X176382833Y-81977927D01*
X176211927Y-82148833D01*
X176077647Y-82349798D01*
X175985153Y-82573097D01*
X175938000Y-82810151D01*
X170772000Y-82810151D01*
X170724847Y-82573097D01*
X170632353Y-82349798D01*
X170498073Y-82148833D01*
X170327167Y-81977927D01*
X170126202Y-81843647D01*
X169902903Y-81751153D01*
X169665849Y-81704000D01*
X169424151Y-81704000D01*
X169187097Y-81751153D01*
X168963798Y-81843647D01*
X168762833Y-81977927D01*
X168591927Y-82148833D01*
X168457647Y-82349798D01*
X168365153Y-82573097D01*
X168318000Y-82810151D01*
X166518799Y-82810151D01*
X168068452Y-81260500D01*
X171041894Y-81260500D01*
X171069000Y-81263170D01*
X171096106Y-81260500D01*
X171096109Y-81260500D01*
X171177211Y-81252512D01*
X171281263Y-81220948D01*
X171377158Y-81169691D01*
X171461211Y-81100711D01*
X171478500Y-81079644D01*
X173069213Y-79488932D01*
X175035095Y-79488932D01*
X175109032Y-79687312D01*
X175319796Y-79805617D01*
X175549591Y-79880531D01*
X175789586Y-79909175D01*
X176030557Y-79890447D01*
X176263245Y-79825068D01*
X176478707Y-79715550D01*
X176520968Y-79687312D01*
X176594905Y-79488932D01*
X175815000Y-78709027D01*
X175035095Y-79488932D01*
X173069213Y-79488932D01*
X173789654Y-78768492D01*
X173810711Y-78751211D01*
X173879691Y-78667158D01*
X173888281Y-78651086D01*
X174582325Y-78651086D01*
X174601053Y-78892057D01*
X174666432Y-79124745D01*
X174775950Y-79340207D01*
X174804188Y-79382468D01*
X175002568Y-79456405D01*
X175782473Y-78676500D01*
X175847527Y-78676500D01*
X176627432Y-79456405D01*
X176825812Y-79382468D01*
X176944117Y-79171704D01*
X177019031Y-78941909D01*
X177047675Y-78701914D01*
X177028947Y-78460943D01*
X176963568Y-78228255D01*
X176854050Y-78012793D01*
X176825812Y-77970532D01*
X176627432Y-77896595D01*
X175847527Y-78676500D01*
X175782473Y-78676500D01*
X175002568Y-77896595D01*
X174804188Y-77970532D01*
X174685883Y-78181296D01*
X174610969Y-78411091D01*
X174582325Y-78651086D01*
X173888281Y-78651086D01*
X173930948Y-78571263D01*
X173962512Y-78467211D01*
X173970500Y-78386109D01*
X173970500Y-78386108D01*
X173973170Y-78359000D01*
X173970500Y-78331892D01*
X173970500Y-77864068D01*
X175035095Y-77864068D01*
X175815000Y-78643973D01*
X176594905Y-77864068D01*
X176520968Y-77665688D01*
X176310204Y-77547383D01*
X176080409Y-77472469D01*
X175840414Y-77443825D01*
X175599443Y-77462553D01*
X175366755Y-77527932D01*
X175151293Y-77637450D01*
X175109032Y-77665688D01*
X175035095Y-77864068D01*
X173970500Y-77864068D01*
X173970500Y-74841266D01*
X174174844Y-74956141D01*
X174412802Y-75033886D01*
X174466049Y-75044476D01*
X174665500Y-74957024D01*
X174665500Y-73810000D01*
X174711500Y-73810000D01*
X174711500Y-74957024D01*
X174910951Y-75044476D01*
X174964198Y-75033886D01*
X175202156Y-74956141D01*
X175420374Y-74833467D01*
X175610467Y-74670578D01*
X175765129Y-74473733D01*
X175878417Y-74250498D01*
X175945977Y-74009451D01*
X175858544Y-73810000D01*
X174711500Y-73810000D01*
X174665500Y-73810000D01*
X174645500Y-73810000D01*
X174645500Y-73764000D01*
X174665500Y-73764000D01*
X174665500Y-73744000D01*
X174711500Y-73744000D01*
X174711500Y-73764000D01*
X175858544Y-73764000D01*
X175945977Y-73564549D01*
X175878417Y-73323502D01*
X175765129Y-73100267D01*
X175610467Y-72903422D01*
X175420374Y-72740533D01*
X175202156Y-72617859D01*
X174964198Y-72540114D01*
X174910951Y-72529524D01*
X174711502Y-72616975D01*
X174711502Y-72524000D01*
X174814274Y-72524000D01*
X175060987Y-72474926D01*
X175293386Y-72378663D01*
X175502540Y-72238911D01*
X175680411Y-72061040D01*
X175820163Y-71851886D01*
X175916426Y-71619487D01*
X175965500Y-71372774D01*
X175965500Y-71121226D01*
X175916426Y-70874513D01*
X175820163Y-70642114D01*
X175680411Y-70432960D01*
X175502540Y-70255089D01*
X175293386Y-70115337D01*
X175060987Y-70019074D01*
X174814274Y-69970000D01*
X174562726Y-69970000D01*
X174316013Y-70019074D01*
X174083614Y-70115337D01*
X173874460Y-70255089D01*
X173696589Y-70432960D01*
X173556837Y-70642114D01*
X173460574Y-70874513D01*
X173418500Y-71086034D01*
X173376426Y-70874513D01*
X173280163Y-70642114D01*
X173140411Y-70432960D01*
X172962540Y-70255089D01*
X172753386Y-70115337D01*
X172520987Y-70019074D01*
X172274274Y-69970000D01*
X172022726Y-69970000D01*
X171776013Y-70019074D01*
X171543614Y-70115337D01*
X171334460Y-70255089D01*
X171156589Y-70432960D01*
X171016837Y-70642114D01*
X170920574Y-70874513D01*
X170878500Y-71086034D01*
X170836426Y-70874513D01*
X170740163Y-70642114D01*
X170600411Y-70432960D01*
X170422540Y-70255089D01*
X170213386Y-70115337D01*
X169980987Y-70019074D01*
X169734274Y-69970000D01*
X169482726Y-69970000D01*
X169236013Y-70019074D01*
X169003614Y-70115337D01*
X168794460Y-70255089D01*
X168616589Y-70432960D01*
X168476837Y-70642114D01*
X168380574Y-70874513D01*
X168331500Y-71121226D01*
X168331500Y-71223998D01*
X168238545Y-71223998D01*
X168325977Y-71024549D01*
X168258417Y-70783502D01*
X168145129Y-70560267D01*
X167990467Y-70363422D01*
X167800374Y-70200533D01*
X167582156Y-70077859D01*
X167344198Y-70000114D01*
X167290951Y-69989524D01*
X167091500Y-70076976D01*
X167091500Y-71224000D01*
X167111500Y-71224000D01*
X167111500Y-71270000D01*
X167091500Y-71270000D01*
X167091500Y-71290000D01*
X167045500Y-71290000D01*
X167045500Y-71270000D01*
X167025500Y-71270000D01*
X167025500Y-71224000D01*
X167045500Y-71224000D01*
X167045500Y-70076976D01*
X166846049Y-69989524D01*
X166792802Y-70000114D01*
X166554844Y-70077859D01*
X166336626Y-70200533D01*
X166146533Y-70363422D01*
X165991871Y-70560267D01*
X165878583Y-70783502D01*
X165811023Y-71024549D01*
X165898455Y-71223998D01*
X165805500Y-71223998D01*
X165805500Y-71121226D01*
X165756426Y-70874513D01*
X165660163Y-70642114D01*
X165520411Y-70432960D01*
X165342540Y-70255089D01*
X165133386Y-70115337D01*
X164900987Y-70019074D01*
X164654274Y-69970000D01*
X164402726Y-69970000D01*
X164156013Y-70019074D01*
X163923614Y-70115337D01*
X163714460Y-70255089D01*
X163536589Y-70432960D01*
X163396837Y-70642114D01*
X163300574Y-70874513D01*
X163251500Y-71121226D01*
X163251500Y-71223998D01*
X163158545Y-71223998D01*
X163245977Y-71024549D01*
X163178417Y-70783502D01*
X163065129Y-70560267D01*
X162910467Y-70363422D01*
X162720374Y-70200533D01*
X162502156Y-70077859D01*
X162264198Y-70000114D01*
X162210951Y-69989524D01*
X162011500Y-70076976D01*
X162011500Y-71224000D01*
X162031500Y-71224000D01*
X162031500Y-71270000D01*
X162011500Y-71270000D01*
X162011500Y-71290000D01*
X161965500Y-71290000D01*
X161965500Y-71270000D01*
X161945500Y-71270000D01*
X161945500Y-71224000D01*
X161965500Y-71224000D01*
X161965500Y-70076976D01*
X161766049Y-69989524D01*
X161712802Y-70000114D01*
X161474844Y-70077859D01*
X161256626Y-70200533D01*
X161066533Y-70363422D01*
X160911871Y-70560267D01*
X160798583Y-70783502D01*
X160731023Y-71024549D01*
X160818455Y-71223998D01*
X160725500Y-71223998D01*
X160725500Y-71121226D01*
X160676426Y-70874513D01*
X160580163Y-70642114D01*
X160440411Y-70432960D01*
X160262540Y-70255089D01*
X160053386Y-70115337D01*
X159820987Y-70019074D01*
X159574274Y-69970000D01*
X159322726Y-69970000D01*
X159076013Y-70019074D01*
X158843614Y-70115337D01*
X158634460Y-70255089D01*
X158456589Y-70432960D01*
X158316837Y-70642114D01*
X158220574Y-70874513D01*
X158178500Y-71086034D01*
X158136426Y-70874513D01*
X158040163Y-70642114D01*
X157900411Y-70432960D01*
X157722540Y-70255089D01*
X157513386Y-70115337D01*
X157280987Y-70019074D01*
X157034274Y-69970000D01*
X156782726Y-69970000D01*
X156536013Y-70019074D01*
X156303614Y-70115337D01*
X156094460Y-70255089D01*
X155916589Y-70432960D01*
X155776837Y-70642114D01*
X155680574Y-70874513D01*
X155638500Y-71086034D01*
X155596426Y-70874513D01*
X155500163Y-70642114D01*
X155360411Y-70432960D01*
X155182540Y-70255089D01*
X154973386Y-70115337D01*
X154740987Y-70019074D01*
X154494274Y-69970000D01*
X154242726Y-69970000D01*
X153996013Y-70019074D01*
X153763614Y-70115337D01*
X153554460Y-70255089D01*
X153376589Y-70432960D01*
X153236837Y-70642114D01*
X153140574Y-70874513D01*
X153098500Y-71086034D01*
X153056426Y-70874513D01*
X152960163Y-70642114D01*
X152820411Y-70432960D01*
X152642540Y-70255089D01*
X152433386Y-70115337D01*
X152200987Y-70019074D01*
X151954274Y-69970000D01*
X151702726Y-69970000D01*
X151456013Y-70019074D01*
X151223614Y-70115337D01*
X151014460Y-70255089D01*
X150836589Y-70432960D01*
X150696837Y-70642114D01*
X150600574Y-70874513D01*
X150551500Y-71121226D01*
X150551500Y-71223998D01*
X150458545Y-71223998D01*
X150545977Y-71024549D01*
X150478417Y-70783502D01*
X150365129Y-70560267D01*
X150210467Y-70363422D01*
X150020374Y-70200533D01*
X149802156Y-70077859D01*
X149564198Y-70000114D01*
X149510951Y-69989524D01*
X149311500Y-70076976D01*
X149311500Y-71224000D01*
X149331500Y-71224000D01*
X149331500Y-71270000D01*
X149311500Y-71270000D01*
X149311500Y-71290000D01*
X149265500Y-71290000D01*
X149265500Y-71270000D01*
X149245500Y-71270000D01*
X149245500Y-71224000D01*
X149265500Y-71224000D01*
X149265500Y-70076976D01*
X149066049Y-69989524D01*
X149012802Y-70000114D01*
X148774844Y-70077859D01*
X148556626Y-70200533D01*
X148366533Y-70363422D01*
X148211871Y-70560267D01*
X148098583Y-70783502D01*
X148031023Y-71024549D01*
X148118455Y-71223998D01*
X148025500Y-71223998D01*
X148025500Y-71121226D01*
X147976426Y-70874513D01*
X147880163Y-70642114D01*
X147740411Y-70432960D01*
X147562540Y-70255089D01*
X147353386Y-70115337D01*
X147120987Y-70019074D01*
X146874274Y-69970000D01*
X146622726Y-69970000D01*
X146376013Y-70019074D01*
X146143614Y-70115337D01*
X145934460Y-70255089D01*
X145756589Y-70432960D01*
X145616837Y-70642114D01*
X145520574Y-70874513D01*
X145478500Y-71086034D01*
X145436426Y-70874513D01*
X145340163Y-70642114D01*
X145200411Y-70432960D01*
X145022540Y-70255089D01*
X144813386Y-70115337D01*
X144580987Y-70019074D01*
X144334274Y-69970000D01*
X144082726Y-69970000D01*
X143836013Y-70019074D01*
X143603614Y-70115337D01*
X143394460Y-70255089D01*
X143216589Y-70432960D01*
X143076837Y-70642114D01*
X142980574Y-70874513D01*
X142931500Y-71121226D01*
X142931500Y-71223998D01*
X142838545Y-71223998D01*
X142925977Y-71024549D01*
X142858417Y-70783502D01*
X142745129Y-70560267D01*
X142590467Y-70363422D01*
X142400374Y-70200533D01*
X142182156Y-70077859D01*
X141944198Y-70000114D01*
X141890951Y-69989524D01*
X141691500Y-70076976D01*
X141691500Y-71224000D01*
X141711500Y-71224000D01*
X141711500Y-71270000D01*
X141691500Y-71270000D01*
X141691500Y-71290000D01*
X141645500Y-71290000D01*
X141645500Y-71270000D01*
X141625500Y-71270000D01*
X141625500Y-71224000D01*
X141645500Y-71224000D01*
X141645500Y-70076976D01*
X141446049Y-69989524D01*
X141392802Y-70000114D01*
X141154844Y-70077859D01*
X140936626Y-70200533D01*
X140746533Y-70363422D01*
X140591871Y-70560267D01*
X140478583Y-70783502D01*
X140411023Y-71024549D01*
X140498455Y-71223998D01*
X140405500Y-71223998D01*
X140405500Y-71121226D01*
X140356426Y-70874513D01*
X140260163Y-70642114D01*
X140120411Y-70432960D01*
X139942540Y-70255089D01*
X139733386Y-70115337D01*
X139500987Y-70019074D01*
X139254274Y-69970000D01*
X139002726Y-69970000D01*
X138756013Y-70019074D01*
X138523614Y-70115337D01*
X138314460Y-70255089D01*
X138136589Y-70432960D01*
X137996837Y-70642114D01*
X137900574Y-70874513D01*
X137858500Y-71086034D01*
X137816426Y-70874513D01*
X137720163Y-70642114D01*
X137580411Y-70432960D01*
X137402540Y-70255089D01*
X137193386Y-70115337D01*
X136960987Y-70019074D01*
X136714274Y-69970000D01*
X136462726Y-69970000D01*
X136216013Y-70019074D01*
X135983614Y-70115337D01*
X135774460Y-70255089D01*
X135596589Y-70432960D01*
X135456837Y-70642114D01*
X135360574Y-70874513D01*
X135318500Y-71086034D01*
X135276426Y-70874513D01*
X135180163Y-70642114D01*
X135040411Y-70432960D01*
X134862540Y-70255089D01*
X134653386Y-70115337D01*
X134420987Y-70019074D01*
X134174274Y-69970000D01*
X133922726Y-69970000D01*
X133676013Y-70019074D01*
X133443614Y-70115337D01*
X133234460Y-70255089D01*
X133056589Y-70432960D01*
X132916837Y-70642114D01*
X132820574Y-70874513D01*
X132771500Y-71121226D01*
X132771500Y-71223998D01*
X132678545Y-71223998D01*
X132765977Y-71024549D01*
X132698417Y-70783502D01*
X132585129Y-70560267D01*
X132430467Y-70363422D01*
X132240374Y-70200533D01*
X132022156Y-70077859D01*
X131784198Y-70000114D01*
X131730951Y-69989524D01*
X131531500Y-70076976D01*
X131531500Y-71224000D01*
X131551500Y-71224000D01*
X131551500Y-71270000D01*
X131531500Y-71270000D01*
X131531500Y-71290000D01*
X131485500Y-71290000D01*
X131485500Y-71270000D01*
X131465500Y-71270000D01*
X131465500Y-71224000D01*
X131485500Y-71224000D01*
X131485500Y-70076976D01*
X131286049Y-69989524D01*
X131232802Y-70000114D01*
X130994844Y-70077859D01*
X130776626Y-70200533D01*
X130586533Y-70363422D01*
X130431871Y-70560267D01*
X130318583Y-70783502D01*
X130251023Y-71024549D01*
X130338455Y-71223998D01*
X130245500Y-71223998D01*
X130245500Y-71121226D01*
X130196426Y-70874513D01*
X130100163Y-70642114D01*
X129960411Y-70432960D01*
X129782540Y-70255089D01*
X129573386Y-70115337D01*
X129340987Y-70019074D01*
X129094274Y-69970000D01*
X128842726Y-69970000D01*
X128596013Y-70019074D01*
X128363614Y-70115337D01*
X128154460Y-70255089D01*
X127976589Y-70432960D01*
X127836837Y-70642114D01*
X127740574Y-70874513D01*
X127698500Y-71086034D01*
X127656426Y-70874513D01*
X127560163Y-70642114D01*
X127420411Y-70432960D01*
X127242540Y-70255089D01*
X127033386Y-70115337D01*
X126800987Y-70019074D01*
X126554274Y-69970000D01*
X126302726Y-69970000D01*
X126056013Y-70019074D01*
X125823614Y-70115337D01*
X125614460Y-70255089D01*
X125436589Y-70432960D01*
X125296837Y-70642114D01*
X125200574Y-70874513D01*
X125151500Y-71121226D01*
X125151500Y-71372774D01*
X125200574Y-71619487D01*
X125296837Y-71851886D01*
X125436589Y-72061040D01*
X125614460Y-72238911D01*
X125823614Y-72378663D01*
X126056013Y-72474926D01*
X126221956Y-72507934D01*
X125578500Y-72507934D01*
X125494793Y-72516178D01*
X125414304Y-72540595D01*
X125340124Y-72580245D01*
X125275105Y-72633605D01*
X125221745Y-72698624D01*
X125182095Y-72772804D01*
X125157678Y-72853293D01*
X125149434Y-72937000D01*
X124742981Y-72937000D01*
X124764000Y-72831332D01*
X124764000Y-72195668D01*
X124639988Y-71572219D01*
X124396730Y-70984942D01*
X124043575Y-70456407D01*
X123594093Y-70006925D01*
X123065558Y-69653770D01*
X122671389Y-69490500D01*
X178402611Y-69490500D01*
X178008442Y-69653770D01*
G37*
X178008442Y-69653770D02*
X177479907Y-70006925D01*
X177030425Y-70456407D01*
X176677270Y-70984942D01*
X176434012Y-71572219D01*
X176310000Y-72195668D01*
X176310000Y-72831332D01*
X176434012Y-73454781D01*
X176677270Y-74042058D01*
X177030425Y-74570593D01*
X177479907Y-75020075D01*
X178008442Y-75373230D01*
X178595719Y-75616488D01*
X179219168Y-75740500D01*
X179854832Y-75740500D01*
X180478281Y-75616488D01*
X181065558Y-75373230D01*
X181594093Y-75020075D01*
X182043575Y-74570593D01*
X182396730Y-74042058D01*
X182560000Y-73647889D01*
X182560001Y-94379113D01*
X182396730Y-93984942D01*
X182043575Y-93456407D01*
X181594093Y-93006925D01*
X181065558Y-92653770D01*
X180478281Y-92410512D01*
X179854832Y-92286500D01*
X179219168Y-92286500D01*
X178595719Y-92410512D01*
X178008442Y-92653770D01*
X177479907Y-93006925D01*
X177030425Y-93456407D01*
X176677270Y-93984942D01*
X176434012Y-94572219D01*
X176310000Y-95195668D01*
X176310000Y-95831332D01*
X176434012Y-96454781D01*
X176677270Y-97042058D01*
X177030425Y-97570593D01*
X177479907Y-98020075D01*
X178008442Y-98373230D01*
X178402611Y-98536500D01*
X122671389Y-98536500D01*
X123065558Y-98373230D01*
X123594093Y-98020075D01*
X124043575Y-97570593D01*
X124396730Y-97042058D01*
X124639988Y-96454781D01*
X124652033Y-96394226D01*
X125913500Y-96394226D01*
X125913500Y-96645774D01*
X125962574Y-96892487D01*
X126058837Y-97124886D01*
X126198589Y-97334040D01*
X126376460Y-97511911D01*
X126585614Y-97651663D01*
X126818013Y-97747926D01*
X127064726Y-97797000D01*
X127316274Y-97797000D01*
X127562987Y-97747926D01*
X127795386Y-97651663D01*
X128004540Y-97511911D01*
X128182411Y-97334040D01*
X128322163Y-97124886D01*
X128418426Y-96892487D01*
X128467500Y-96645774D01*
X128467500Y-96394226D01*
X128418426Y-96147513D01*
X128322163Y-95915114D01*
X128182411Y-95705960D01*
X128004540Y-95528089D01*
X127795386Y-95388337D01*
X127562987Y-95292074D01*
X127316274Y-95243000D01*
X127213502Y-95243000D01*
X127213502Y-95150045D01*
X127412951Y-95237477D01*
X127653998Y-95169917D01*
X127877233Y-95056629D01*
X128074078Y-94901967D01*
X128236967Y-94711874D01*
X128359641Y-94493656D01*
X128437386Y-94255698D01*
X128447976Y-94202451D01*
X128360524Y-94003000D01*
X127213500Y-94003000D01*
X127213500Y-94023000D01*
X127167500Y-94023000D01*
X127167500Y-94003000D01*
X126020476Y-94003000D01*
X125933024Y-94202451D01*
X125943614Y-94255698D01*
X126021359Y-94493656D01*
X126144033Y-94711874D01*
X126306922Y-94901967D01*
X126503767Y-95056629D01*
X126727002Y-95169917D01*
X126968049Y-95237477D01*
X127167498Y-95150045D01*
X127167498Y-95243000D01*
X127064726Y-95243000D01*
X126818013Y-95292074D01*
X126585614Y-95388337D01*
X126376460Y-95528089D01*
X126198589Y-95705960D01*
X126058837Y-95915114D01*
X125962574Y-96147513D01*
X125913500Y-96394226D01*
X124652033Y-96394226D01*
X124764000Y-95831332D01*
X124764000Y-95195668D01*
X124639988Y-94572219D01*
X124396730Y-93984942D01*
X124043575Y-93456407D01*
X123594093Y-93006925D01*
X123065558Y-92653770D01*
X122478281Y-92410512D01*
X121854832Y-92286500D01*
X121219168Y-92286500D01*
X120595719Y-92410512D01*
X120008442Y-92653770D01*
X119479907Y-93006925D01*
X119030425Y-93456407D01*
X118677270Y-93984942D01*
X118514000Y-94379111D01*
X118514000Y-88296951D01*
X119138524Y-88296951D01*
X119149114Y-88350198D01*
X119226859Y-88588156D01*
X119349533Y-88806374D01*
X119512422Y-88996467D01*
X119709267Y-89151129D01*
X119932502Y-89264417D01*
X120173549Y-89331977D01*
X120373000Y-89244544D01*
X120373000Y-88097500D01*
X120419000Y-88097500D01*
X120419000Y-89244544D01*
X120618451Y-89331977D01*
X120859498Y-89264417D01*
X121082733Y-89151129D01*
X121279578Y-88996467D01*
X121442467Y-88806374D01*
X121565141Y-88588156D01*
X121642886Y-88350198D01*
X121653476Y-88296951D01*
X121566024Y-88097500D01*
X120419000Y-88097500D01*
X120373000Y-88097500D01*
X119225976Y-88097500D01*
X119138524Y-88296951D01*
X118514000Y-88296951D01*
X118514000Y-79604500D01*
X119116934Y-79604500D01*
X119116934Y-81304500D01*
X119125178Y-81388207D01*
X119149595Y-81468696D01*
X119189245Y-81542876D01*
X119242605Y-81607895D01*
X119307624Y-81661255D01*
X119381804Y-81700905D01*
X119462293Y-81725322D01*
X119546000Y-81733566D01*
X120189456Y-81733566D01*
X120023513Y-81766574D01*
X119791114Y-81862837D01*
X119581960Y-82002589D01*
X119404089Y-82180460D01*
X119264337Y-82389614D01*
X119168074Y-82622013D01*
X119119000Y-82868726D01*
X119119000Y-83120274D01*
X119168074Y-83366987D01*
X119264337Y-83599386D01*
X119404089Y-83808540D01*
X119581960Y-83986411D01*
X119791114Y-84126163D01*
X120023513Y-84222426D01*
X120235034Y-84264500D01*
X120023513Y-84306574D01*
X119791114Y-84402837D01*
X119581960Y-84542589D01*
X119404089Y-84720460D01*
X119264337Y-84929614D01*
X119168074Y-85162013D01*
X119119000Y-85408726D01*
X119119000Y-85660274D01*
X119168074Y-85906987D01*
X119264337Y-86139386D01*
X119404089Y-86348540D01*
X119581960Y-86526411D01*
X119791114Y-86666163D01*
X120023513Y-86762426D01*
X120270226Y-86811500D01*
X120372998Y-86811500D01*
X120372998Y-86904455D01*
X120173549Y-86817023D01*
X119932502Y-86884583D01*
X119709267Y-86997871D01*
X119512422Y-87152533D01*
X119349533Y-87342626D01*
X119226859Y-87560844D01*
X119149114Y-87798802D01*
X119138524Y-87852049D01*
X119225976Y-88051500D01*
X120373000Y-88051500D01*
X120373000Y-88031500D01*
X120419000Y-88031500D01*
X120419000Y-88051500D01*
X121566024Y-88051500D01*
X121653476Y-87852049D01*
X121642886Y-87798802D01*
X121565141Y-87560844D01*
X121442467Y-87342626D01*
X121279578Y-87152533D01*
X121082733Y-86997871D01*
X120859498Y-86884583D01*
X120618451Y-86817023D01*
X120419002Y-86904455D01*
X120419002Y-86811500D01*
X120521774Y-86811500D01*
X120768487Y-86762426D01*
X121000886Y-86666163D01*
X121210040Y-86526411D01*
X121387911Y-86348540D01*
X121527663Y-86139386D01*
X121623926Y-85906987D01*
X121673000Y-85660274D01*
X121673000Y-85408726D01*
X121623926Y-85162013D01*
X121527663Y-84929614D01*
X121387911Y-84720460D01*
X121337451Y-84670000D01*
X125911434Y-84670000D01*
X125919678Y-84753707D01*
X125944095Y-84834196D01*
X125983745Y-84908376D01*
X126037105Y-84973395D01*
X126102124Y-85026755D01*
X126176304Y-85066405D01*
X126256793Y-85090822D01*
X126340500Y-85099066D01*
X126993371Y-85097193D01*
X126818013Y-85132074D01*
X126585614Y-85228337D01*
X126376460Y-85368089D01*
X126198589Y-85545960D01*
X126058837Y-85755114D01*
X125962574Y-85987513D01*
X125913500Y-86234226D01*
X125913500Y-86485774D01*
X125962574Y-86732487D01*
X126058837Y-86964886D01*
X126198589Y-87174040D01*
X126376460Y-87351911D01*
X126585614Y-87491663D01*
X126818013Y-87587926D01*
X127029534Y-87630000D01*
X126818013Y-87672074D01*
X126585614Y-87768337D01*
X126376460Y-87908089D01*
X126198589Y-88085960D01*
X126058837Y-88295114D01*
X125962574Y-88527513D01*
X125913500Y-88774226D01*
X125913500Y-89025774D01*
X125962574Y-89272487D01*
X126058837Y-89504886D01*
X126198589Y-89714040D01*
X126376460Y-89891911D01*
X126585614Y-90031663D01*
X126818013Y-90127926D01*
X127029534Y-90170000D01*
X126818013Y-90212074D01*
X126585614Y-90308337D01*
X126376460Y-90448089D01*
X126198589Y-90625960D01*
X126058837Y-90835114D01*
X125962574Y-91067513D01*
X125913500Y-91314226D01*
X125913500Y-91565774D01*
X125962574Y-91812487D01*
X126058837Y-92044886D01*
X126198589Y-92254040D01*
X126376460Y-92431911D01*
X126585614Y-92571663D01*
X126818013Y-92667926D01*
X127064726Y-92717000D01*
X127167498Y-92717000D01*
X127167498Y-92809955D01*
X126968049Y-92722523D01*
X126727002Y-92790083D01*
X126503767Y-92903371D01*
X126306922Y-93058033D01*
X126144033Y-93248126D01*
X126021359Y-93466344D01*
X125943614Y-93704302D01*
X125933024Y-93757549D01*
X126020476Y-93957000D01*
X127167500Y-93957000D01*
X127167500Y-93937000D01*
X127213500Y-93937000D01*
X127213500Y-93957000D01*
X128360524Y-93957000D01*
X128431269Y-93795651D01*
X160253500Y-93795651D01*
X160253500Y-94037349D01*
X160300653Y-94274403D01*
X160393147Y-94497702D01*
X160527427Y-94698667D01*
X160698333Y-94869573D01*
X160899298Y-95003853D01*
X161122597Y-95096347D01*
X161359651Y-95143500D01*
X161601349Y-95143500D01*
X161838403Y-95096347D01*
X162061702Y-95003853D01*
X162262667Y-94869573D01*
X162433573Y-94698667D01*
X162567853Y-94497702D01*
X162660347Y-94274403D01*
X162707500Y-94037349D01*
X162707500Y-93795651D01*
X167873500Y-93795651D01*
X167873500Y-94037349D01*
X167920653Y-94274403D01*
X168013147Y-94497702D01*
X168147427Y-94698667D01*
X168318333Y-94869573D01*
X168519298Y-95003853D01*
X168742597Y-95096347D01*
X168979651Y-95143500D01*
X169221349Y-95143500D01*
X169458403Y-95096347D01*
X169681702Y-95003853D01*
X169882667Y-94869573D01*
X170053573Y-94698667D01*
X170187853Y-94497702D01*
X170280347Y-94274403D01*
X170327500Y-94037349D01*
X170327500Y-93795651D01*
X170280347Y-93558597D01*
X170187853Y-93335298D01*
X170053573Y-93134333D01*
X169882667Y-92963427D01*
X169681702Y-92829147D01*
X169458403Y-92736653D01*
X169221349Y-92689500D01*
X168979651Y-92689500D01*
X168742597Y-92736653D01*
X168519298Y-92829147D01*
X168318333Y-92963427D01*
X168147427Y-93134333D01*
X168013147Y-93335298D01*
X167920653Y-93558597D01*
X167873500Y-93795651D01*
X162707500Y-93795651D01*
X162660347Y-93558597D01*
X162567853Y-93335298D01*
X162433573Y-93134333D01*
X162262667Y-92963427D01*
X162061702Y-92829147D01*
X161838403Y-92736653D01*
X161601349Y-92689500D01*
X161359651Y-92689500D01*
X161122597Y-92736653D01*
X160899298Y-92829147D01*
X160698333Y-92963427D01*
X160527427Y-93134333D01*
X160393147Y-93335298D01*
X160300653Y-93558597D01*
X160253500Y-93795651D01*
X128431269Y-93795651D01*
X128447976Y-93757549D01*
X128437386Y-93704302D01*
X128359641Y-93466344D01*
X128236967Y-93248126D01*
X128074078Y-93058033D01*
X127877233Y-92903371D01*
X127653998Y-92790083D01*
X127412951Y-92722523D01*
X127213502Y-92809955D01*
X127213502Y-92717000D01*
X127316274Y-92717000D01*
X127562987Y-92667926D01*
X127795386Y-92571663D01*
X128004540Y-92431911D01*
X128182411Y-92254040D01*
X128322163Y-92044886D01*
X128418426Y-91812487D01*
X128467500Y-91565774D01*
X128467500Y-91314226D01*
X128418426Y-91067513D01*
X128322163Y-90835114D01*
X128182411Y-90625960D01*
X128004540Y-90448089D01*
X127795386Y-90308337D01*
X127562987Y-90212074D01*
X127351466Y-90170000D01*
X127562987Y-90127926D01*
X127795386Y-90031663D01*
X128004540Y-89891911D01*
X128182411Y-89714040D01*
X128322163Y-89504886D01*
X128418426Y-89272487D01*
X128449553Y-89116000D01*
X160251434Y-89116000D01*
X160251434Y-90716000D01*
X160259678Y-90799707D01*
X160284095Y-90880196D01*
X160323745Y-90954376D01*
X160377105Y-91019395D01*
X160442124Y-91072755D01*
X160516304Y-91112405D01*
X160596793Y-91136822D01*
X160680500Y-91145066D01*
X162280500Y-91145066D01*
X162364207Y-91136822D01*
X162444696Y-91112405D01*
X162518876Y-91072755D01*
X162583895Y-91019395D01*
X162637255Y-90954376D01*
X162676905Y-90880196D01*
X162701322Y-90799707D01*
X162709566Y-90716000D01*
X162709566Y-89795151D01*
X167873500Y-89795151D01*
X167873500Y-90036849D01*
X167920653Y-90273903D01*
X168013147Y-90497202D01*
X168147427Y-90698167D01*
X168318333Y-90869073D01*
X168519298Y-91003353D01*
X168742597Y-91095847D01*
X168979651Y-91143000D01*
X169221349Y-91143000D01*
X169458403Y-91095847D01*
X169681702Y-91003353D01*
X169882667Y-90869073D01*
X170053573Y-90698167D01*
X170187853Y-90497202D01*
X170280347Y-90273903D01*
X170327500Y-90036849D01*
X170327500Y-89795151D01*
X170280347Y-89558097D01*
X170187853Y-89334798D01*
X170053573Y-89133833D01*
X169882667Y-88962927D01*
X169681702Y-88828647D01*
X169606507Y-88797500D01*
X172012434Y-88797500D01*
X172020678Y-88881207D01*
X172045095Y-88961696D01*
X172084745Y-89035876D01*
X172138105Y-89100895D01*
X172203124Y-89154255D01*
X172277304Y-89193905D01*
X172357793Y-89218322D01*
X172441500Y-89226566D01*
X173094371Y-89224693D01*
X172919013Y-89259574D01*
X172686614Y-89355837D01*
X172477460Y-89495589D01*
X172299589Y-89673460D01*
X172159837Y-89882614D01*
X172063574Y-90115013D01*
X172014500Y-90361726D01*
X172014500Y-90613274D01*
X172063574Y-90859987D01*
X172159837Y-91092386D01*
X172299589Y-91301540D01*
X172477460Y-91479411D01*
X172686614Y-91619163D01*
X172919013Y-91715426D01*
X173130534Y-91757500D01*
X172919013Y-91799574D01*
X172686614Y-91895837D01*
X172477460Y-92035589D01*
X172299589Y-92213460D01*
X172159837Y-92422614D01*
X172063574Y-92655013D01*
X172014500Y-92901726D01*
X172014500Y-93153274D01*
X172063574Y-93399987D01*
X172159837Y-93632386D01*
X172299589Y-93841540D01*
X172477460Y-94019411D01*
X172686614Y-94159163D01*
X172919013Y-94255426D01*
X173165726Y-94304500D01*
X173417274Y-94304500D01*
X173663987Y-94255426D01*
X173896386Y-94159163D01*
X174105540Y-94019411D01*
X174283411Y-93841540D01*
X174423163Y-93632386D01*
X174519426Y-93399987D01*
X174568500Y-93153274D01*
X174568500Y-92901726D01*
X174519426Y-92655013D01*
X174423163Y-92422614D01*
X174283411Y-92213460D01*
X174105540Y-92035589D01*
X173896386Y-91895837D01*
X173663987Y-91799574D01*
X173452466Y-91757500D01*
X173663987Y-91715426D01*
X173896386Y-91619163D01*
X174105540Y-91479411D01*
X174283411Y-91301540D01*
X174423163Y-91092386D01*
X174519426Y-90859987D01*
X174568500Y-90613274D01*
X174568500Y-90361726D01*
X174519426Y-90115013D01*
X174423163Y-89882614D01*
X174283411Y-89673460D01*
X174105540Y-89495589D01*
X173896386Y-89355837D01*
X173663987Y-89259574D01*
X173488629Y-89224693D01*
X174141500Y-89226566D01*
X174225207Y-89218322D01*
X174305696Y-89193905D01*
X174379876Y-89154255D01*
X174444895Y-89100895D01*
X174498255Y-89035876D01*
X174537905Y-88961696D01*
X174562322Y-88881207D01*
X174570566Y-88797500D01*
X174568500Y-88077250D01*
X174461750Y-87970500D01*
X173314500Y-87970500D01*
X173314500Y-87990500D01*
X173268500Y-87990500D01*
X173268500Y-87970500D01*
X172121250Y-87970500D01*
X172014500Y-88077250D01*
X172012434Y-88797500D01*
X169606507Y-88797500D01*
X169458403Y-88736153D01*
X169221349Y-88689000D01*
X168979651Y-88689000D01*
X168742597Y-88736153D01*
X168519298Y-88828647D01*
X168318333Y-88962927D01*
X168147427Y-89133833D01*
X168013147Y-89334798D01*
X167920653Y-89558097D01*
X167873500Y-89795151D01*
X162709566Y-89795151D01*
X162709566Y-89116000D01*
X162701322Y-89032293D01*
X162676905Y-88951804D01*
X162637255Y-88877624D01*
X162583895Y-88812605D01*
X162518876Y-88759245D01*
X162444696Y-88719595D01*
X162364207Y-88695178D01*
X162280500Y-88686934D01*
X160680500Y-88686934D01*
X160596793Y-88695178D01*
X160516304Y-88719595D01*
X160442124Y-88759245D01*
X160377105Y-88812605D01*
X160323745Y-88877624D01*
X160284095Y-88951804D01*
X160259678Y-89032293D01*
X160251434Y-89116000D01*
X128449553Y-89116000D01*
X128467500Y-89025774D01*
X128467500Y-88774226D01*
X128418426Y-88527513D01*
X128322163Y-88295114D01*
X128182411Y-88085960D01*
X128004540Y-87908089D01*
X127795386Y-87768337D01*
X127562987Y-87672074D01*
X127351466Y-87630000D01*
X127562987Y-87587926D01*
X127795386Y-87491663D01*
X128004540Y-87351911D01*
X128182411Y-87174040D01*
X128322163Y-86964886D01*
X128418426Y-86732487D01*
X128467500Y-86485774D01*
X128467500Y-86234226D01*
X128418426Y-85987513D01*
X128322163Y-85755114D01*
X128182411Y-85545960D01*
X128069451Y-85433000D01*
X160251434Y-85433000D01*
X160251434Y-87033000D01*
X160259678Y-87116707D01*
X160284095Y-87197196D01*
X160323745Y-87271376D01*
X160377105Y-87336395D01*
X160442124Y-87389755D01*
X160516304Y-87429405D01*
X160596793Y-87453822D01*
X160680500Y-87462066D01*
X162280500Y-87462066D01*
X162364207Y-87453822D01*
X162444696Y-87429405D01*
X162518876Y-87389755D01*
X162583895Y-87336395D01*
X162637255Y-87271376D01*
X162676905Y-87197196D01*
X162701322Y-87116707D01*
X162709566Y-87033000D01*
X162709566Y-86112151D01*
X162793500Y-86112151D01*
X162793500Y-86353849D01*
X162840653Y-86590903D01*
X162933147Y-86814202D01*
X163067427Y-87015167D01*
X163238333Y-87186073D01*
X163439298Y-87320353D01*
X163662597Y-87412847D01*
X163899651Y-87460000D01*
X164141349Y-87460000D01*
X164378403Y-87412847D01*
X164601702Y-87320353D01*
X164802667Y-87186073D01*
X164973573Y-87015167D01*
X165107853Y-86814202D01*
X165200347Y-86590903D01*
X165247500Y-86353849D01*
X165247500Y-86112151D01*
X165333500Y-86112151D01*
X165333500Y-86353849D01*
X165380653Y-86590903D01*
X165473147Y-86814202D01*
X165607427Y-87015167D01*
X165778333Y-87186073D01*
X165979298Y-87320353D01*
X166202597Y-87412847D01*
X166439651Y-87460000D01*
X166681349Y-87460000D01*
X166918403Y-87412847D01*
X167141702Y-87320353D01*
X167342667Y-87186073D01*
X167431240Y-87097500D01*
X172012434Y-87097500D01*
X172014500Y-87817750D01*
X172121250Y-87924500D01*
X173268500Y-87924500D01*
X173268500Y-86777250D01*
X173314500Y-86777250D01*
X173314500Y-87924500D01*
X174461750Y-87924500D01*
X174568500Y-87817750D01*
X174570566Y-87097500D01*
X174562322Y-87013793D01*
X174537905Y-86933304D01*
X174498255Y-86859124D01*
X174444895Y-86794105D01*
X174379876Y-86740745D01*
X174305696Y-86701095D01*
X174225207Y-86676678D01*
X174141500Y-86668434D01*
X173421250Y-86670500D01*
X173314500Y-86777250D01*
X173268500Y-86777250D01*
X173161750Y-86670500D01*
X172441500Y-86668434D01*
X172357793Y-86676678D01*
X172277304Y-86701095D01*
X172203124Y-86740745D01*
X172138105Y-86794105D01*
X172084745Y-86859124D01*
X172045095Y-86933304D01*
X172020678Y-87013793D01*
X172012434Y-87097500D01*
X167431240Y-87097500D01*
X167513573Y-87015167D01*
X167647853Y-86814202D01*
X167740347Y-86590903D01*
X167787500Y-86353849D01*
X167787500Y-86112151D01*
X167740347Y-85875097D01*
X167647853Y-85651798D01*
X167513573Y-85450833D01*
X167342667Y-85279927D01*
X167141702Y-85145647D01*
X166918403Y-85053153D01*
X166681349Y-85006000D01*
X166439651Y-85006000D01*
X166202597Y-85053153D01*
X165979298Y-85145647D01*
X165778333Y-85279927D01*
X165607427Y-85450833D01*
X165473147Y-85651798D01*
X165380653Y-85875097D01*
X165333500Y-86112151D01*
X165247500Y-86112151D01*
X165200347Y-85875097D01*
X165107853Y-85651798D01*
X164973573Y-85450833D01*
X164802667Y-85279927D01*
X164601702Y-85145647D01*
X164378403Y-85053153D01*
X164141349Y-85006000D01*
X163899651Y-85006000D01*
X163662597Y-85053153D01*
X163439298Y-85145647D01*
X163238333Y-85279927D01*
X163067427Y-85450833D01*
X162933147Y-85651798D01*
X162840653Y-85875097D01*
X162793500Y-86112151D01*
X162709566Y-86112151D01*
X162709566Y-85433000D01*
X162701322Y-85349293D01*
X162676905Y-85268804D01*
X162637255Y-85194624D01*
X162583895Y-85129605D01*
X162518876Y-85076245D01*
X162444696Y-85036595D01*
X162364207Y-85012178D01*
X162280500Y-85003934D01*
X160680500Y-85003934D01*
X160596793Y-85012178D01*
X160516304Y-85036595D01*
X160442124Y-85076245D01*
X160377105Y-85129605D01*
X160323745Y-85194624D01*
X160284095Y-85268804D01*
X160259678Y-85349293D01*
X160251434Y-85433000D01*
X128069451Y-85433000D01*
X128004540Y-85368089D01*
X127795386Y-85228337D01*
X127562987Y-85132074D01*
X127387629Y-85097193D01*
X128040500Y-85099066D01*
X128124207Y-85090822D01*
X128204696Y-85066405D01*
X128278876Y-85026755D01*
X128343895Y-84973395D01*
X128397255Y-84908376D01*
X128436905Y-84834196D01*
X128461322Y-84753707D01*
X128469566Y-84670000D01*
X128467500Y-83949750D01*
X128360750Y-83843000D01*
X127213500Y-83843000D01*
X127213500Y-83863000D01*
X127167500Y-83863000D01*
X127167500Y-83843000D01*
X126020250Y-83843000D01*
X125913500Y-83949750D01*
X125911434Y-84670000D01*
X121337451Y-84670000D01*
X121210040Y-84542589D01*
X121000886Y-84402837D01*
X120768487Y-84306574D01*
X120556966Y-84264500D01*
X120768487Y-84222426D01*
X121000886Y-84126163D01*
X121210040Y-83986411D01*
X121387911Y-83808540D01*
X121527663Y-83599386D01*
X121623926Y-83366987D01*
X121673000Y-83120274D01*
X121673000Y-82970000D01*
X125911434Y-82970000D01*
X125913500Y-83690250D01*
X126020250Y-83797000D01*
X127167500Y-83797000D01*
X127167500Y-82649750D01*
X127213500Y-82649750D01*
X127213500Y-83797000D01*
X128360750Y-83797000D01*
X128467500Y-83690250D01*
X128469566Y-82970000D01*
X128461322Y-82886293D01*
X128436905Y-82805804D01*
X128397255Y-82731624D01*
X128343895Y-82666605D01*
X128278876Y-82613245D01*
X128204696Y-82573595D01*
X128124207Y-82549178D01*
X128040500Y-82540934D01*
X127320250Y-82543000D01*
X127213500Y-82649750D01*
X127167500Y-82649750D01*
X127060750Y-82543000D01*
X126340500Y-82540934D01*
X126256793Y-82549178D01*
X126176304Y-82573595D01*
X126102124Y-82613245D01*
X126037105Y-82666605D01*
X125983745Y-82731624D01*
X125944095Y-82805804D01*
X125919678Y-82886293D01*
X125911434Y-82970000D01*
X121673000Y-82970000D01*
X121673000Y-82868726D01*
X121623926Y-82622013D01*
X121557647Y-82462000D01*
X150041434Y-82462000D01*
X150041434Y-84162000D01*
X150049678Y-84245707D01*
X150074095Y-84326196D01*
X150113745Y-84400376D01*
X150167105Y-84465395D01*
X150232124Y-84518755D01*
X150306304Y-84558405D01*
X150386793Y-84582822D01*
X150470500Y-84591066D01*
X152170500Y-84591066D01*
X152254207Y-84582822D01*
X152334696Y-84558405D01*
X152408876Y-84518755D01*
X152473895Y-84465395D01*
X152527255Y-84400376D01*
X152566905Y-84326196D01*
X152591322Y-84245707D01*
X152599566Y-84162000D01*
X152599566Y-82462000D01*
X152591322Y-82378293D01*
X152566905Y-82297804D01*
X152527255Y-82223624D01*
X152473895Y-82158605D01*
X152408876Y-82105245D01*
X152334696Y-82065595D01*
X152254207Y-82041178D01*
X152170500Y-82032934D01*
X150470500Y-82032934D01*
X150386793Y-82041178D01*
X150306304Y-82065595D01*
X150232124Y-82105245D01*
X150167105Y-82158605D01*
X150113745Y-82223624D01*
X150074095Y-82297804D01*
X150049678Y-82378293D01*
X150041434Y-82462000D01*
X121557647Y-82462000D01*
X121527663Y-82389614D01*
X121387911Y-82180460D01*
X121210040Y-82002589D01*
X121000886Y-81862837D01*
X120768487Y-81766574D01*
X120602544Y-81733566D01*
X121246000Y-81733566D01*
X121329707Y-81725322D01*
X121410196Y-81700905D01*
X121484376Y-81661255D01*
X121549395Y-81607895D01*
X121602755Y-81542876D01*
X121642405Y-81468696D01*
X121666822Y-81388207D01*
X121675066Y-81304500D01*
X121675066Y-79604500D01*
X121666822Y-79520793D01*
X121642405Y-79440304D01*
X121602755Y-79366124D01*
X121549395Y-79301105D01*
X121484376Y-79247745D01*
X121410196Y-79208095D01*
X121329707Y-79183678D01*
X121246000Y-79175434D01*
X119546000Y-79175434D01*
X119462293Y-79183678D01*
X119381804Y-79208095D01*
X119307624Y-79247745D01*
X119242605Y-79301105D01*
X119189245Y-79366124D01*
X119149595Y-79440304D01*
X119125178Y-79520793D01*
X119116934Y-79604500D01*
X118514000Y-79604500D01*
X118514000Y-77953500D01*
X125847934Y-77953500D01*
X125847934Y-79653500D01*
X125856178Y-79737207D01*
X125880595Y-79817696D01*
X125920245Y-79891876D01*
X125973605Y-79956895D01*
X126038624Y-80010255D01*
X126112804Y-80049905D01*
X126193293Y-80074322D01*
X126277000Y-80082566D01*
X127977000Y-80082566D01*
X128060707Y-80074322D01*
X128141196Y-80049905D01*
X128215376Y-80010255D01*
X128280395Y-79956895D01*
X128333755Y-79891876D01*
X128373405Y-79817696D01*
X128397822Y-79737207D01*
X128406066Y-79653500D01*
X128406066Y-78826502D01*
X128496955Y-78826502D01*
X128409523Y-79025951D01*
X128477083Y-79266998D01*
X128590371Y-79490233D01*
X128745033Y-79687078D01*
X128935126Y-79849967D01*
X129153344Y-79972641D01*
X129391302Y-80050386D01*
X129444549Y-80060976D01*
X129644000Y-79973524D01*
X129644000Y-78826500D01*
X129690000Y-78826500D01*
X129690000Y-79973524D01*
X129889451Y-80060976D01*
X129942698Y-80050386D01*
X130180656Y-79972641D01*
X130398874Y-79849967D01*
X130588967Y-79687078D01*
X130743629Y-79490233D01*
X130856917Y-79266998D01*
X130924477Y-79025951D01*
X130837044Y-78826500D01*
X129690000Y-78826500D01*
X129644000Y-78826500D01*
X129624000Y-78826500D01*
X129624000Y-78780500D01*
X129644000Y-78780500D01*
X129644000Y-77633476D01*
X129690000Y-77633476D01*
X129690000Y-78780500D01*
X130837044Y-78780500D01*
X130924477Y-78581049D01*
X130856917Y-78340002D01*
X130743629Y-78116767D01*
X130665242Y-78017000D01*
X133150434Y-78017000D01*
X133150434Y-79717000D01*
X133158678Y-79800707D01*
X133183095Y-79881196D01*
X133222745Y-79955376D01*
X133276105Y-80020395D01*
X133341124Y-80073755D01*
X133415304Y-80113405D01*
X133495793Y-80137822D01*
X133579500Y-80146066D01*
X135279500Y-80146066D01*
X135363207Y-80137822D01*
X135443696Y-80113405D01*
X135517876Y-80073755D01*
X135582895Y-80020395D01*
X135636255Y-79955376D01*
X135675905Y-79881196D01*
X135700322Y-79800707D01*
X135708566Y-79717000D01*
X135708566Y-78890002D01*
X135799455Y-78890002D01*
X135712023Y-79089451D01*
X135779583Y-79330498D01*
X135892871Y-79553733D01*
X136047533Y-79750578D01*
X136237626Y-79913467D01*
X136455844Y-80036141D01*
X136693802Y-80113886D01*
X136747049Y-80124476D01*
X136946500Y-80037024D01*
X136946500Y-78890000D01*
X136992500Y-78890000D01*
X136992500Y-80037024D01*
X137191951Y-80124476D01*
X137245198Y-80113886D01*
X137483156Y-80036141D01*
X137701374Y-79913467D01*
X137891467Y-79750578D01*
X138046129Y-79553733D01*
X138159417Y-79330498D01*
X138226977Y-79089451D01*
X138139544Y-78890000D01*
X136992500Y-78890000D01*
X136946500Y-78890000D01*
X136926500Y-78890000D01*
X136926500Y-78844000D01*
X136946500Y-78844000D01*
X136946500Y-77696976D01*
X136992500Y-77696976D01*
X136992500Y-78844000D01*
X138139544Y-78844000D01*
X138226977Y-78644549D01*
X138159417Y-78403502D01*
X138046129Y-78180267D01*
X137891467Y-77983422D01*
X137701374Y-77820533D01*
X137483156Y-77697859D01*
X137245198Y-77620114D01*
X137191951Y-77609524D01*
X136992500Y-77696976D01*
X136946500Y-77696976D01*
X136747049Y-77609524D01*
X136693802Y-77620114D01*
X136455844Y-77697859D01*
X136237626Y-77820533D01*
X136047533Y-77983422D01*
X135892871Y-78180267D01*
X135779583Y-78403502D01*
X135712023Y-78644549D01*
X135799455Y-78843998D01*
X135708566Y-78843998D01*
X135708566Y-78017000D01*
X135700322Y-77933293D01*
X135675905Y-77852804D01*
X135636255Y-77778624D01*
X135582895Y-77713605D01*
X135517876Y-77660245D01*
X135443696Y-77620595D01*
X135363207Y-77596178D01*
X135279500Y-77587934D01*
X133579500Y-77587934D01*
X133495793Y-77596178D01*
X133415304Y-77620595D01*
X133341124Y-77660245D01*
X133276105Y-77713605D01*
X133222745Y-77778624D01*
X133183095Y-77852804D01*
X133158678Y-77933293D01*
X133150434Y-78017000D01*
X130665242Y-78017000D01*
X130588967Y-77919922D01*
X130398874Y-77757033D01*
X130180656Y-77634359D01*
X129942698Y-77556614D01*
X129889451Y-77546024D01*
X129690000Y-77633476D01*
X129644000Y-77633476D01*
X129444549Y-77546024D01*
X129391302Y-77556614D01*
X129153344Y-77634359D01*
X128935126Y-77757033D01*
X128745033Y-77919922D01*
X128590371Y-78116767D01*
X128477083Y-78340002D01*
X128409523Y-78581049D01*
X128496955Y-78780498D01*
X128406066Y-78780498D01*
X128406066Y-77953500D01*
X128397822Y-77869793D01*
X128373405Y-77789304D01*
X128333755Y-77715124D01*
X128280395Y-77650105D01*
X128215376Y-77596745D01*
X128141196Y-77557095D01*
X128060707Y-77532678D01*
X127977000Y-77524434D01*
X126277000Y-77524434D01*
X126193293Y-77532678D01*
X126112804Y-77557095D01*
X126038624Y-77596745D01*
X125973605Y-77650105D01*
X125920245Y-77715124D01*
X125880595Y-77789304D01*
X125856178Y-77869793D01*
X125847934Y-77953500D01*
X118514000Y-77953500D01*
X118514000Y-73647889D01*
X118677270Y-74042058D01*
X119030425Y-74570593D01*
X119479907Y-75020075D01*
X120008442Y-75373230D01*
X120595719Y-75616488D01*
X121219168Y-75740500D01*
X121854832Y-75740500D01*
X122478281Y-75616488D01*
X123065558Y-75373230D01*
X123594093Y-75020075D01*
X124043575Y-74570593D01*
X124396730Y-74042058D01*
X124639988Y-73454781D01*
X124742981Y-72937000D01*
X125149434Y-72937000D01*
X125149434Y-74637000D01*
X125157678Y-74720707D01*
X125182095Y-74801196D01*
X125221745Y-74875376D01*
X125275105Y-74940395D01*
X125340124Y-74993755D01*
X125414304Y-75033405D01*
X125494793Y-75057822D01*
X125578500Y-75066066D01*
X127278500Y-75066066D01*
X127362207Y-75057822D01*
X127442696Y-75033405D01*
X127516876Y-74993755D01*
X127581895Y-74940395D01*
X127635255Y-74875376D01*
X127674905Y-74801196D01*
X127699322Y-74720707D01*
X127707566Y-74637000D01*
X127707566Y-73993544D01*
X127740574Y-74159487D01*
X127836837Y-74391886D01*
X127976589Y-74601040D01*
X128154460Y-74778911D01*
X128363614Y-74918663D01*
X128596013Y-75014926D01*
X128842726Y-75064000D01*
X129094274Y-75064000D01*
X129340987Y-75014926D01*
X129573386Y-74918663D01*
X129782540Y-74778911D01*
X129960411Y-74601040D01*
X130100163Y-74391886D01*
X130196426Y-74159487D01*
X130238500Y-73947966D01*
X130280574Y-74159487D01*
X130376837Y-74391886D01*
X130516589Y-74601040D01*
X130694460Y-74778911D01*
X130903614Y-74918663D01*
X131136013Y-75014926D01*
X131382726Y-75064000D01*
X131634274Y-75064000D01*
X131880987Y-75014926D01*
X132113386Y-74918663D01*
X132322540Y-74778911D01*
X132500411Y-74601040D01*
X132640163Y-74391886D01*
X132736426Y-74159487D01*
X132778500Y-73947966D01*
X132820574Y-74159487D01*
X132916837Y-74391886D01*
X133056589Y-74601040D01*
X133234460Y-74778911D01*
X133443614Y-74918663D01*
X133676013Y-75014926D01*
X133922726Y-75064000D01*
X134174274Y-75064000D01*
X134420987Y-75014926D01*
X134653386Y-74918663D01*
X134862540Y-74778911D01*
X135040411Y-74601040D01*
X135180163Y-74391886D01*
X135276426Y-74159487D01*
X135325500Y-73912774D01*
X135325500Y-73810002D01*
X135418455Y-73810002D01*
X135331023Y-74009451D01*
X135398583Y-74250498D01*
X135511871Y-74473733D01*
X135666533Y-74670578D01*
X135856626Y-74833467D01*
X136074844Y-74956141D01*
X136312802Y-75033886D01*
X136366049Y-75044476D01*
X136565500Y-74957024D01*
X136565500Y-73810000D01*
X136545500Y-73810000D01*
X136545500Y-73764000D01*
X136565500Y-73764000D01*
X136565500Y-73744000D01*
X136611500Y-73744000D01*
X136611500Y-73764000D01*
X136631500Y-73764000D01*
X136631500Y-73810000D01*
X136611500Y-73810000D01*
X136611500Y-74957024D01*
X136810951Y-75044476D01*
X136864198Y-75033886D01*
X137102156Y-74956141D01*
X137320374Y-74833467D01*
X137510467Y-74670578D01*
X137665129Y-74473733D01*
X137778417Y-74250498D01*
X137845977Y-74009451D01*
X137758545Y-73810002D01*
X137851500Y-73810002D01*
X137851500Y-73912774D01*
X137900574Y-74159487D01*
X137996837Y-74391886D01*
X138136589Y-74601040D01*
X138314460Y-74778911D01*
X138523614Y-74918663D01*
X138756013Y-75014926D01*
X139002726Y-75064000D01*
X139254274Y-75064000D01*
X139500987Y-75014926D01*
X139733386Y-74918663D01*
X139751502Y-74906559D01*
X139751501Y-78542853D01*
X139174855Y-79119500D01*
X139047048Y-79119500D01*
X138887273Y-79151282D01*
X138736769Y-79213623D01*
X138601319Y-79304128D01*
X138486128Y-79419319D01*
X138395623Y-79554769D01*
X138333282Y-79705273D01*
X138301500Y-79865048D01*
X138301500Y-80027952D01*
X138333282Y-80187727D01*
X138395623Y-80338231D01*
X138486128Y-80473681D01*
X138601319Y-80588872D01*
X138736769Y-80679377D01*
X138887273Y-80741718D01*
X139047048Y-80773500D01*
X139209952Y-80773500D01*
X139369727Y-80741718D01*
X139520231Y-80679377D01*
X139655681Y-80588872D01*
X139770872Y-80473681D01*
X139861377Y-80338231D01*
X139923718Y-80187727D01*
X139955500Y-80027952D01*
X139955500Y-79900145D01*
X140389434Y-79466211D01*
X140389434Y-79717000D01*
X140397678Y-79800707D01*
X140422095Y-79881196D01*
X140461745Y-79955376D01*
X140515105Y-80020395D01*
X140580124Y-80073755D01*
X140654304Y-80113405D01*
X140734793Y-80137822D01*
X140818500Y-80146066D01*
X142518500Y-80146066D01*
X142602207Y-80137822D01*
X142682696Y-80113405D01*
X142756876Y-80073755D01*
X142821895Y-80020395D01*
X142875255Y-79955376D01*
X142914905Y-79881196D01*
X142939322Y-79800707D01*
X142947566Y-79717000D01*
X142947566Y-79073544D01*
X142980574Y-79239487D01*
X143076837Y-79471886D01*
X143216589Y-79681040D01*
X143394460Y-79858911D01*
X143603614Y-79998663D01*
X143836013Y-80094926D01*
X144082726Y-80144000D01*
X144334274Y-80144000D01*
X144580987Y-80094926D01*
X144813386Y-79998663D01*
X145022540Y-79858911D01*
X145200411Y-79681040D01*
X145340163Y-79471886D01*
X145436426Y-79239487D01*
X145478500Y-79027966D01*
X145520574Y-79239487D01*
X145616837Y-79471886D01*
X145756589Y-79681040D01*
X145934460Y-79858911D01*
X146143614Y-79998663D01*
X146376013Y-80094926D01*
X146622726Y-80144000D01*
X146874274Y-80144000D01*
X147120987Y-80094926D01*
X147353386Y-79998663D01*
X147562540Y-79858911D01*
X147740411Y-79681040D01*
X147880163Y-79471886D01*
X147976426Y-79239487D01*
X148025500Y-78992774D01*
X148025500Y-78890002D01*
X148118455Y-78890002D01*
X148031023Y-79089451D01*
X148098583Y-79330498D01*
X148211871Y-79553733D01*
X148366533Y-79750578D01*
X148556626Y-79913467D01*
X148774844Y-80036141D01*
X149012802Y-80113886D01*
X149066049Y-80124476D01*
X149265500Y-80037024D01*
X149265500Y-78890000D01*
X149311500Y-78890000D01*
X149311500Y-80037024D01*
X149510951Y-80124476D01*
X149564198Y-80113886D01*
X149802156Y-80036141D01*
X150020374Y-79913467D01*
X150210467Y-79750578D01*
X150365129Y-79553733D01*
X150478417Y-79330498D01*
X150545977Y-79089451D01*
X150458544Y-78890000D01*
X149311500Y-78890000D01*
X149265500Y-78890000D01*
X149245500Y-78890000D01*
X149245500Y-78844000D01*
X149265500Y-78844000D01*
X149265500Y-77696976D01*
X149311500Y-77696976D01*
X149311500Y-78844000D01*
X150458544Y-78844000D01*
X150545977Y-78644549D01*
X150503264Y-78492151D01*
X160253500Y-78492151D01*
X160253500Y-78733849D01*
X160300653Y-78970903D01*
X160393147Y-79194202D01*
X160527427Y-79395167D01*
X160698333Y-79566073D01*
X160899298Y-79700353D01*
X161122597Y-79792847D01*
X161359651Y-79840000D01*
X161601349Y-79840000D01*
X161838403Y-79792847D01*
X162061702Y-79700353D01*
X162262667Y-79566073D01*
X162433573Y-79395167D01*
X162567853Y-79194202D01*
X162660347Y-78970903D01*
X162688846Y-78827628D01*
X162812417Y-78827628D01*
X162877502Y-79059189D01*
X162986512Y-79273603D01*
X163135257Y-79462631D01*
X163318021Y-79619008D01*
X163527781Y-79736725D01*
X163756476Y-79811258D01*
X163805872Y-79821082D01*
X163997500Y-79733014D01*
X163997500Y-78636000D01*
X164043500Y-78636000D01*
X164043500Y-79733014D01*
X164235128Y-79821082D01*
X164284524Y-79811258D01*
X164513219Y-79736725D01*
X164722979Y-79619008D01*
X164905743Y-79462631D01*
X165054488Y-79273603D01*
X165163498Y-79059189D01*
X165228583Y-78827628D01*
X165140535Y-78636000D01*
X164043500Y-78636000D01*
X163997500Y-78636000D01*
X162900465Y-78636000D01*
X162812417Y-78827628D01*
X162688846Y-78827628D01*
X162707500Y-78733849D01*
X162707500Y-78492151D01*
X162688847Y-78398372D01*
X162812417Y-78398372D01*
X162900465Y-78590000D01*
X163997500Y-78590000D01*
X163997500Y-77492986D01*
X164043500Y-77492986D01*
X164043500Y-78590000D01*
X165140535Y-78590000D01*
X165228583Y-78398372D01*
X165163498Y-78166811D01*
X165054488Y-77952397D01*
X164905743Y-77763369D01*
X164722979Y-77606992D01*
X164513219Y-77489275D01*
X164284524Y-77414742D01*
X164235128Y-77404918D01*
X164043500Y-77492986D01*
X163997500Y-77492986D01*
X163805872Y-77404918D01*
X163756476Y-77414742D01*
X163527781Y-77489275D01*
X163318021Y-77606992D01*
X163135257Y-77763369D01*
X162986512Y-77952397D01*
X162877502Y-78166811D01*
X162812417Y-78398372D01*
X162688847Y-78398372D01*
X162660347Y-78255097D01*
X162567853Y-78031798D01*
X162433573Y-77830833D01*
X162262667Y-77659927D01*
X162061702Y-77525647D01*
X161838403Y-77433153D01*
X161601349Y-77386000D01*
X161359651Y-77386000D01*
X161122597Y-77433153D01*
X160899298Y-77525647D01*
X160698333Y-77659927D01*
X160527427Y-77830833D01*
X160393147Y-78031798D01*
X160300653Y-78255097D01*
X160253500Y-78492151D01*
X150503264Y-78492151D01*
X150478417Y-78403502D01*
X150365129Y-78180267D01*
X150210467Y-77983422D01*
X150020374Y-77820533D01*
X149802156Y-77697859D01*
X149564198Y-77620114D01*
X149510951Y-77609524D01*
X149311500Y-77696976D01*
X149265500Y-77696976D01*
X149066049Y-77609524D01*
X149012802Y-77620114D01*
X148774844Y-77697859D01*
X148556626Y-77820533D01*
X148366533Y-77983422D01*
X148211871Y-78180267D01*
X148098583Y-78403502D01*
X148031023Y-78644549D01*
X148118455Y-78843998D01*
X148025500Y-78843998D01*
X148025500Y-78741226D01*
X147976426Y-78494513D01*
X147880163Y-78262114D01*
X147740411Y-78052960D01*
X147562540Y-77875089D01*
X147353386Y-77735337D01*
X147120987Y-77639074D01*
X146874274Y-77590000D01*
X146622726Y-77590000D01*
X146376013Y-77639074D01*
X146143614Y-77735337D01*
X145934460Y-77875089D01*
X145756589Y-78052960D01*
X145616837Y-78262114D01*
X145520574Y-78494513D01*
X145478500Y-78706034D01*
X145436426Y-78494513D01*
X145340163Y-78262114D01*
X145200411Y-78052960D01*
X145022540Y-77875089D01*
X144813386Y-77735337D01*
X144580987Y-77639074D01*
X144334274Y-77590000D01*
X144082726Y-77590000D01*
X143836013Y-77639074D01*
X143603614Y-77735337D01*
X143394460Y-77875089D01*
X143216589Y-78052960D01*
X143076837Y-78262114D01*
X142980574Y-78494513D01*
X142947566Y-78660456D01*
X142947566Y-78017000D01*
X142939322Y-77933293D01*
X142914905Y-77852804D01*
X142875255Y-77778624D01*
X142821895Y-77713605D01*
X142756876Y-77660245D01*
X142682696Y-77620595D01*
X142602207Y-77596178D01*
X142518500Y-77587934D01*
X140855501Y-77587934D01*
X140855501Y-74779607D01*
X141063614Y-74918663D01*
X141296013Y-75014926D01*
X141542726Y-75064000D01*
X141794274Y-75064000D01*
X142040987Y-75014926D01*
X142273386Y-74918663D01*
X142482540Y-74778911D01*
X142660411Y-74601040D01*
X142800163Y-74391886D01*
X142896426Y-74159487D01*
X142938500Y-73947966D01*
X142980574Y-74159487D01*
X143076837Y-74391886D01*
X143216589Y-74601040D01*
X143394460Y-74778911D01*
X143603614Y-74918663D01*
X143836013Y-75014926D01*
X144082726Y-75064000D01*
X144334274Y-75064000D01*
X144580987Y-75014926D01*
X144813386Y-74918663D01*
X145022540Y-74778911D01*
X145200411Y-74601040D01*
X145340163Y-74391886D01*
X145436426Y-74159487D01*
X145478500Y-73947966D01*
X145520574Y-74159487D01*
X145616837Y-74391886D01*
X145756589Y-74601040D01*
X145934460Y-74778911D01*
X146143614Y-74918663D01*
X146376013Y-75014926D01*
X146622726Y-75064000D01*
X146874274Y-75064000D01*
X147120987Y-75014926D01*
X147353386Y-74918663D01*
X147562540Y-74778911D01*
X147740411Y-74601040D01*
X147880163Y-74391886D01*
X147976426Y-74159487D01*
X148018500Y-73947966D01*
X148060574Y-74159487D01*
X148156837Y-74391886D01*
X148296589Y-74601040D01*
X148474460Y-74778911D01*
X148683614Y-74918663D01*
X148916013Y-75014926D01*
X149162726Y-75064000D01*
X149414274Y-75064000D01*
X149660987Y-75014926D01*
X149893386Y-74918663D01*
X150102540Y-74778911D01*
X150280411Y-74601040D01*
X150420163Y-74391886D01*
X150516426Y-74159487D01*
X150558500Y-73947966D01*
X150600574Y-74159487D01*
X150696837Y-74391886D01*
X150836589Y-74601040D01*
X151014460Y-74778911D01*
X151223614Y-74918663D01*
X151456013Y-75014926D01*
X151702726Y-75064000D01*
X151954274Y-75064000D01*
X152200987Y-75014926D01*
X152433386Y-74918663D01*
X152642540Y-74778911D01*
X152820411Y-74601040D01*
X152960163Y-74391886D01*
X153056426Y-74159487D01*
X153098500Y-73947966D01*
X153140574Y-74159487D01*
X153236837Y-74391886D01*
X153376589Y-74601040D01*
X153554460Y-74778911D01*
X153763614Y-74918663D01*
X153996013Y-75014926D01*
X154242726Y-75064000D01*
X154494274Y-75064000D01*
X154740987Y-75014926D01*
X154973386Y-74918663D01*
X155182540Y-74778911D01*
X155360411Y-74601040D01*
X155500163Y-74391886D01*
X155596426Y-74159487D01*
X155645500Y-73912774D01*
X155645500Y-73810002D01*
X155738455Y-73810002D01*
X155651023Y-74009451D01*
X155718583Y-74250498D01*
X155831871Y-74473733D01*
X155986533Y-74670578D01*
X156176626Y-74833467D01*
X156394844Y-74956141D01*
X156632802Y-75033886D01*
X156686049Y-75044476D01*
X156885500Y-74957024D01*
X156885500Y-73810000D01*
X156865500Y-73810000D01*
X156865500Y-73764000D01*
X156885500Y-73764000D01*
X156885500Y-73744000D01*
X156931500Y-73744000D01*
X156931500Y-73764000D01*
X156951500Y-73764000D01*
X156951500Y-73810000D01*
X156931500Y-73810000D01*
X156931500Y-74957024D01*
X157130951Y-75044476D01*
X157184198Y-75033886D01*
X157422156Y-74956141D01*
X157640374Y-74833467D01*
X157830467Y-74670578D01*
X157985129Y-74473733D01*
X158098417Y-74250498D01*
X158165977Y-74009451D01*
X158078545Y-73810002D01*
X158171500Y-73810002D01*
X158171500Y-73912774D01*
X158220574Y-74159487D01*
X158316837Y-74391886D01*
X158456589Y-74601040D01*
X158634460Y-74778911D01*
X158843614Y-74918663D01*
X159076013Y-75014926D01*
X159322726Y-75064000D01*
X159574274Y-75064000D01*
X159820987Y-75014926D01*
X160053386Y-74918663D01*
X160262540Y-74778911D01*
X160440411Y-74601040D01*
X160580163Y-74391886D01*
X160676426Y-74159487D01*
X160718500Y-73947966D01*
X160760574Y-74159487D01*
X160856837Y-74391886D01*
X160996589Y-74601040D01*
X161174460Y-74778911D01*
X161383614Y-74918663D01*
X161616013Y-75014926D01*
X161862726Y-75064000D01*
X162114274Y-75064000D01*
X162360987Y-75014926D01*
X162593386Y-74918663D01*
X162802540Y-74778911D01*
X162980411Y-74601040D01*
X163120163Y-74391886D01*
X163216426Y-74159487D01*
X163258500Y-73947966D01*
X163300574Y-74159487D01*
X163396837Y-74391886D01*
X163536589Y-74601040D01*
X163714460Y-74778911D01*
X163923614Y-74918663D01*
X164156013Y-75014926D01*
X164402726Y-75064000D01*
X164654274Y-75064000D01*
X164900987Y-75014926D01*
X165133386Y-74918663D01*
X165342540Y-74778911D01*
X165520411Y-74601040D01*
X165660163Y-74391886D01*
X165756426Y-74159487D01*
X165798500Y-73947966D01*
X165840574Y-74159487D01*
X165936837Y-74391886D01*
X166076589Y-74601040D01*
X166254460Y-74778911D01*
X166463614Y-74918663D01*
X166696013Y-75014926D01*
X166942726Y-75064000D01*
X167194274Y-75064000D01*
X167440987Y-75014926D01*
X167673386Y-74918663D01*
X167882540Y-74778911D01*
X168060411Y-74601040D01*
X168200163Y-74391886D01*
X168296426Y-74159487D01*
X168338500Y-73947966D01*
X168380574Y-74159487D01*
X168476837Y-74391886D01*
X168616589Y-74601040D01*
X168794460Y-74778911D01*
X169003614Y-74918663D01*
X169056501Y-74940569D01*
X169056500Y-77685854D01*
X167718353Y-79024002D01*
X167740347Y-78970903D01*
X167787500Y-78733849D01*
X167787500Y-78492151D01*
X167740347Y-78255097D01*
X167647853Y-78031798D01*
X167513573Y-77830833D01*
X167342667Y-77659927D01*
X167141702Y-77525647D01*
X166918403Y-77433153D01*
X166681349Y-77386000D01*
X166439651Y-77386000D01*
X166202597Y-77433153D01*
X165979298Y-77525647D01*
X165778333Y-77659927D01*
X165607427Y-77830833D01*
X165473147Y-78031798D01*
X165380653Y-78255097D01*
X165333500Y-78492151D01*
X165333500Y-78733849D01*
X165380653Y-78970903D01*
X165473147Y-79194202D01*
X165607427Y-79395167D01*
X165778333Y-79566073D01*
X165979298Y-79700353D01*
X166202597Y-79792847D01*
X166439651Y-79840000D01*
X166681349Y-79840000D01*
X166918403Y-79792847D01*
X166971502Y-79770852D01*
X163093356Y-83649000D01*
X159685053Y-83649000D01*
X159594681Y-83558628D01*
X159459231Y-83468123D01*
X159308727Y-83405782D01*
X159148952Y-83374000D01*
X158986048Y-83374000D01*
X158826273Y-83405782D01*
X158675769Y-83468123D01*
X158540319Y-83558628D01*
X158425128Y-83673819D01*
X158334623Y-83809269D01*
X158272282Y-83959773D01*
X158240500Y-84119548D01*
X158240500Y-84282452D01*
X158272282Y-84442227D01*
X158334623Y-84592731D01*
X158425128Y-84728181D01*
X158540319Y-84843372D01*
X158675769Y-84933877D01*
X158826273Y-84996218D01*
X158986048Y-85028000D01*
X159148952Y-85028000D01*
X159308727Y-84996218D01*
X159459231Y-84933877D01*
X159594681Y-84843372D01*
X159685053Y-84753000D01*
X163294894Y-84753000D01*
X163322000Y-84755670D01*
X163349106Y-84753000D01*
X163349109Y-84753000D01*
X163430211Y-84745012D01*
X163534263Y-84713448D01*
X163630158Y-84662191D01*
X163714211Y-84593211D01*
X163731501Y-84572143D01*
X164483341Y-83820303D01*
X164535200Y-83897915D01*
X164650391Y-84013106D01*
X164785841Y-84103611D01*
X164936345Y-84165952D01*
X165096120Y-84197734D01*
X165259024Y-84197734D01*
X165418799Y-84165952D01*
X165569303Y-84103611D01*
X165704753Y-84013106D01*
X165819944Y-83897915D01*
X165910449Y-83762465D01*
X165972790Y-83611961D01*
X166004572Y-83452186D01*
X166004572Y-83324378D01*
X166518799Y-82810151D01*
X168318000Y-82810151D01*
X168318000Y-83051849D01*
X168365153Y-83288903D01*
X168457647Y-83512202D01*
X168591927Y-83713167D01*
X168762833Y-83884073D01*
X168963798Y-84018353D01*
X169187097Y-84110847D01*
X169424151Y-84158000D01*
X169665849Y-84158000D01*
X169902903Y-84110847D01*
X170126202Y-84018353D01*
X170327167Y-83884073D01*
X170498073Y-83713167D01*
X170632353Y-83512202D01*
X170724847Y-83288903D01*
X170772000Y-83051849D01*
X170772000Y-82810151D01*
X175938000Y-82810151D01*
X175938000Y-83051849D01*
X175985153Y-83288903D01*
X176077647Y-83512202D01*
X176211927Y-83713167D01*
X176382833Y-83884073D01*
X176583798Y-84018353D01*
X176807097Y-84110847D01*
X177044151Y-84158000D01*
X177285849Y-84158000D01*
X177522903Y-84110847D01*
X177746202Y-84018353D01*
X177947167Y-83884073D01*
X178118073Y-83713167D01*
X178252353Y-83512202D01*
X178344847Y-83288903D01*
X178392000Y-83051849D01*
X178392000Y-82810151D01*
X178344847Y-82573097D01*
X178252353Y-82349798D01*
X178118073Y-82148833D01*
X177947167Y-81977927D01*
X177746202Y-81843647D01*
X177522903Y-81751153D01*
X177285849Y-81704000D01*
X177044151Y-81704000D01*
X176807097Y-81751153D01*
X176583798Y-81843647D01*
X176382833Y-81977927D01*
X176211927Y-82148833D01*
X176077647Y-82349798D01*
X175985153Y-82573097D01*
X175938000Y-82810151D01*
X170772000Y-82810151D01*
X170724847Y-82573097D01*
X170632353Y-82349798D01*
X170498073Y-82148833D01*
X170327167Y-81977927D01*
X170126202Y-81843647D01*
X169902903Y-81751153D01*
X169665849Y-81704000D01*
X169424151Y-81704000D01*
X169187097Y-81751153D01*
X168963798Y-81843647D01*
X168762833Y-81977927D01*
X168591927Y-82148833D01*
X168457647Y-82349798D01*
X168365153Y-82573097D01*
X168318000Y-82810151D01*
X166518799Y-82810151D01*
X168068452Y-81260500D01*
X171041894Y-81260500D01*
X171069000Y-81263170D01*
X171096106Y-81260500D01*
X171096109Y-81260500D01*
X171177211Y-81252512D01*
X171281263Y-81220948D01*
X171377158Y-81169691D01*
X171461211Y-81100711D01*
X171478500Y-81079644D01*
X173069213Y-79488932D01*
X175035095Y-79488932D01*
X175109032Y-79687312D01*
X175319796Y-79805617D01*
X175549591Y-79880531D01*
X175789586Y-79909175D01*
X176030557Y-79890447D01*
X176263245Y-79825068D01*
X176478707Y-79715550D01*
X176520968Y-79687312D01*
X176594905Y-79488932D01*
X175815000Y-78709027D01*
X175035095Y-79488932D01*
X173069213Y-79488932D01*
X173789654Y-78768492D01*
X173810711Y-78751211D01*
X173879691Y-78667158D01*
X173888281Y-78651086D01*
X174582325Y-78651086D01*
X174601053Y-78892057D01*
X174666432Y-79124745D01*
X174775950Y-79340207D01*
X174804188Y-79382468D01*
X175002568Y-79456405D01*
X175782473Y-78676500D01*
X175847527Y-78676500D01*
X176627432Y-79456405D01*
X176825812Y-79382468D01*
X176944117Y-79171704D01*
X177019031Y-78941909D01*
X177047675Y-78701914D01*
X177028947Y-78460943D01*
X176963568Y-78228255D01*
X176854050Y-78012793D01*
X176825812Y-77970532D01*
X176627432Y-77896595D01*
X175847527Y-78676500D01*
X175782473Y-78676500D01*
X175002568Y-77896595D01*
X174804188Y-77970532D01*
X174685883Y-78181296D01*
X174610969Y-78411091D01*
X174582325Y-78651086D01*
X173888281Y-78651086D01*
X173930948Y-78571263D01*
X173962512Y-78467211D01*
X173970500Y-78386109D01*
X173970500Y-78386108D01*
X173973170Y-78359000D01*
X173970500Y-78331892D01*
X173970500Y-77864068D01*
X175035095Y-77864068D01*
X175815000Y-78643973D01*
X176594905Y-77864068D01*
X176520968Y-77665688D01*
X176310204Y-77547383D01*
X176080409Y-77472469D01*
X175840414Y-77443825D01*
X175599443Y-77462553D01*
X175366755Y-77527932D01*
X175151293Y-77637450D01*
X175109032Y-77665688D01*
X175035095Y-77864068D01*
X173970500Y-77864068D01*
X173970500Y-74841266D01*
X174174844Y-74956141D01*
X174412802Y-75033886D01*
X174466049Y-75044476D01*
X174665500Y-74957024D01*
X174665500Y-73810000D01*
X174711500Y-73810000D01*
X174711500Y-74957024D01*
X174910951Y-75044476D01*
X174964198Y-75033886D01*
X175202156Y-74956141D01*
X175420374Y-74833467D01*
X175610467Y-74670578D01*
X175765129Y-74473733D01*
X175878417Y-74250498D01*
X175945977Y-74009451D01*
X175858544Y-73810000D01*
X174711500Y-73810000D01*
X174665500Y-73810000D01*
X174645500Y-73810000D01*
X174645500Y-73764000D01*
X174665500Y-73764000D01*
X174665500Y-73744000D01*
X174711500Y-73744000D01*
X174711500Y-73764000D01*
X175858544Y-73764000D01*
X175945977Y-73564549D01*
X175878417Y-73323502D01*
X175765129Y-73100267D01*
X175610467Y-72903422D01*
X175420374Y-72740533D01*
X175202156Y-72617859D01*
X174964198Y-72540114D01*
X174910951Y-72529524D01*
X174711502Y-72616975D01*
X174711502Y-72524000D01*
X174814274Y-72524000D01*
X175060987Y-72474926D01*
X175293386Y-72378663D01*
X175502540Y-72238911D01*
X175680411Y-72061040D01*
X175820163Y-71851886D01*
X175916426Y-71619487D01*
X175965500Y-71372774D01*
X175965500Y-71121226D01*
X175916426Y-70874513D01*
X175820163Y-70642114D01*
X175680411Y-70432960D01*
X175502540Y-70255089D01*
X175293386Y-70115337D01*
X175060987Y-70019074D01*
X174814274Y-69970000D01*
X174562726Y-69970000D01*
X174316013Y-70019074D01*
X174083614Y-70115337D01*
X173874460Y-70255089D01*
X173696589Y-70432960D01*
X173556837Y-70642114D01*
X173460574Y-70874513D01*
X173418500Y-71086034D01*
X173376426Y-70874513D01*
X173280163Y-70642114D01*
X173140411Y-70432960D01*
X172962540Y-70255089D01*
X172753386Y-70115337D01*
X172520987Y-70019074D01*
X172274274Y-69970000D01*
X172022726Y-69970000D01*
X171776013Y-70019074D01*
X171543614Y-70115337D01*
X171334460Y-70255089D01*
X171156589Y-70432960D01*
X171016837Y-70642114D01*
X170920574Y-70874513D01*
X170878500Y-71086034D01*
X170836426Y-70874513D01*
X170740163Y-70642114D01*
X170600411Y-70432960D01*
X170422540Y-70255089D01*
X170213386Y-70115337D01*
X169980987Y-70019074D01*
X169734274Y-69970000D01*
X169482726Y-69970000D01*
X169236013Y-70019074D01*
X169003614Y-70115337D01*
X168794460Y-70255089D01*
X168616589Y-70432960D01*
X168476837Y-70642114D01*
X168380574Y-70874513D01*
X168331500Y-71121226D01*
X168331500Y-71223998D01*
X168238545Y-71223998D01*
X168325977Y-71024549D01*
X168258417Y-70783502D01*
X168145129Y-70560267D01*
X167990467Y-70363422D01*
X167800374Y-70200533D01*
X167582156Y-70077859D01*
X167344198Y-70000114D01*
X167290951Y-69989524D01*
X167091500Y-70076976D01*
X167091500Y-71224000D01*
X167111500Y-71224000D01*
X167111500Y-71270000D01*
X167091500Y-71270000D01*
X167091500Y-71290000D01*
X167045500Y-71290000D01*
X167045500Y-71270000D01*
X167025500Y-71270000D01*
X167025500Y-71224000D01*
X167045500Y-71224000D01*
X167045500Y-70076976D01*
X166846049Y-69989524D01*
X166792802Y-70000114D01*
X166554844Y-70077859D01*
X166336626Y-70200533D01*
X166146533Y-70363422D01*
X165991871Y-70560267D01*
X165878583Y-70783502D01*
X165811023Y-71024549D01*
X165898455Y-71223998D01*
X165805500Y-71223998D01*
X165805500Y-71121226D01*
X165756426Y-70874513D01*
X165660163Y-70642114D01*
X165520411Y-70432960D01*
X165342540Y-70255089D01*
X165133386Y-70115337D01*
X164900987Y-70019074D01*
X164654274Y-69970000D01*
X164402726Y-69970000D01*
X164156013Y-70019074D01*
X163923614Y-70115337D01*
X163714460Y-70255089D01*
X163536589Y-70432960D01*
X163396837Y-70642114D01*
X163300574Y-70874513D01*
X163251500Y-71121226D01*
X163251500Y-71223998D01*
X163158545Y-71223998D01*
X163245977Y-71024549D01*
X163178417Y-70783502D01*
X163065129Y-70560267D01*
X162910467Y-70363422D01*
X162720374Y-70200533D01*
X162502156Y-70077859D01*
X162264198Y-70000114D01*
X162210951Y-69989524D01*
X162011500Y-70076976D01*
X162011500Y-71224000D01*
X162031500Y-71224000D01*
X162031500Y-71270000D01*
X162011500Y-71270000D01*
X162011500Y-71290000D01*
X161965500Y-71290000D01*
X161965500Y-71270000D01*
X161945500Y-71270000D01*
X161945500Y-71224000D01*
X161965500Y-71224000D01*
X161965500Y-70076976D01*
X161766049Y-69989524D01*
X161712802Y-70000114D01*
X161474844Y-70077859D01*
X161256626Y-70200533D01*
X161066533Y-70363422D01*
X160911871Y-70560267D01*
X160798583Y-70783502D01*
X160731023Y-71024549D01*
X160818455Y-71223998D01*
X160725500Y-71223998D01*
X160725500Y-71121226D01*
X160676426Y-70874513D01*
X160580163Y-70642114D01*
X160440411Y-70432960D01*
X160262540Y-70255089D01*
X160053386Y-70115337D01*
X159820987Y-70019074D01*
X159574274Y-69970000D01*
X159322726Y-69970000D01*
X159076013Y-70019074D01*
X158843614Y-70115337D01*
X158634460Y-70255089D01*
X158456589Y-70432960D01*
X158316837Y-70642114D01*
X158220574Y-70874513D01*
X158178500Y-71086034D01*
X158136426Y-70874513D01*
X158040163Y-70642114D01*
X157900411Y-70432960D01*
X157722540Y-70255089D01*
X157513386Y-70115337D01*
X157280987Y-70019074D01*
X157034274Y-69970000D01*
X156782726Y-69970000D01*
X156536013Y-70019074D01*
X156303614Y-70115337D01*
X156094460Y-70255089D01*
X155916589Y-70432960D01*
X155776837Y-70642114D01*
X155680574Y-70874513D01*
X155638500Y-71086034D01*
X155596426Y-70874513D01*
X155500163Y-70642114D01*
X155360411Y-70432960D01*
X155182540Y-70255089D01*
X154973386Y-70115337D01*
X154740987Y-70019074D01*
X154494274Y-69970000D01*
X154242726Y-69970000D01*
X153996013Y-70019074D01*
X153763614Y-70115337D01*
X153554460Y-70255089D01*
X153376589Y-70432960D01*
X153236837Y-70642114D01*
X153140574Y-70874513D01*
X153098500Y-71086034D01*
X153056426Y-70874513D01*
X152960163Y-70642114D01*
X152820411Y-70432960D01*
X152642540Y-70255089D01*
X152433386Y-70115337D01*
X152200987Y-70019074D01*
X151954274Y-69970000D01*
X151702726Y-69970000D01*
X151456013Y-70019074D01*
X151223614Y-70115337D01*
X151014460Y-70255089D01*
X150836589Y-70432960D01*
X150696837Y-70642114D01*
X150600574Y-70874513D01*
X150551500Y-71121226D01*
X150551500Y-71223998D01*
X150458545Y-71223998D01*
X150545977Y-71024549D01*
X150478417Y-70783502D01*
X150365129Y-70560267D01*
X150210467Y-70363422D01*
X150020374Y-70200533D01*
X149802156Y-70077859D01*
X149564198Y-70000114D01*
X149510951Y-69989524D01*
X149311500Y-70076976D01*
X149311500Y-71224000D01*
X149331500Y-71224000D01*
X149331500Y-71270000D01*
X149311500Y-71270000D01*
X149311500Y-71290000D01*
X149265500Y-71290000D01*
X149265500Y-71270000D01*
X149245500Y-71270000D01*
X149245500Y-71224000D01*
X149265500Y-71224000D01*
X149265500Y-70076976D01*
X149066049Y-69989524D01*
X149012802Y-70000114D01*
X148774844Y-70077859D01*
X148556626Y-70200533D01*
X148366533Y-70363422D01*
X148211871Y-70560267D01*
X148098583Y-70783502D01*
X148031023Y-71024549D01*
X148118455Y-71223998D01*
X148025500Y-71223998D01*
X148025500Y-71121226D01*
X147976426Y-70874513D01*
X147880163Y-70642114D01*
X147740411Y-70432960D01*
X147562540Y-70255089D01*
X147353386Y-70115337D01*
X147120987Y-70019074D01*
X146874274Y-69970000D01*
X146622726Y-69970000D01*
X146376013Y-70019074D01*
X146143614Y-70115337D01*
X145934460Y-70255089D01*
X145756589Y-70432960D01*
X145616837Y-70642114D01*
X145520574Y-70874513D01*
X145478500Y-71086034D01*
X145436426Y-70874513D01*
X145340163Y-70642114D01*
X145200411Y-70432960D01*
X145022540Y-70255089D01*
X144813386Y-70115337D01*
X144580987Y-70019074D01*
X144334274Y-69970000D01*
X144082726Y-69970000D01*
X143836013Y-70019074D01*
X143603614Y-70115337D01*
X143394460Y-70255089D01*
X143216589Y-70432960D01*
X143076837Y-70642114D01*
X142980574Y-70874513D01*
X142931500Y-71121226D01*
X142931500Y-71223998D01*
X142838545Y-71223998D01*
X142925977Y-71024549D01*
X142858417Y-70783502D01*
X142745129Y-70560267D01*
X142590467Y-70363422D01*
X142400374Y-70200533D01*
X142182156Y-70077859D01*
X141944198Y-70000114D01*
X141890951Y-69989524D01*
X141691500Y-70076976D01*
X141691500Y-71224000D01*
X141711500Y-71224000D01*
X141711500Y-71270000D01*
X141691500Y-71270000D01*
X141691500Y-71290000D01*
X141645500Y-71290000D01*
X141645500Y-71270000D01*
X141625500Y-71270000D01*
X141625500Y-71224000D01*
X141645500Y-71224000D01*
X141645500Y-70076976D01*
X141446049Y-69989524D01*
X141392802Y-70000114D01*
X141154844Y-70077859D01*
X140936626Y-70200533D01*
X140746533Y-70363422D01*
X140591871Y-70560267D01*
X140478583Y-70783502D01*
X140411023Y-71024549D01*
X140498455Y-71223998D01*
X140405500Y-71223998D01*
X140405500Y-71121226D01*
X140356426Y-70874513D01*
X140260163Y-70642114D01*
X140120411Y-70432960D01*
X139942540Y-70255089D01*
X139733386Y-70115337D01*
X139500987Y-70019074D01*
X139254274Y-69970000D01*
X139002726Y-69970000D01*
X138756013Y-70019074D01*
X138523614Y-70115337D01*
X138314460Y-70255089D01*
X138136589Y-70432960D01*
X137996837Y-70642114D01*
X137900574Y-70874513D01*
X137858500Y-71086034D01*
X137816426Y-70874513D01*
X137720163Y-70642114D01*
X137580411Y-70432960D01*
X137402540Y-70255089D01*
X137193386Y-70115337D01*
X136960987Y-70019074D01*
X136714274Y-69970000D01*
X136462726Y-69970000D01*
X136216013Y-70019074D01*
X135983614Y-70115337D01*
X135774460Y-70255089D01*
X135596589Y-70432960D01*
X135456837Y-70642114D01*
X135360574Y-70874513D01*
X135318500Y-71086034D01*
X135276426Y-70874513D01*
X135180163Y-70642114D01*
X135040411Y-70432960D01*
X134862540Y-70255089D01*
X134653386Y-70115337D01*
X134420987Y-70019074D01*
X134174274Y-69970000D01*
X133922726Y-69970000D01*
X133676013Y-70019074D01*
X133443614Y-70115337D01*
X133234460Y-70255089D01*
X133056589Y-70432960D01*
X132916837Y-70642114D01*
X132820574Y-70874513D01*
X132771500Y-71121226D01*
X132771500Y-71223998D01*
X132678545Y-71223998D01*
X132765977Y-71024549D01*
X132698417Y-70783502D01*
X132585129Y-70560267D01*
X132430467Y-70363422D01*
X132240374Y-70200533D01*
X132022156Y-70077859D01*
X131784198Y-70000114D01*
X131730951Y-69989524D01*
X131531500Y-70076976D01*
X131531500Y-71224000D01*
X131551500Y-71224000D01*
X131551500Y-71270000D01*
X131531500Y-71270000D01*
X131531500Y-71290000D01*
X131485500Y-71290000D01*
X131485500Y-71270000D01*
X131465500Y-71270000D01*
X131465500Y-71224000D01*
X131485500Y-71224000D01*
X131485500Y-70076976D01*
X131286049Y-69989524D01*
X131232802Y-70000114D01*
X130994844Y-70077859D01*
X130776626Y-70200533D01*
X130586533Y-70363422D01*
X130431871Y-70560267D01*
X130318583Y-70783502D01*
X130251023Y-71024549D01*
X130338455Y-71223998D01*
X130245500Y-71223998D01*
X130245500Y-71121226D01*
X130196426Y-70874513D01*
X130100163Y-70642114D01*
X129960411Y-70432960D01*
X129782540Y-70255089D01*
X129573386Y-70115337D01*
X129340987Y-70019074D01*
X129094274Y-69970000D01*
X128842726Y-69970000D01*
X128596013Y-70019074D01*
X128363614Y-70115337D01*
X128154460Y-70255089D01*
X127976589Y-70432960D01*
X127836837Y-70642114D01*
X127740574Y-70874513D01*
X127698500Y-71086034D01*
X127656426Y-70874513D01*
X127560163Y-70642114D01*
X127420411Y-70432960D01*
X127242540Y-70255089D01*
X127033386Y-70115337D01*
X126800987Y-70019074D01*
X126554274Y-69970000D01*
X126302726Y-69970000D01*
X126056013Y-70019074D01*
X125823614Y-70115337D01*
X125614460Y-70255089D01*
X125436589Y-70432960D01*
X125296837Y-70642114D01*
X125200574Y-70874513D01*
X125151500Y-71121226D01*
X125151500Y-71372774D01*
X125200574Y-71619487D01*
X125296837Y-71851886D01*
X125436589Y-72061040D01*
X125614460Y-72238911D01*
X125823614Y-72378663D01*
X126056013Y-72474926D01*
X126221956Y-72507934D01*
X125578500Y-72507934D01*
X125494793Y-72516178D01*
X125414304Y-72540595D01*
X125340124Y-72580245D01*
X125275105Y-72633605D01*
X125221745Y-72698624D01*
X125182095Y-72772804D01*
X125157678Y-72853293D01*
X125149434Y-72937000D01*
X124742981Y-72937000D01*
X124764000Y-72831332D01*
X124764000Y-72195668D01*
X124639988Y-71572219D01*
X124396730Y-70984942D01*
X124043575Y-70456407D01*
X123594093Y-70006925D01*
X123065558Y-69653770D01*
X122671389Y-69490500D01*
X178402611Y-69490500D01*
X178008442Y-69653770D01*
G36*
X170920574Y-74159487D02*
G01*
X171016837Y-74391886D01*
X171156589Y-74601040D01*
X171334460Y-74778911D01*
X171543614Y-74918663D01*
X171776013Y-75014926D01*
X172022726Y-75064000D01*
X172274274Y-75064000D01*
X172520987Y-75014926D01*
X172753386Y-74918663D01*
X172866501Y-74843082D01*
X172866500Y-78130354D01*
X172002891Y-78993964D01*
X172042000Y-78797349D01*
X172042000Y-78555651D01*
X171994847Y-78318597D01*
X171902353Y-78095298D01*
X171768073Y-77894333D01*
X171597167Y-77723427D01*
X171396202Y-77589147D01*
X171172903Y-77496653D01*
X170935849Y-77449500D01*
X170694151Y-77449500D01*
X170457097Y-77496653D01*
X170233798Y-77589147D01*
X170160500Y-77638123D01*
X170160500Y-74940569D01*
X170213386Y-74918663D01*
X170422540Y-74778911D01*
X170600411Y-74601040D01*
X170740163Y-74391886D01*
X170836426Y-74159487D01*
X170878500Y-73947966D01*
X170920574Y-74159487D01*
G37*
X170920574Y-74159487D02*
X171016837Y-74391886D01*
X171156589Y-74601040D01*
X171334460Y-74778911D01*
X171543614Y-74918663D01*
X171776013Y-75014926D01*
X172022726Y-75064000D01*
X172274274Y-75064000D01*
X172520987Y-75014926D01*
X172753386Y-74918663D01*
X172866501Y-74843082D01*
X172866500Y-78130354D01*
X172002891Y-78993964D01*
X172042000Y-78797349D01*
X172042000Y-78555651D01*
X171994847Y-78318597D01*
X171902353Y-78095298D01*
X171768073Y-77894333D01*
X171597167Y-77723427D01*
X171396202Y-77589147D01*
X171172903Y-77496653D01*
X170935849Y-77449500D01*
X170694151Y-77449500D01*
X170457097Y-77496653D01*
X170233798Y-77589147D01*
X170160500Y-77638123D01*
X170160500Y-74940569D01*
X170213386Y-74918663D01*
X170422540Y-74778911D01*
X170600411Y-74601040D01*
X170740163Y-74391886D01*
X170836426Y-74159487D01*
X170878500Y-73947966D01*
X170920574Y-74159487D01*
%TD*%
M02*
