%TF.GenerationSoftware,KiCad,Pcbnew,(5.1.6)-1*%
%TF.CreationDate,2025-04-15T16:12:06-04:00*%
%TF.ProjectId,MT32-zero-breakout,4d543332-2d7a-4657-926f-2d627265616b,rev?*%
%TF.SameCoordinates,Original*%
%TF.FileFunction,Soldermask,Top*%
%TF.FilePolarity,Negative*%
%FSLAX46Y46*%
G04 Gerber Fmt 4.6, Leading zero omitted, Abs format (unit mm)*
G04 Created by KiCad (PCBNEW (5.1.6)-1) date 2025-04-15 16:12:06*
%MOMM*%
%LPD*%
G01*
G04 APERTURE LIST*
%ADD10C,6.200000*%
%ADD11R,1.800000X1.800000*%
%ADD12O,1.800000X1.800000*%
%ADD13C,1.700000*%
%ADD14R,1.700000X1.700000*%
%ADD15O,1.700000X1.700000*%
G04 APERTURE END LIST*
D10*
%TO.C,*%
X179537000Y-95513500D03*
%TD*%
%TO.C,*%
X121537000Y-95513500D03*
%TD*%
%TO.C,*%
X121537000Y-72513500D03*
%TD*%
%TO.C,*%
X179537000Y-72513500D03*
%TD*%
D11*
%TO.C,J1*%
X126428500Y-73787000D03*
D12*
X126428500Y-71247000D03*
X128968500Y-73787000D03*
X128968500Y-71247000D03*
X131508500Y-73787000D03*
X131508500Y-71247000D03*
X134048500Y-73787000D03*
X134048500Y-71247000D03*
X136588500Y-73787000D03*
X136588500Y-71247000D03*
X139128500Y-73787000D03*
X139128500Y-71247000D03*
X141668500Y-73787000D03*
X141668500Y-71247000D03*
X144208500Y-73787000D03*
X144208500Y-71247000D03*
X146748500Y-73787000D03*
X146748500Y-71247000D03*
X149288500Y-73787000D03*
X149288500Y-71247000D03*
X151828500Y-73787000D03*
X151828500Y-71247000D03*
X154368500Y-73787000D03*
X154368500Y-71247000D03*
X156908500Y-73787000D03*
X156908500Y-71247000D03*
X159448500Y-73787000D03*
X159448500Y-71247000D03*
X161988500Y-73787000D03*
X161988500Y-71247000D03*
X164528500Y-73787000D03*
X164528500Y-71247000D03*
X167068500Y-73787000D03*
X167068500Y-71247000D03*
X169608500Y-73787000D03*
X169608500Y-71247000D03*
X172148500Y-73787000D03*
X172148500Y-71247000D03*
X174688500Y-73787000D03*
X174688500Y-71247000D03*
%TD*%
D11*
%TO.C,J2*%
X127190500Y-83820000D03*
D12*
X127190500Y-86360000D03*
X127190500Y-88900000D03*
X127190500Y-91440000D03*
X127190500Y-93980000D03*
X127190500Y-96520000D03*
%TD*%
D11*
%TO.C,J3*%
X151320500Y-83312000D03*
%TD*%
D13*
%TO.C,C1*%
X170815000Y-78676500D03*
X175815000Y-78676500D03*
%TD*%
D14*
%TO.C,D1*%
X161480500Y-89916000D03*
D15*
X169100500Y-89916000D03*
%TD*%
D11*
%TO.C,J4*%
X120396000Y-80454500D03*
D12*
X120396000Y-82994500D03*
X120396000Y-85534500D03*
X120396000Y-88074500D03*
%TD*%
D11*
%TO.C,J5*%
X127127000Y-78803500D03*
D12*
X129667000Y-78803500D03*
%TD*%
%TO.C,J6*%
X136969500Y-78867000D03*
D11*
X134429500Y-78867000D03*
%TD*%
D12*
%TO.C,J7*%
X149288500Y-78867000D03*
X146748500Y-78867000D03*
X144208500Y-78867000D03*
D11*
X141668500Y-78867000D03*
%TD*%
%TO.C,J8*%
X173291500Y-87947500D03*
D12*
X173291500Y-90487500D03*
X173291500Y-93027500D03*
%TD*%
D13*
%TO.C,R1*%
X169545000Y-82931000D03*
D15*
X177165000Y-82931000D03*
%TD*%
%TO.C,R2*%
X169100500Y-93916500D03*
D13*
X161480500Y-93916500D03*
%TD*%
D14*
%TO.C,U1*%
X161480500Y-86233000D03*
D15*
X166560500Y-78613000D03*
X164020500Y-86233000D03*
X164020500Y-78613000D03*
X166560500Y-86233000D03*
X161480500Y-78613000D03*
%TD*%
M02*
