M48
; DRILL file {KiCad (5.1.6)-1} date 04/15/25 16:12:09
; FORMAT={-:-/ absolute / metric / decimal}
; #@! TF.CreationDate,2025-04-15T16:12:09-04:00
; #@! TF.GenerationSoftware,Kicad,Pcbnew,(5.1.6)-1
; #@! TF.FileFunction,Plated,1,2,PTH
FMAT,2
METRIC
T1C0.400
T2C0.800
T3C1.000
%
G90
G05
T1
X120.396Y-76.517
X132.461Y-90.17
X139.129Y-79.947
X159.067Y-84.201
X165.178Y-83.371
X171.513Y-75.629
T2
X161.481Y-93.916
X169.1Y-93.916
X161.481Y-78.613
X161.481Y-86.233
X164.02Y-78.613
X164.02Y-86.233
X166.56Y-78.613
X166.56Y-86.233
X169.545Y-82.931
X177.165Y-82.931
X170.815Y-78.676
X175.815Y-78.676
X161.481Y-89.916
X169.1Y-89.916
T3
X173.291Y-87.947
X173.291Y-90.487
X173.291Y-93.027
X151.32Y-83.312
X134.429Y-78.867
X136.969Y-78.867
X127.191Y-83.82
X127.191Y-86.36
X127.191Y-88.9
X127.191Y-91.44
X127.191Y-93.98
X127.191Y-96.52
X141.668Y-78.867
X144.208Y-78.867
X146.749Y-78.867
X149.288Y-78.867
X127.127Y-78.803
X129.667Y-78.803
X126.428Y-71.247
X126.428Y-73.787
X128.969Y-71.247
X128.969Y-73.787
X131.508Y-71.247
X131.508Y-73.787
X134.048Y-71.247
X134.048Y-73.787
X136.588Y-71.247
X136.588Y-73.787
X139.129Y-71.247
X139.129Y-73.787
X141.668Y-71.247
X141.668Y-73.787
X144.208Y-71.247
X144.208Y-73.787
X146.749Y-71.247
X146.749Y-73.787
X149.288Y-71.247
X149.288Y-73.787
X151.828Y-71.247
X151.828Y-73.787
X154.368Y-71.247
X154.368Y-73.787
X156.909Y-71.247
X156.909Y-73.787
X159.448Y-71.247
X159.448Y-73.787
X161.988Y-71.247
X161.988Y-73.787
X164.528Y-71.247
X164.528Y-73.787
X167.069Y-71.247
X167.069Y-73.787
X169.608Y-71.247
X169.608Y-73.787
X172.148Y-71.247
X172.148Y-73.787
X174.689Y-71.247
X174.689Y-73.787
X120.396Y-80.454
X120.396Y-82.995
X120.396Y-85.534
X120.396Y-88.075
T0
M30
