%TF.GenerationSoftware,KiCad,Pcbnew,(5.1.6)-1*%
%TF.CreationDate,2025-04-15T16:12:06-04:00*%
%TF.ProjectId,MT32-zero-breakout,4d543332-2d7a-4657-926f-2d627265616b,rev?*%
%TF.SameCoordinates,Original*%
%TF.FileFunction,Legend,Top*%
%TF.FilePolarity,Positive*%
%FSLAX46Y46*%
G04 Gerber Fmt 4.6, Leading zero omitted, Abs format (unit mm)*
G04 Created by KiCad (PCBNEW (5.1.6)-1) date 2025-04-15 16:12:06*
%MOMM*%
%LPD*%
G01*
G04 APERTURE LIST*
%ADD10C,0.150000*%
%ADD11C,0.120000*%
%ADD12C,0.010000*%
G04 APERTURE END LIST*
D10*
X137251714Y-83345785D02*
X137251714Y-83881500D01*
X137216000Y-83988642D01*
X137144571Y-84060071D01*
X137037428Y-84095785D01*
X136966000Y-84095785D01*
X137966000Y-84095785D02*
X137608857Y-84095785D01*
X137608857Y-83345785D01*
X138644571Y-84024357D02*
X138608857Y-84060071D01*
X138501714Y-84095785D01*
X138430285Y-84095785D01*
X138323142Y-84060071D01*
X138251714Y-83988642D01*
X138216000Y-83917214D01*
X138180285Y-83774357D01*
X138180285Y-83667214D01*
X138216000Y-83524357D01*
X138251714Y-83452928D01*
X138323142Y-83381500D01*
X138430285Y-83345785D01*
X138501714Y-83345785D01*
X138608857Y-83381500D01*
X138644571Y-83417214D01*
X139180285Y-83345785D02*
X139180285Y-83881500D01*
X139144571Y-83988642D01*
X139073142Y-84060071D01*
X138966000Y-84095785D01*
X138894571Y-84095785D01*
X139894571Y-84095785D02*
X139537428Y-84095785D01*
X139537428Y-83345785D01*
X140573142Y-84024357D02*
X140537428Y-84060071D01*
X140430285Y-84095785D01*
X140358857Y-84095785D01*
X140251714Y-84060071D01*
X140180285Y-83988642D01*
X140144571Y-83917214D01*
X140108857Y-83774357D01*
X140108857Y-83667214D01*
X140144571Y-83524357D01*
X140180285Y-83452928D01*
X140251714Y-83381500D01*
X140358857Y-83345785D01*
X140430285Y-83345785D01*
X140537428Y-83381500D01*
X140573142Y-83417214D01*
X141108857Y-83345785D02*
X141108857Y-83881500D01*
X141073142Y-83988642D01*
X141001714Y-84060071D01*
X140894571Y-84095785D01*
X140823142Y-84095785D01*
X141823142Y-84095785D02*
X141466000Y-84095785D01*
X141466000Y-83345785D01*
X142501714Y-84024357D02*
X142466000Y-84060071D01*
X142358857Y-84095785D01*
X142287428Y-84095785D01*
X142180285Y-84060071D01*
X142108857Y-83988642D01*
X142073142Y-83917214D01*
X142037428Y-83774357D01*
X142037428Y-83667214D01*
X142073142Y-83524357D01*
X142108857Y-83452928D01*
X142180285Y-83381500D01*
X142287428Y-83345785D01*
X142358857Y-83345785D01*
X142466000Y-83381500D01*
X142501714Y-83417214D01*
X143037428Y-83345785D02*
X143037428Y-83881500D01*
X143001714Y-83988642D01*
X142930285Y-84060071D01*
X142823142Y-84095785D01*
X142751714Y-84095785D01*
X143751714Y-84095785D02*
X143394571Y-84095785D01*
X143394571Y-83345785D01*
X144430285Y-84024357D02*
X144394571Y-84060071D01*
X144287428Y-84095785D01*
X144216000Y-84095785D01*
X144108857Y-84060071D01*
X144037428Y-83988642D01*
X144001714Y-83917214D01*
X143966000Y-83774357D01*
X143966000Y-83667214D01*
X144001714Y-83524357D01*
X144037428Y-83452928D01*
X144108857Y-83381500D01*
X144216000Y-83345785D01*
X144287428Y-83345785D01*
X144394571Y-83381500D01*
X144430285Y-83417214D01*
X119844428Y-90633785D02*
X119844428Y-90133785D01*
X119844428Y-89883785D02*
X119808714Y-89919500D01*
X119844428Y-89955214D01*
X119880142Y-89919500D01*
X119844428Y-89883785D01*
X119844428Y-89955214D01*
X120165857Y-89955214D02*
X120201571Y-89919500D01*
X120273000Y-89883785D01*
X120451571Y-89883785D01*
X120523000Y-89919500D01*
X120558714Y-89955214D01*
X120594428Y-90026642D01*
X120594428Y-90098071D01*
X120558714Y-90205214D01*
X120130142Y-90633785D01*
X120594428Y-90633785D01*
X121237285Y-90598071D02*
X121165857Y-90633785D01*
X121023000Y-90633785D01*
X120951571Y-90598071D01*
X120915857Y-90562357D01*
X120880142Y-90490928D01*
X120880142Y-90276642D01*
X120915857Y-90205214D01*
X120951571Y-90169500D01*
X121023000Y-90133785D01*
X121165857Y-90133785D01*
X121237285Y-90169500D01*
X118469428Y-91908785D02*
X118469428Y-91158785D01*
X118648000Y-91158785D01*
X118755142Y-91194500D01*
X118826571Y-91265928D01*
X118862285Y-91337357D01*
X118898000Y-91480214D01*
X118898000Y-91587357D01*
X118862285Y-91730214D01*
X118826571Y-91801642D01*
X118755142Y-91873071D01*
X118648000Y-91908785D01*
X118469428Y-91908785D01*
X119219428Y-91908785D02*
X119219428Y-91158785D01*
X119540857Y-91873071D02*
X119648000Y-91908785D01*
X119826571Y-91908785D01*
X119898000Y-91873071D01*
X119933714Y-91837357D01*
X119969428Y-91765928D01*
X119969428Y-91694500D01*
X119933714Y-91623071D01*
X119898000Y-91587357D01*
X119826571Y-91551642D01*
X119683714Y-91515928D01*
X119612285Y-91480214D01*
X119576571Y-91444500D01*
X119540857Y-91373071D01*
X119540857Y-91301642D01*
X119576571Y-91230214D01*
X119612285Y-91194500D01*
X119683714Y-91158785D01*
X119862285Y-91158785D01*
X119969428Y-91194500D01*
X120290857Y-91908785D02*
X120290857Y-91158785D01*
X120576571Y-91158785D01*
X120648000Y-91194500D01*
X120683714Y-91230214D01*
X120719428Y-91301642D01*
X120719428Y-91408785D01*
X120683714Y-91480214D01*
X120648000Y-91515928D01*
X120576571Y-91551642D01*
X120290857Y-91551642D01*
X121398000Y-91908785D02*
X121040857Y-91908785D01*
X121040857Y-91158785D01*
X121612285Y-91694500D02*
X121969428Y-91694500D01*
X121540857Y-91908785D02*
X121790857Y-91158785D01*
X122040857Y-91908785D01*
X122433714Y-91551642D02*
X122433714Y-91908785D01*
X122183714Y-91158785D02*
X122433714Y-91551642D01*
X122683714Y-91158785D01*
X182506880Y-92700976D02*
X181840214Y-92700976D01*
X181935452Y-92700976D02*
X181887833Y-92653357D01*
X181840214Y-92558119D01*
X181840214Y-92415261D01*
X181887833Y-92320023D01*
X181983071Y-92272404D01*
X182506880Y-92272404D01*
X181983071Y-92272404D02*
X181887833Y-92224785D01*
X181840214Y-92129547D01*
X181840214Y-91986690D01*
X181887833Y-91891452D01*
X181983071Y-91843833D01*
X182506880Y-91843833D01*
X181840214Y-91510500D02*
X181840214Y-91129547D01*
X181506880Y-91367642D02*
X182364023Y-91367642D01*
X182459261Y-91320023D01*
X182506880Y-91224785D01*
X182506880Y-91129547D01*
X181506880Y-90891452D02*
X181506880Y-90272404D01*
X181887833Y-90605738D01*
X181887833Y-90462880D01*
X181935452Y-90367642D01*
X181983071Y-90320023D01*
X182078309Y-90272404D01*
X182316404Y-90272404D01*
X182411642Y-90320023D01*
X182459261Y-90367642D01*
X182506880Y-90462880D01*
X182506880Y-90748595D01*
X182459261Y-90843833D01*
X182411642Y-90891452D01*
X181602119Y-89891452D02*
X181554500Y-89843833D01*
X181506880Y-89748595D01*
X181506880Y-89510500D01*
X181554500Y-89415261D01*
X181602119Y-89367642D01*
X181697357Y-89320023D01*
X181792595Y-89320023D01*
X181935452Y-89367642D01*
X182506880Y-89939071D01*
X182506880Y-89320023D01*
X182125928Y-88891452D02*
X182125928Y-88129547D01*
X181840214Y-87653357D02*
X182840214Y-87653357D01*
X181887833Y-87653357D02*
X181840214Y-87558119D01*
X181840214Y-87367642D01*
X181887833Y-87272404D01*
X181935452Y-87224785D01*
X182030690Y-87177166D01*
X182316404Y-87177166D01*
X182411642Y-87224785D01*
X182459261Y-87272404D01*
X182506880Y-87367642D01*
X182506880Y-87558119D01*
X182459261Y-87653357D01*
X182506880Y-86748595D02*
X181840214Y-86748595D01*
X181506880Y-86748595D02*
X181554500Y-86796214D01*
X181602119Y-86748595D01*
X181554500Y-86700976D01*
X181506880Y-86748595D01*
X181602119Y-86748595D01*
X181506880Y-85605738D02*
X181506880Y-84939071D01*
X182506880Y-85605738D01*
X182506880Y-84939071D01*
X182459261Y-84177166D02*
X182506880Y-84272404D01*
X182506880Y-84462880D01*
X182459261Y-84558119D01*
X182364023Y-84605738D01*
X181983071Y-84605738D01*
X181887833Y-84558119D01*
X181840214Y-84462880D01*
X181840214Y-84272404D01*
X181887833Y-84177166D01*
X181983071Y-84129547D01*
X182078309Y-84129547D01*
X182173547Y-84605738D01*
X182506880Y-83700976D02*
X181840214Y-83700976D01*
X182030690Y-83700976D02*
X181935452Y-83653357D01*
X181887833Y-83605738D01*
X181840214Y-83510500D01*
X181840214Y-83415261D01*
X182506880Y-82939071D02*
X182459261Y-83034309D01*
X182411642Y-83081928D01*
X182316404Y-83129547D01*
X182030690Y-83129547D01*
X181935452Y-83081928D01*
X181887833Y-83034309D01*
X181840214Y-82939071D01*
X181840214Y-82796214D01*
X181887833Y-82700976D01*
X181935452Y-82653357D01*
X182030690Y-82605738D01*
X182316404Y-82605738D01*
X182411642Y-82653357D01*
X182459261Y-82700976D01*
X182506880Y-82796214D01*
X182506880Y-82939071D01*
X181983071Y-81081928D02*
X182030690Y-80939071D01*
X182078309Y-80891452D01*
X182173547Y-80843833D01*
X182316404Y-80843833D01*
X182411642Y-80891452D01*
X182459261Y-80939071D01*
X182506880Y-81034309D01*
X182506880Y-81415261D01*
X181506880Y-81415261D01*
X181506880Y-81081928D01*
X181554500Y-80986690D01*
X181602119Y-80939071D01*
X181697357Y-80891452D01*
X181792595Y-80891452D01*
X181887833Y-80939071D01*
X181935452Y-80986690D01*
X181983071Y-81081928D01*
X181983071Y-81415261D01*
X182506880Y-80415261D02*
X181840214Y-80415261D01*
X182030690Y-80415261D02*
X181935452Y-80367642D01*
X181887833Y-80320023D01*
X181840214Y-80224785D01*
X181840214Y-80129547D01*
X182459261Y-79415261D02*
X182506880Y-79510500D01*
X182506880Y-79700976D01*
X182459261Y-79796214D01*
X182364023Y-79843833D01*
X181983071Y-79843833D01*
X181887833Y-79796214D01*
X181840214Y-79700976D01*
X181840214Y-79510500D01*
X181887833Y-79415261D01*
X181983071Y-79367642D01*
X182078309Y-79367642D01*
X182173547Y-79843833D01*
X182506880Y-78510500D02*
X181983071Y-78510500D01*
X181887833Y-78558119D01*
X181840214Y-78653357D01*
X181840214Y-78843833D01*
X181887833Y-78939071D01*
X182459261Y-78510500D02*
X182506880Y-78605738D01*
X182506880Y-78843833D01*
X182459261Y-78939071D01*
X182364023Y-78986690D01*
X182268785Y-78986690D01*
X182173547Y-78939071D01*
X182125928Y-78843833D01*
X182125928Y-78605738D01*
X182078309Y-78510500D01*
X182506880Y-78034309D02*
X181506880Y-78034309D01*
X182125928Y-77939071D02*
X182506880Y-77653357D01*
X181840214Y-77653357D02*
X182221166Y-78034309D01*
X182506880Y-77081928D02*
X182459261Y-77177166D01*
X182411642Y-77224785D01*
X182316404Y-77272404D01*
X182030690Y-77272404D01*
X181935452Y-77224785D01*
X181887833Y-77177166D01*
X181840214Y-77081928D01*
X181840214Y-76939071D01*
X181887833Y-76843833D01*
X181935452Y-76796214D01*
X182030690Y-76748595D01*
X182316404Y-76748595D01*
X182411642Y-76796214D01*
X182459261Y-76843833D01*
X182506880Y-76939071D01*
X182506880Y-77081928D01*
X181840214Y-75891452D02*
X182506880Y-75891452D01*
X181840214Y-76320023D02*
X182364023Y-76320023D01*
X182459261Y-76272404D01*
X182506880Y-76177166D01*
X182506880Y-76034309D01*
X182459261Y-75939071D01*
X182411642Y-75891452D01*
X181840214Y-75558119D02*
X181840214Y-75177166D01*
X181506880Y-75415261D02*
X182364023Y-75415261D01*
X182459261Y-75367642D01*
X182506880Y-75272404D01*
X182506880Y-75177166D01*
X171981976Y-95829380D02*
X171981976Y-94829380D01*
X172315309Y-95543666D01*
X172648642Y-94829380D01*
X172648642Y-95829380D01*
X173124833Y-95829380D02*
X173124833Y-94829380D01*
X173601023Y-95829380D02*
X173601023Y-94829380D01*
X173839119Y-94829380D01*
X173981976Y-94877000D01*
X174077214Y-94972238D01*
X174124833Y-95067476D01*
X174172452Y-95257952D01*
X174172452Y-95400809D01*
X174124833Y-95591285D01*
X174077214Y-95686523D01*
X173981976Y-95781761D01*
X173839119Y-95829380D01*
X173601023Y-95829380D01*
X174601023Y-95829380D02*
X174601023Y-94829380D01*
X160655880Y-97575714D02*
X160846357Y-98242380D01*
X161036833Y-97766190D01*
X161227309Y-98242380D01*
X161417785Y-97575714D01*
X161798738Y-98242380D02*
X161798738Y-97575714D01*
X161798738Y-97242380D02*
X161751119Y-97290000D01*
X161798738Y-97337619D01*
X161846357Y-97290000D01*
X161798738Y-97242380D01*
X161798738Y-97337619D01*
X162274928Y-98242380D02*
X162274928Y-97575714D01*
X162274928Y-97766190D02*
X162322547Y-97670952D01*
X162370166Y-97623333D01*
X162465404Y-97575714D01*
X162560642Y-97575714D01*
X163274928Y-98194761D02*
X163179690Y-98242380D01*
X162989214Y-98242380D01*
X162893976Y-98194761D01*
X162846357Y-98099523D01*
X162846357Y-97718571D01*
X162893976Y-97623333D01*
X162989214Y-97575714D01*
X163179690Y-97575714D01*
X163274928Y-97623333D01*
X163322547Y-97718571D01*
X163322547Y-97813809D01*
X162846357Y-97909047D01*
X163608261Y-97575714D02*
X163989214Y-97575714D01*
X163751119Y-97242380D02*
X163751119Y-98099523D01*
X163798738Y-98194761D01*
X163893976Y-98242380D01*
X163989214Y-98242380D01*
X164751119Y-98242380D02*
X164751119Y-97718571D01*
X164703500Y-97623333D01*
X164608261Y-97575714D01*
X164417785Y-97575714D01*
X164322547Y-97623333D01*
X164751119Y-98194761D02*
X164655880Y-98242380D01*
X164417785Y-98242380D01*
X164322547Y-98194761D01*
X164274928Y-98099523D01*
X164274928Y-98004285D01*
X164322547Y-97909047D01*
X164417785Y-97861428D01*
X164655880Y-97861428D01*
X164751119Y-97813809D01*
X165227309Y-97575714D02*
X165227309Y-98575714D01*
X165227309Y-97623333D02*
X165322547Y-97575714D01*
X165513023Y-97575714D01*
X165608261Y-97623333D01*
X165655880Y-97670952D01*
X165703500Y-97766190D01*
X165703500Y-98051904D01*
X165655880Y-98147142D01*
X165608261Y-98194761D01*
X165513023Y-98242380D01*
X165322547Y-98242380D01*
X165227309Y-98194761D01*
X166846357Y-97337619D02*
X166893976Y-97290000D01*
X166989214Y-97242380D01*
X167227309Y-97242380D01*
X167322547Y-97290000D01*
X167370166Y-97337619D01*
X167417785Y-97432857D01*
X167417785Y-97528095D01*
X167370166Y-97670952D01*
X166798738Y-98242380D01*
X167417785Y-98242380D01*
X168036833Y-97242380D02*
X168132071Y-97242380D01*
X168227309Y-97290000D01*
X168274928Y-97337619D01*
X168322547Y-97432857D01*
X168370166Y-97623333D01*
X168370166Y-97861428D01*
X168322547Y-98051904D01*
X168274928Y-98147142D01*
X168227309Y-98194761D01*
X168132071Y-98242380D01*
X168036833Y-98242380D01*
X167941595Y-98194761D01*
X167893976Y-98147142D01*
X167846357Y-98051904D01*
X167798738Y-97861428D01*
X167798738Y-97623333D01*
X167846357Y-97432857D01*
X167893976Y-97337619D01*
X167941595Y-97290000D01*
X168036833Y-97242380D01*
X168751119Y-97337619D02*
X168798738Y-97290000D01*
X168893976Y-97242380D01*
X169132071Y-97242380D01*
X169227309Y-97290000D01*
X169274928Y-97337619D01*
X169322547Y-97432857D01*
X169322547Y-97528095D01*
X169274928Y-97670952D01*
X168703500Y-98242380D01*
X169322547Y-98242380D01*
X170227309Y-97242380D02*
X169751119Y-97242380D01*
X169703500Y-97718571D01*
X169751119Y-97670952D01*
X169846357Y-97623333D01*
X170084452Y-97623333D01*
X170179690Y-97670952D01*
X170227309Y-97718571D01*
X170274928Y-97813809D01*
X170274928Y-98051904D01*
X170227309Y-98147142D01*
X170179690Y-98194761D01*
X170084452Y-98242380D01*
X169846357Y-98242380D01*
X169751119Y-98194761D01*
X169703500Y-98147142D01*
X171465404Y-98242380D02*
X171465404Y-97575714D01*
X171465404Y-97766190D02*
X171513023Y-97670952D01*
X171560642Y-97623333D01*
X171655880Y-97575714D01*
X171751119Y-97575714D01*
X172465404Y-98194761D02*
X172370166Y-98242380D01*
X172179690Y-98242380D01*
X172084452Y-98194761D01*
X172036833Y-98099523D01*
X172036833Y-97718571D01*
X172084452Y-97623333D01*
X172179690Y-97575714D01*
X172370166Y-97575714D01*
X172465404Y-97623333D01*
X172513023Y-97718571D01*
X172513023Y-97813809D01*
X172036833Y-97909047D01*
X172846357Y-97575714D02*
X173084452Y-98242380D01*
X173322547Y-97575714D01*
X173703500Y-98147142D02*
X173751119Y-98194761D01*
X173703500Y-98242380D01*
X173655880Y-98194761D01*
X173703500Y-98147142D01*
X173703500Y-98242380D01*
X174370166Y-97242380D02*
X174465404Y-97242380D01*
X174560642Y-97290000D01*
X174608261Y-97337619D01*
X174655880Y-97432857D01*
X174703500Y-97623333D01*
X174703500Y-97861428D01*
X174655880Y-98051904D01*
X174608261Y-98147142D01*
X174560642Y-98194761D01*
X174465404Y-98242380D01*
X174370166Y-98242380D01*
X174274928Y-98194761D01*
X174227309Y-98147142D01*
X174179690Y-98051904D01*
X174132071Y-97861428D01*
X174132071Y-97623333D01*
X174179690Y-97432857D01*
X174227309Y-97337619D01*
X174274928Y-97290000D01*
X174370166Y-97242380D01*
X175180785Y-92172285D02*
X175430785Y-92922285D01*
X175680785Y-92172285D01*
X176359357Y-92922285D02*
X176109357Y-92565142D01*
X175930785Y-92922285D02*
X175930785Y-92172285D01*
X176216500Y-92172285D01*
X176287928Y-92208000D01*
X176323642Y-92243714D01*
X176359357Y-92315142D01*
X176359357Y-92422285D01*
X176323642Y-92493714D01*
X176287928Y-92529428D01*
X176216500Y-92565142D01*
X175930785Y-92565142D01*
X176680785Y-92529428D02*
X176930785Y-92529428D01*
X177037928Y-92922285D02*
X176680785Y-92922285D01*
X176680785Y-92172285D01*
X177037928Y-92172285D01*
X177609357Y-92529428D02*
X177359357Y-92529428D01*
X177359357Y-92922285D02*
X177359357Y-92172285D01*
X177716500Y-92172285D01*
X175214500Y-90826785D02*
X175214500Y-90076785D01*
X175393071Y-90076785D01*
X175500214Y-90112500D01*
X175571642Y-90183928D01*
X175607357Y-90255357D01*
X175643071Y-90398214D01*
X175643071Y-90505357D01*
X175607357Y-90648214D01*
X175571642Y-90719642D01*
X175500214Y-90791071D01*
X175393071Y-90826785D01*
X175214500Y-90826785D01*
X175928785Y-90612500D02*
X176285928Y-90612500D01*
X175857357Y-90826785D02*
X176107357Y-90076785D01*
X176357357Y-90826785D01*
X176500214Y-90076785D02*
X176928785Y-90076785D01*
X176714500Y-90826785D02*
X176714500Y-90076785D01*
X177143071Y-90612500D02*
X177500214Y-90612500D01*
X177071642Y-90826785D02*
X177321642Y-90076785D01*
X177571642Y-90826785D01*
X175234428Y-88314571D02*
X175341571Y-88350285D01*
X175520142Y-88350285D01*
X175591571Y-88314571D01*
X175627285Y-88278857D01*
X175663000Y-88207428D01*
X175663000Y-88136000D01*
X175627285Y-88064571D01*
X175591571Y-88028857D01*
X175520142Y-87993142D01*
X175377285Y-87957428D01*
X175305857Y-87921714D01*
X175270142Y-87886000D01*
X175234428Y-87814571D01*
X175234428Y-87743142D01*
X175270142Y-87671714D01*
X175305857Y-87636000D01*
X175377285Y-87600285D01*
X175555857Y-87600285D01*
X175663000Y-87636000D01*
X175984428Y-88350285D02*
X175984428Y-87600285D01*
X175984428Y-87957428D02*
X176413000Y-87957428D01*
X176413000Y-88350285D02*
X176413000Y-87600285D01*
X176770142Y-88350285D02*
X176770142Y-87600285D01*
X177127285Y-87957428D02*
X177377285Y-87957428D01*
X177484428Y-88350285D02*
X177127285Y-88350285D01*
X177127285Y-87600285D01*
X177484428Y-87600285D01*
X178163000Y-88350285D02*
X177805857Y-88350285D01*
X177805857Y-87600285D01*
X178413000Y-88350285D02*
X178413000Y-87600285D01*
X178591571Y-87600285D01*
X178698714Y-87636000D01*
X178770142Y-87707428D01*
X178805857Y-87778857D01*
X178841571Y-87921714D01*
X178841571Y-88028857D01*
X178805857Y-88171714D01*
X178770142Y-88243142D01*
X178698714Y-88314571D01*
X178591571Y-88350285D01*
X178413000Y-88350285D01*
X133296714Y-81162928D02*
X133403857Y-81198642D01*
X133439571Y-81234357D01*
X133475285Y-81305785D01*
X133475285Y-81412928D01*
X133439571Y-81484357D01*
X133403857Y-81520071D01*
X133332428Y-81555785D01*
X133046714Y-81555785D01*
X133046714Y-80805785D01*
X133296714Y-80805785D01*
X133368142Y-80841500D01*
X133403857Y-80877214D01*
X133439571Y-80948642D01*
X133439571Y-81020071D01*
X133403857Y-81091500D01*
X133368142Y-81127214D01*
X133296714Y-81162928D01*
X133046714Y-81162928D01*
X133796714Y-80805785D02*
X133796714Y-81412928D01*
X133832428Y-81484357D01*
X133868142Y-81520071D01*
X133939571Y-81555785D01*
X134082428Y-81555785D01*
X134153857Y-81520071D01*
X134189571Y-81484357D01*
X134225285Y-81412928D01*
X134225285Y-80805785D01*
X134475285Y-80805785D02*
X134903857Y-80805785D01*
X134689571Y-81555785D02*
X134689571Y-80805785D01*
X135046714Y-80805785D02*
X135475285Y-80805785D01*
X135261000Y-81555785D02*
X135261000Y-80805785D01*
X135868142Y-80805785D02*
X136011000Y-80805785D01*
X136082428Y-80841500D01*
X136153857Y-80912928D01*
X136189571Y-81055785D01*
X136189571Y-81305785D01*
X136153857Y-81448642D01*
X136082428Y-81520071D01*
X136011000Y-81555785D01*
X135868142Y-81555785D01*
X135796714Y-81520071D01*
X135725285Y-81448642D01*
X135689571Y-81305785D01*
X135689571Y-81055785D01*
X135725285Y-80912928D01*
X135796714Y-80841500D01*
X135868142Y-80805785D01*
X136511000Y-81555785D02*
X136511000Y-80805785D01*
X136939571Y-81555785D01*
X136939571Y-80805785D01*
X137832428Y-80877214D02*
X137868142Y-80841500D01*
X137939571Y-80805785D01*
X138118142Y-80805785D01*
X138189571Y-80841500D01*
X138225285Y-80877214D01*
X138261000Y-80948642D01*
X138261000Y-81020071D01*
X138225285Y-81127214D01*
X137796714Y-81555785D01*
X138261000Y-81555785D01*
X126057714Y-81099428D02*
X126164857Y-81135142D01*
X126200571Y-81170857D01*
X126236285Y-81242285D01*
X126236285Y-81349428D01*
X126200571Y-81420857D01*
X126164857Y-81456571D01*
X126093428Y-81492285D01*
X125807714Y-81492285D01*
X125807714Y-80742285D01*
X126057714Y-80742285D01*
X126129142Y-80778000D01*
X126164857Y-80813714D01*
X126200571Y-80885142D01*
X126200571Y-80956571D01*
X126164857Y-81028000D01*
X126129142Y-81063714D01*
X126057714Y-81099428D01*
X125807714Y-81099428D01*
X126557714Y-80742285D02*
X126557714Y-81349428D01*
X126593428Y-81420857D01*
X126629142Y-81456571D01*
X126700571Y-81492285D01*
X126843428Y-81492285D01*
X126914857Y-81456571D01*
X126950571Y-81420857D01*
X126986285Y-81349428D01*
X126986285Y-80742285D01*
X127236285Y-80742285D02*
X127664857Y-80742285D01*
X127450571Y-81492285D02*
X127450571Y-80742285D01*
X127807714Y-80742285D02*
X128236285Y-80742285D01*
X128022000Y-81492285D02*
X128022000Y-80742285D01*
X128629142Y-80742285D02*
X128772000Y-80742285D01*
X128843428Y-80778000D01*
X128914857Y-80849428D01*
X128950571Y-80992285D01*
X128950571Y-81242285D01*
X128914857Y-81385142D01*
X128843428Y-81456571D01*
X128772000Y-81492285D01*
X128629142Y-81492285D01*
X128557714Y-81456571D01*
X128486285Y-81385142D01*
X128450571Y-81242285D01*
X128450571Y-80992285D01*
X128486285Y-80849428D01*
X128557714Y-80778000D01*
X128629142Y-80742285D01*
X129272000Y-81492285D02*
X129272000Y-80742285D01*
X129700571Y-81492285D01*
X129700571Y-80742285D01*
X131022000Y-81492285D02*
X130593428Y-81492285D01*
X130807714Y-81492285D02*
X130807714Y-80742285D01*
X130736285Y-80849428D01*
X130664857Y-80920857D01*
X130593428Y-80956571D01*
X151697714Y-79206285D02*
X151447714Y-78849142D01*
X151269142Y-79206285D02*
X151269142Y-78456285D01*
X151554857Y-78456285D01*
X151626285Y-78492000D01*
X151662000Y-78527714D01*
X151697714Y-78599142D01*
X151697714Y-78706285D01*
X151662000Y-78777714D01*
X151626285Y-78813428D01*
X151554857Y-78849142D01*
X151269142Y-78849142D01*
X152162000Y-78456285D02*
X152304857Y-78456285D01*
X152376285Y-78492000D01*
X152447714Y-78563428D01*
X152483428Y-78706285D01*
X152483428Y-78956285D01*
X152447714Y-79099142D01*
X152376285Y-79170571D01*
X152304857Y-79206285D01*
X152162000Y-79206285D01*
X152090571Y-79170571D01*
X152019142Y-79099142D01*
X151983428Y-78956285D01*
X151983428Y-78706285D01*
X152019142Y-78563428D01*
X152090571Y-78492000D01*
X152162000Y-78456285D01*
X152697714Y-78456285D02*
X153126285Y-78456285D01*
X152912000Y-79206285D02*
X152912000Y-78456285D01*
X153340571Y-78992000D02*
X153697714Y-78992000D01*
X153269142Y-79206285D02*
X153519142Y-78456285D01*
X153769142Y-79206285D01*
X154447714Y-79206285D02*
X154197714Y-78849142D01*
X154019142Y-79206285D02*
X154019142Y-78456285D01*
X154304857Y-78456285D01*
X154376285Y-78492000D01*
X154412000Y-78527714D01*
X154447714Y-78599142D01*
X154447714Y-78706285D01*
X154412000Y-78777714D01*
X154376285Y-78813428D01*
X154304857Y-78849142D01*
X154019142Y-78849142D01*
X154912000Y-78849142D02*
X154912000Y-79206285D01*
X154662000Y-78456285D02*
X154912000Y-78849142D01*
X155162000Y-78456285D01*
X148717071Y-80841500D02*
X148645642Y-80805785D01*
X148538500Y-80805785D01*
X148431357Y-80841500D01*
X148359928Y-80912928D01*
X148324214Y-80984357D01*
X148288500Y-81127214D01*
X148288500Y-81234357D01*
X148324214Y-81377214D01*
X148359928Y-81448642D01*
X148431357Y-81520071D01*
X148538500Y-81555785D01*
X148609928Y-81555785D01*
X148717071Y-81520071D01*
X148752785Y-81484357D01*
X148752785Y-81234357D01*
X148609928Y-81234357D01*
X149074214Y-81555785D02*
X149074214Y-80805785D01*
X149502785Y-81555785D01*
X149502785Y-80805785D01*
X149859928Y-81555785D02*
X149859928Y-80805785D01*
X150038500Y-80805785D01*
X150145642Y-80841500D01*
X150217071Y-80912928D01*
X150252785Y-80984357D01*
X150288500Y-81127214D01*
X150288500Y-81234357D01*
X150252785Y-81377214D01*
X150217071Y-81448642D01*
X150145642Y-81520071D01*
X150038500Y-81555785D01*
X149859928Y-81555785D01*
X145944928Y-81555785D02*
X145944928Y-80805785D01*
X146123500Y-80805785D01*
X146230642Y-80841500D01*
X146302071Y-80912928D01*
X146337785Y-80984357D01*
X146373500Y-81127214D01*
X146373500Y-81234357D01*
X146337785Y-81377214D01*
X146302071Y-81448642D01*
X146230642Y-81520071D01*
X146123500Y-81555785D01*
X145944928Y-81555785D01*
X146659214Y-81341500D02*
X147016357Y-81341500D01*
X146587785Y-81555785D02*
X146837785Y-80805785D01*
X147087785Y-81555785D01*
X147230642Y-80805785D02*
X147659214Y-80805785D01*
X147444928Y-81555785D02*
X147444928Y-80805785D01*
X143762071Y-81484357D02*
X143726357Y-81520071D01*
X143619214Y-81555785D01*
X143547785Y-81555785D01*
X143440642Y-81520071D01*
X143369214Y-81448642D01*
X143333500Y-81377214D01*
X143297785Y-81234357D01*
X143297785Y-81127214D01*
X143333500Y-80984357D01*
X143369214Y-80912928D01*
X143440642Y-80841500D01*
X143547785Y-80805785D01*
X143619214Y-80805785D01*
X143726357Y-80841500D01*
X143762071Y-80877214D01*
X144440642Y-81555785D02*
X144083500Y-81555785D01*
X144083500Y-80805785D01*
X144690642Y-81555785D02*
X144690642Y-80805785D01*
X145119214Y-81555785D02*
X144797785Y-81127214D01*
X145119214Y-80805785D02*
X144690642Y-81234357D01*
X141043500Y-81162928D02*
X141150642Y-81198642D01*
X141186357Y-81234357D01*
X141222071Y-81305785D01*
X141222071Y-81412928D01*
X141186357Y-81484357D01*
X141150642Y-81520071D01*
X141079214Y-81555785D01*
X140793500Y-81555785D01*
X140793500Y-80805785D01*
X141043500Y-80805785D01*
X141114928Y-80841500D01*
X141150642Y-80877214D01*
X141186357Y-80948642D01*
X141186357Y-81020071D01*
X141150642Y-81091500D01*
X141114928Y-81127214D01*
X141043500Y-81162928D01*
X140793500Y-81162928D01*
X141436357Y-80805785D02*
X141864928Y-80805785D01*
X141650642Y-81555785D02*
X141650642Y-80805785D01*
X142114928Y-81555785D02*
X142114928Y-80805785D01*
X142543500Y-81555785D01*
X142543500Y-80805785D01*
X122745571Y-87699500D02*
X122674142Y-87663785D01*
X122567000Y-87663785D01*
X122459857Y-87699500D01*
X122388428Y-87770928D01*
X122352714Y-87842357D01*
X122317000Y-87985214D01*
X122317000Y-88092357D01*
X122352714Y-88235214D01*
X122388428Y-88306642D01*
X122459857Y-88378071D01*
X122567000Y-88413785D01*
X122638428Y-88413785D01*
X122745571Y-88378071D01*
X122781285Y-88342357D01*
X122781285Y-88092357D01*
X122638428Y-88092357D01*
X123102714Y-88413785D02*
X123102714Y-87663785D01*
X123531285Y-88413785D01*
X123531285Y-87663785D01*
X123888428Y-88413785D02*
X123888428Y-87663785D01*
X124067000Y-87663785D01*
X124174142Y-87699500D01*
X124245571Y-87770928D01*
X124281285Y-87842357D01*
X124317000Y-87985214D01*
X124317000Y-88092357D01*
X124281285Y-88235214D01*
X124245571Y-88306642D01*
X124174142Y-88378071D01*
X124067000Y-88413785D01*
X123888428Y-88413785D01*
X122729642Y-85123785D02*
X122372500Y-85123785D01*
X122336785Y-85480928D01*
X122372500Y-85445214D01*
X122443928Y-85409500D01*
X122622500Y-85409500D01*
X122693928Y-85445214D01*
X122729642Y-85480928D01*
X122765357Y-85552357D01*
X122765357Y-85730928D01*
X122729642Y-85802357D01*
X122693928Y-85838071D01*
X122622500Y-85873785D01*
X122443928Y-85873785D01*
X122372500Y-85838071D01*
X122336785Y-85802357D01*
X122979642Y-85123785D02*
X123229642Y-85873785D01*
X123479642Y-85123785D01*
X122360642Y-83298071D02*
X122467785Y-83333785D01*
X122646357Y-83333785D01*
X122717785Y-83298071D01*
X122753500Y-83262357D01*
X122789214Y-83190928D01*
X122789214Y-83119500D01*
X122753500Y-83048071D01*
X122717785Y-83012357D01*
X122646357Y-82976642D01*
X122503500Y-82940928D01*
X122432071Y-82905214D01*
X122396357Y-82869500D01*
X122360642Y-82798071D01*
X122360642Y-82726642D01*
X122396357Y-82655214D01*
X122432071Y-82619500D01*
X122503500Y-82583785D01*
X122682071Y-82583785D01*
X122789214Y-82619500D01*
X123539214Y-83262357D02*
X123503500Y-83298071D01*
X123396357Y-83333785D01*
X123324928Y-83333785D01*
X123217785Y-83298071D01*
X123146357Y-83226642D01*
X123110642Y-83155214D01*
X123074928Y-83012357D01*
X123074928Y-82905214D01*
X123110642Y-82762357D01*
X123146357Y-82690928D01*
X123217785Y-82619500D01*
X123324928Y-82583785D01*
X123396357Y-82583785D01*
X123503500Y-82619500D01*
X123539214Y-82655214D01*
X124217785Y-83333785D02*
X123860642Y-83333785D01*
X123860642Y-82583785D01*
X122342785Y-80758071D02*
X122449928Y-80793785D01*
X122628500Y-80793785D01*
X122699928Y-80758071D01*
X122735642Y-80722357D01*
X122771357Y-80650928D01*
X122771357Y-80579500D01*
X122735642Y-80508071D01*
X122699928Y-80472357D01*
X122628500Y-80436642D01*
X122485642Y-80400928D01*
X122414214Y-80365214D01*
X122378500Y-80329500D01*
X122342785Y-80258071D01*
X122342785Y-80186642D01*
X122378500Y-80115214D01*
X122414214Y-80079500D01*
X122485642Y-80043785D01*
X122664214Y-80043785D01*
X122771357Y-80079500D01*
X123092785Y-80793785D02*
X123092785Y-80043785D01*
X123271357Y-80043785D01*
X123378500Y-80079500D01*
X123449928Y-80150928D01*
X123485642Y-80222357D01*
X123521357Y-80365214D01*
X123521357Y-80472357D01*
X123485642Y-80615214D01*
X123449928Y-80686642D01*
X123378500Y-80758071D01*
X123271357Y-80793785D01*
X123092785Y-80793785D01*
X123807071Y-80579500D02*
X124164214Y-80579500D01*
X123735642Y-80793785D02*
X123985642Y-80043785D01*
X124235642Y-80793785D01*
X148909785Y-85711071D02*
X149016928Y-85746785D01*
X149195500Y-85746785D01*
X149266928Y-85711071D01*
X149302642Y-85675357D01*
X149338357Y-85603928D01*
X149338357Y-85532500D01*
X149302642Y-85461071D01*
X149266928Y-85425357D01*
X149195500Y-85389642D01*
X149052642Y-85353928D01*
X148981214Y-85318214D01*
X148945500Y-85282500D01*
X148909785Y-85211071D01*
X148909785Y-85139642D01*
X148945500Y-85068214D01*
X148981214Y-85032500D01*
X149052642Y-84996785D01*
X149231214Y-84996785D01*
X149338357Y-85032500D01*
X149659785Y-84996785D02*
X149659785Y-85603928D01*
X149695500Y-85675357D01*
X149731214Y-85711071D01*
X149802642Y-85746785D01*
X149945500Y-85746785D01*
X150016928Y-85711071D01*
X150052642Y-85675357D01*
X150088357Y-85603928D01*
X150088357Y-84996785D01*
X150445500Y-85746785D02*
X150445500Y-84996785D01*
X150731214Y-84996785D01*
X150802642Y-85032500D01*
X150838357Y-85068214D01*
X150874071Y-85139642D01*
X150874071Y-85246785D01*
X150838357Y-85318214D01*
X150802642Y-85353928D01*
X150731214Y-85389642D01*
X150445500Y-85389642D01*
X151195500Y-85746785D02*
X151195500Y-84996785D01*
X151481214Y-84996785D01*
X151552642Y-85032500D01*
X151588357Y-85068214D01*
X151624071Y-85139642D01*
X151624071Y-85246785D01*
X151588357Y-85318214D01*
X151552642Y-85353928D01*
X151481214Y-85389642D01*
X151195500Y-85389642D01*
X152088357Y-84996785D02*
X152231214Y-84996785D01*
X152302642Y-85032500D01*
X152374071Y-85103928D01*
X152409785Y-85246785D01*
X152409785Y-85496785D01*
X152374071Y-85639642D01*
X152302642Y-85711071D01*
X152231214Y-85746785D01*
X152088357Y-85746785D01*
X152016928Y-85711071D01*
X151945500Y-85639642D01*
X151909785Y-85496785D01*
X151909785Y-85246785D01*
X151945500Y-85103928D01*
X152016928Y-85032500D01*
X152088357Y-84996785D01*
X153159785Y-85746785D02*
X152909785Y-85389642D01*
X152731214Y-85746785D02*
X152731214Y-84996785D01*
X153016928Y-84996785D01*
X153088357Y-85032500D01*
X153124071Y-85068214D01*
X153159785Y-85139642D01*
X153159785Y-85246785D01*
X153124071Y-85318214D01*
X153088357Y-85353928D01*
X153016928Y-85389642D01*
X152731214Y-85389642D01*
X153374071Y-84996785D02*
X153802642Y-84996785D01*
X153588357Y-85746785D02*
X153588357Y-84996785D01*
X129780285Y-95972380D02*
X129304095Y-95972380D01*
X129256476Y-96448571D01*
X129304095Y-96400952D01*
X129399333Y-96353333D01*
X129637428Y-96353333D01*
X129732666Y-96400952D01*
X129780285Y-96448571D01*
X129827904Y-96543809D01*
X129827904Y-96781904D01*
X129780285Y-96877142D01*
X129732666Y-96924761D01*
X129637428Y-96972380D01*
X129399333Y-96972380D01*
X129304095Y-96924761D01*
X129256476Y-96877142D01*
X130113619Y-95972380D02*
X130446952Y-96972380D01*
X130780285Y-95972380D01*
X129827904Y-93480000D02*
X129732666Y-93432380D01*
X129589809Y-93432380D01*
X129446952Y-93480000D01*
X129351714Y-93575238D01*
X129304095Y-93670476D01*
X129256476Y-93860952D01*
X129256476Y-94003809D01*
X129304095Y-94194285D01*
X129351714Y-94289523D01*
X129446952Y-94384761D01*
X129589809Y-94432380D01*
X129685047Y-94432380D01*
X129827904Y-94384761D01*
X129875523Y-94337142D01*
X129875523Y-94003809D01*
X129685047Y-94003809D01*
X130304095Y-94432380D02*
X130304095Y-93432380D01*
X130875523Y-94432380D01*
X130875523Y-93432380D01*
X131351714Y-94432380D02*
X131351714Y-93432380D01*
X131589809Y-93432380D01*
X131732666Y-93480000D01*
X131827904Y-93575238D01*
X131875523Y-93670476D01*
X131923142Y-93860952D01*
X131923142Y-94003809D01*
X131875523Y-94194285D01*
X131827904Y-94289523D01*
X131732666Y-94384761D01*
X131589809Y-94432380D01*
X131351714Y-94432380D01*
X129780285Y-91892380D02*
X129304095Y-91892380D01*
X129304095Y-90892380D01*
X130685047Y-91797142D02*
X130637428Y-91844761D01*
X130494571Y-91892380D01*
X130399333Y-91892380D01*
X130256476Y-91844761D01*
X130161238Y-91749523D01*
X130113619Y-91654285D01*
X130066000Y-91463809D01*
X130066000Y-91320952D01*
X130113619Y-91130476D01*
X130161238Y-91035238D01*
X130256476Y-90940000D01*
X130399333Y-90892380D01*
X130494571Y-90892380D01*
X130637428Y-90940000D01*
X130685047Y-90987619D01*
X131113619Y-91892380D02*
X131113619Y-90892380D01*
X131685047Y-91892380D02*
X131256476Y-91320952D01*
X131685047Y-90892380D02*
X131113619Y-91463809D01*
X129304095Y-89352380D02*
X129304095Y-88352380D01*
X129542190Y-88352380D01*
X129685047Y-88400000D01*
X129780285Y-88495238D01*
X129827904Y-88590476D01*
X129875523Y-88780952D01*
X129875523Y-88923809D01*
X129827904Y-89114285D01*
X129780285Y-89209523D01*
X129685047Y-89304761D01*
X129542190Y-89352380D01*
X129304095Y-89352380D01*
X130304095Y-89352380D02*
X130304095Y-88352380D01*
X130780285Y-89352380D02*
X130780285Y-88352380D01*
X131351714Y-89352380D01*
X131351714Y-88352380D01*
X129637428Y-86288571D02*
X129780285Y-86336190D01*
X129827904Y-86383809D01*
X129875523Y-86479047D01*
X129875523Y-86621904D01*
X129827904Y-86717142D01*
X129780285Y-86764761D01*
X129685047Y-86812380D01*
X129304095Y-86812380D01*
X129304095Y-85812380D01*
X129637428Y-85812380D01*
X129732666Y-85860000D01*
X129780285Y-85907619D01*
X129827904Y-86002857D01*
X129827904Y-86098095D01*
X129780285Y-86193333D01*
X129732666Y-86240952D01*
X129637428Y-86288571D01*
X129304095Y-86288571D01*
X130875523Y-86717142D02*
X130827904Y-86764761D01*
X130685047Y-86812380D01*
X130589809Y-86812380D01*
X130446952Y-86764761D01*
X130351714Y-86669523D01*
X130304095Y-86574285D01*
X130256476Y-86383809D01*
X130256476Y-86240952D01*
X130304095Y-86050476D01*
X130351714Y-85955238D01*
X130446952Y-85860000D01*
X130589809Y-85812380D01*
X130685047Y-85812380D01*
X130827904Y-85860000D01*
X130875523Y-85907619D01*
X131304095Y-86812380D02*
X131304095Y-85812380D01*
X131875523Y-86812380D02*
X131446952Y-86240952D01*
X131875523Y-85812380D02*
X131304095Y-86383809D01*
X129827904Y-83320000D02*
X129732666Y-83272380D01*
X129589809Y-83272380D01*
X129446952Y-83320000D01*
X129351714Y-83415238D01*
X129304095Y-83510476D01*
X129256476Y-83700952D01*
X129256476Y-83843809D01*
X129304095Y-84034285D01*
X129351714Y-84129523D01*
X129446952Y-84224761D01*
X129589809Y-84272380D01*
X129685047Y-84272380D01*
X129827904Y-84224761D01*
X129875523Y-84177142D01*
X129875523Y-83843809D01*
X129685047Y-83843809D01*
X130304095Y-84272380D02*
X130304095Y-83272380D01*
X130875523Y-84272380D01*
X130875523Y-83272380D01*
X131351714Y-84272380D02*
X131351714Y-83272380D01*
X131589809Y-83272380D01*
X131732666Y-83320000D01*
X131827904Y-83415238D01*
X131875523Y-83510476D01*
X131923142Y-83700952D01*
X131923142Y-83843809D01*
X131875523Y-84034285D01*
X131827904Y-84129523D01*
X131732666Y-84224761D01*
X131589809Y-84272380D01*
X131351714Y-84272380D01*
X135700333Y-89321166D02*
X136176523Y-89321166D01*
X135605095Y-89606880D02*
X135938428Y-88606880D01*
X136271761Y-89606880D01*
X136605095Y-88606880D02*
X136605095Y-89416404D01*
X136652714Y-89511642D01*
X136700333Y-89559261D01*
X136795571Y-89606880D01*
X136986047Y-89606880D01*
X137081285Y-89559261D01*
X137128904Y-89511642D01*
X137176523Y-89416404D01*
X137176523Y-88606880D01*
X137652714Y-89606880D02*
X137652714Y-88606880D01*
X137890809Y-88606880D01*
X138033666Y-88654500D01*
X138128904Y-88749738D01*
X138176523Y-88844976D01*
X138224142Y-89035452D01*
X138224142Y-89178309D01*
X138176523Y-89368785D01*
X138128904Y-89464023D01*
X138033666Y-89559261D01*
X137890809Y-89606880D01*
X137652714Y-89606880D01*
X138652714Y-89606880D02*
X138652714Y-88606880D01*
X139319380Y-88606880D02*
X139509857Y-88606880D01*
X139605095Y-88654500D01*
X139700333Y-88749738D01*
X139747952Y-88940214D01*
X139747952Y-89273547D01*
X139700333Y-89464023D01*
X139605095Y-89559261D01*
X139509857Y-89606880D01*
X139319380Y-89606880D01*
X139224142Y-89559261D01*
X139128904Y-89464023D01*
X139081285Y-89273547D01*
X139081285Y-88940214D01*
X139128904Y-88749738D01*
X139224142Y-88654500D01*
X139319380Y-88606880D01*
X140938428Y-89606880D02*
X140938428Y-88606880D01*
X141176523Y-88606880D01*
X141319380Y-88654500D01*
X141414619Y-88749738D01*
X141462238Y-88844976D01*
X141509857Y-89035452D01*
X141509857Y-89178309D01*
X141462238Y-89368785D01*
X141414619Y-89464023D01*
X141319380Y-89559261D01*
X141176523Y-89606880D01*
X140938428Y-89606880D01*
X141890809Y-89321166D02*
X142367000Y-89321166D01*
X141795571Y-89606880D02*
X142128904Y-88606880D01*
X142462238Y-89606880D01*
X143367000Y-89511642D02*
X143319380Y-89559261D01*
X143176523Y-89606880D01*
X143081285Y-89606880D01*
X142938428Y-89559261D01*
X142843190Y-89464023D01*
X142795571Y-89368785D01*
X142747952Y-89178309D01*
X142747952Y-89035452D01*
X142795571Y-88844976D01*
X142843190Y-88749738D01*
X142938428Y-88654500D01*
X143081285Y-88606880D01*
X143176523Y-88606880D01*
X143319380Y-88654500D01*
X143367000Y-88702119D01*
X144890809Y-89083071D02*
X145033666Y-89130690D01*
X145081285Y-89178309D01*
X145128904Y-89273547D01*
X145128904Y-89416404D01*
X145081285Y-89511642D01*
X145033666Y-89559261D01*
X144938428Y-89606880D01*
X144557476Y-89606880D01*
X144557476Y-88606880D01*
X144890809Y-88606880D01*
X144986047Y-88654500D01*
X145033666Y-88702119D01*
X145081285Y-88797357D01*
X145081285Y-88892595D01*
X145033666Y-88987833D01*
X144986047Y-89035452D01*
X144890809Y-89083071D01*
X144557476Y-89083071D01*
X145747952Y-88606880D02*
X145938428Y-88606880D01*
X146033666Y-88654500D01*
X146128904Y-88749738D01*
X146176523Y-88940214D01*
X146176523Y-89273547D01*
X146128904Y-89464023D01*
X146033666Y-89559261D01*
X145938428Y-89606880D01*
X145747952Y-89606880D01*
X145652714Y-89559261D01*
X145557476Y-89464023D01*
X145509857Y-89273547D01*
X145509857Y-88940214D01*
X145557476Y-88749738D01*
X145652714Y-88654500D01*
X145747952Y-88606880D01*
X146557476Y-89321166D02*
X147033666Y-89321166D01*
X146462238Y-89606880D02*
X146795571Y-88606880D01*
X147128904Y-89606880D01*
X148033666Y-89606880D02*
X147700333Y-89130690D01*
X147462238Y-89606880D02*
X147462238Y-88606880D01*
X147843190Y-88606880D01*
X147938428Y-88654500D01*
X147986047Y-88702119D01*
X148033666Y-88797357D01*
X148033666Y-88940214D01*
X147986047Y-89035452D01*
X147938428Y-89083071D01*
X147843190Y-89130690D01*
X147462238Y-89130690D01*
X148462238Y-89606880D02*
X148462238Y-88606880D01*
X148700333Y-88606880D01*
X148843190Y-88654500D01*
X148938428Y-88749738D01*
X148986047Y-88844976D01*
X149033666Y-89035452D01*
X149033666Y-89178309D01*
X148986047Y-89368785D01*
X148938428Y-89464023D01*
X148843190Y-89559261D01*
X148700333Y-89606880D01*
X148462238Y-89606880D01*
X138105095Y-90304500D02*
X138009857Y-90256880D01*
X137867000Y-90256880D01*
X137724142Y-90304500D01*
X137628904Y-90399738D01*
X137581285Y-90494976D01*
X137533666Y-90685452D01*
X137533666Y-90828309D01*
X137581285Y-91018785D01*
X137628904Y-91114023D01*
X137724142Y-91209261D01*
X137867000Y-91256880D01*
X137962238Y-91256880D01*
X138105095Y-91209261D01*
X138152714Y-91161642D01*
X138152714Y-90828309D01*
X137962238Y-90828309D01*
X138771761Y-90780690D02*
X138771761Y-91256880D01*
X138438428Y-90256880D02*
X138771761Y-90780690D01*
X139105095Y-90256880D01*
X139438428Y-90875928D02*
X140200333Y-90875928D01*
X140676523Y-91256880D02*
X140676523Y-90256880D01*
X141057476Y-90256880D01*
X141152714Y-90304500D01*
X141200333Y-90352119D01*
X141247952Y-90447357D01*
X141247952Y-90590214D01*
X141200333Y-90685452D01*
X141152714Y-90733071D01*
X141057476Y-90780690D01*
X140676523Y-90780690D01*
X142247952Y-91161642D02*
X142200333Y-91209261D01*
X142057476Y-91256880D01*
X141962238Y-91256880D01*
X141819380Y-91209261D01*
X141724142Y-91114023D01*
X141676523Y-91018785D01*
X141628904Y-90828309D01*
X141628904Y-90685452D01*
X141676523Y-90494976D01*
X141724142Y-90399738D01*
X141819380Y-90304500D01*
X141962238Y-90256880D01*
X142057476Y-90256880D01*
X142200333Y-90304500D01*
X142247952Y-90352119D01*
X142676523Y-91256880D02*
X142676523Y-90256880D01*
X143009857Y-90971166D01*
X143343190Y-90256880D01*
X143343190Y-91256880D01*
X144295571Y-90256880D02*
X143819380Y-90256880D01*
X143771761Y-90733071D01*
X143819380Y-90685452D01*
X143914619Y-90637833D01*
X144152714Y-90637833D01*
X144247952Y-90685452D01*
X144295571Y-90733071D01*
X144343190Y-90828309D01*
X144343190Y-91066404D01*
X144295571Y-91161642D01*
X144247952Y-91209261D01*
X144152714Y-91256880D01*
X143914619Y-91256880D01*
X143819380Y-91209261D01*
X143771761Y-91161642D01*
X145295571Y-91256880D02*
X144724142Y-91256880D01*
X145009857Y-91256880D02*
X145009857Y-90256880D01*
X144914619Y-90399738D01*
X144819380Y-90494976D01*
X144724142Y-90542595D01*
X145914619Y-90256880D02*
X146009857Y-90256880D01*
X146105095Y-90304500D01*
X146152714Y-90352119D01*
X146200333Y-90447357D01*
X146247952Y-90637833D01*
X146247952Y-90875928D01*
X146200333Y-91066404D01*
X146152714Y-91161642D01*
X146105095Y-91209261D01*
X146009857Y-91256880D01*
X145914619Y-91256880D01*
X145819380Y-91209261D01*
X145771761Y-91161642D01*
X145724142Y-91066404D01*
X145676523Y-90875928D01*
X145676523Y-90637833D01*
X145724142Y-90447357D01*
X145771761Y-90352119D01*
X145819380Y-90304500D01*
X145914619Y-90256880D01*
X146628904Y-90352119D02*
X146676523Y-90304500D01*
X146771761Y-90256880D01*
X147009857Y-90256880D01*
X147105095Y-90304500D01*
X147152714Y-90352119D01*
X147200333Y-90447357D01*
X147200333Y-90542595D01*
X147152714Y-90685452D01*
X146581285Y-91256880D01*
X147200333Y-91256880D01*
D11*
X125920500Y-82042000D02*
X158178500Y-82042000D01*
X158178500Y-82042000D02*
X158178500Y-98298000D01*
X158178500Y-98298000D02*
X125920500Y-98298000D01*
X125920500Y-98298000D02*
X125920500Y-82042000D01*
D10*
X138336285Y-76668261D02*
X138479142Y-76715880D01*
X138717238Y-76715880D01*
X138812476Y-76668261D01*
X138860095Y-76620642D01*
X138907714Y-76525404D01*
X138907714Y-76430166D01*
X138860095Y-76334928D01*
X138812476Y-76287309D01*
X138717238Y-76239690D01*
X138526761Y-76192071D01*
X138431523Y-76144452D01*
X138383904Y-76096833D01*
X138336285Y-76001595D01*
X138336285Y-75906357D01*
X138383904Y-75811119D01*
X138431523Y-75763500D01*
X138526761Y-75715880D01*
X138764857Y-75715880D01*
X138907714Y-75763500D01*
X139526761Y-75715880D02*
X139717238Y-75715880D01*
X139812476Y-75763500D01*
X139907714Y-75858738D01*
X139955333Y-76049214D01*
X139955333Y-76382547D01*
X139907714Y-76573023D01*
X139812476Y-76668261D01*
X139717238Y-76715880D01*
X139526761Y-76715880D01*
X139431523Y-76668261D01*
X139336285Y-76573023D01*
X139288666Y-76382547D01*
X139288666Y-76049214D01*
X139336285Y-75858738D01*
X139431523Y-75763500D01*
X139526761Y-75715880D01*
X140860095Y-76715880D02*
X140383904Y-76715880D01*
X140383904Y-75715880D01*
X141193428Y-76715880D02*
X141193428Y-75715880D01*
X141431523Y-75715880D01*
X141574380Y-75763500D01*
X141669619Y-75858738D01*
X141717238Y-75953976D01*
X141764857Y-76144452D01*
X141764857Y-76287309D01*
X141717238Y-76477785D01*
X141669619Y-76573023D01*
X141574380Y-76668261D01*
X141431523Y-76715880D01*
X141193428Y-76715880D01*
X142193428Y-76192071D02*
X142526761Y-76192071D01*
X142669619Y-76715880D02*
X142193428Y-76715880D01*
X142193428Y-75715880D01*
X142669619Y-75715880D01*
X143669619Y-76715880D02*
X143336285Y-76239690D01*
X143098190Y-76715880D02*
X143098190Y-75715880D01*
X143479142Y-75715880D01*
X143574380Y-75763500D01*
X143622000Y-75811119D01*
X143669619Y-75906357D01*
X143669619Y-76049214D01*
X143622000Y-76144452D01*
X143574380Y-76192071D01*
X143479142Y-76239690D01*
X143098190Y-76239690D01*
X144860095Y-76715880D02*
X144860095Y-75715880D01*
X145241047Y-75715880D01*
X145336285Y-75763500D01*
X145383904Y-75811119D01*
X145431523Y-75906357D01*
X145431523Y-76049214D01*
X145383904Y-76144452D01*
X145336285Y-76192071D01*
X145241047Y-76239690D01*
X144860095Y-76239690D01*
X145860095Y-76715880D02*
X145860095Y-75715880D01*
X147098190Y-76715880D02*
X147098190Y-75715880D01*
X147098190Y-76192071D02*
X147669619Y-76192071D01*
X147669619Y-76715880D02*
X147669619Y-75715880D01*
X148145809Y-76192071D02*
X148479142Y-76192071D01*
X148622000Y-76715880D02*
X148145809Y-76715880D01*
X148145809Y-75715880D01*
X148622000Y-75715880D01*
X149002952Y-76430166D02*
X149479142Y-76430166D01*
X148907714Y-76715880D02*
X149241047Y-75715880D01*
X149574380Y-76715880D01*
X149907714Y-76715880D02*
X149907714Y-75715880D01*
X150145809Y-75715880D01*
X150288666Y-75763500D01*
X150383904Y-75858738D01*
X150431523Y-75953976D01*
X150479142Y-76144452D01*
X150479142Y-76287309D01*
X150431523Y-76477785D01*
X150383904Y-76573023D01*
X150288666Y-76668261D01*
X150145809Y-76715880D01*
X149907714Y-76715880D01*
X150907714Y-76192071D02*
X151241047Y-76192071D01*
X151383904Y-76715880D02*
X150907714Y-76715880D01*
X150907714Y-75715880D01*
X151383904Y-75715880D01*
X152383904Y-76715880D02*
X152050571Y-76239690D01*
X151812476Y-76715880D02*
X151812476Y-75715880D01*
X152193428Y-75715880D01*
X152288666Y-75763500D01*
X152336285Y-75811119D01*
X152383904Y-75906357D01*
X152383904Y-76049214D01*
X152336285Y-76144452D01*
X152288666Y-76192071D01*
X152193428Y-76239690D01*
X151812476Y-76239690D01*
X153431523Y-75715880D02*
X154002952Y-75715880D01*
X153717238Y-76715880D02*
X153717238Y-75715880D01*
X154526761Y-75715880D02*
X154717238Y-75715880D01*
X154812476Y-75763500D01*
X154907714Y-75858738D01*
X154955333Y-76049214D01*
X154955333Y-76382547D01*
X154907714Y-76573023D01*
X154812476Y-76668261D01*
X154717238Y-76715880D01*
X154526761Y-76715880D01*
X154431523Y-76668261D01*
X154336285Y-76573023D01*
X154288666Y-76382547D01*
X154288666Y-76049214D01*
X154336285Y-75858738D01*
X154431523Y-75763500D01*
X154526761Y-75715880D01*
X156479142Y-76192071D02*
X156622000Y-76239690D01*
X156669619Y-76287309D01*
X156717238Y-76382547D01*
X156717238Y-76525404D01*
X156669619Y-76620642D01*
X156622000Y-76668261D01*
X156526761Y-76715880D01*
X156145809Y-76715880D01*
X156145809Y-75715880D01*
X156479142Y-75715880D01*
X156574380Y-75763500D01*
X156622000Y-75811119D01*
X156669619Y-75906357D01*
X156669619Y-76001595D01*
X156622000Y-76096833D01*
X156574380Y-76144452D01*
X156479142Y-76192071D01*
X156145809Y-76192071D01*
X157098190Y-76430166D02*
X157574380Y-76430166D01*
X157002952Y-76715880D02*
X157336285Y-75715880D01*
X157669619Y-76715880D01*
X158574380Y-76620642D02*
X158526761Y-76668261D01*
X158383904Y-76715880D01*
X158288666Y-76715880D01*
X158145809Y-76668261D01*
X158050571Y-76573023D01*
X158002952Y-76477785D01*
X157955333Y-76287309D01*
X157955333Y-76144452D01*
X158002952Y-75953976D01*
X158050571Y-75858738D01*
X158145809Y-75763500D01*
X158288666Y-75715880D01*
X158383904Y-75715880D01*
X158526761Y-75763500D01*
X158574380Y-75811119D01*
X159002952Y-76715880D02*
X159002952Y-75715880D01*
X159574380Y-76715880D02*
X159145809Y-76144452D01*
X159574380Y-75715880D02*
X159002952Y-76287309D01*
X159955333Y-76668261D02*
X160098190Y-76715880D01*
X160336285Y-76715880D01*
X160431523Y-76668261D01*
X160479142Y-76620642D01*
X160526761Y-76525404D01*
X160526761Y-76430166D01*
X160479142Y-76334928D01*
X160431523Y-76287309D01*
X160336285Y-76239690D01*
X160145809Y-76192071D01*
X160050571Y-76144452D01*
X160002952Y-76096833D01*
X159955333Y-76001595D01*
X159955333Y-75906357D01*
X160002952Y-75811119D01*
X160050571Y-75763500D01*
X160145809Y-75715880D01*
X160383904Y-75715880D01*
X160526761Y-75763500D01*
X160955333Y-76715880D02*
X160955333Y-75715880D01*
X161431523Y-76715880D02*
X161431523Y-75715880D01*
X161669619Y-75715880D01*
X161812476Y-75763500D01*
X161907714Y-75858738D01*
X161955333Y-75953976D01*
X162002952Y-76144452D01*
X162002952Y-76287309D01*
X161955333Y-76477785D01*
X161907714Y-76573023D01*
X161812476Y-76668261D01*
X161669619Y-76715880D01*
X161431523Y-76715880D01*
X162431523Y-76192071D02*
X162764857Y-76192071D01*
X162907714Y-76715880D02*
X162431523Y-76715880D01*
X162431523Y-75715880D01*
X162907714Y-75715880D01*
D12*
%TO.C,G\u002A\u002A\u002A*%
G36*
X154441374Y-94234023D02*
G01*
X154701922Y-94234670D01*
X154911719Y-94236075D01*
X155077140Y-94238528D01*
X155204560Y-94242320D01*
X155300354Y-94247741D01*
X155370895Y-94255082D01*
X155422559Y-94264633D01*
X155461720Y-94276685D01*
X155494754Y-94291528D01*
X155504827Y-94296784D01*
X155605075Y-94354268D01*
X155678732Y-94410936D01*
X155745842Y-94485348D01*
X155823569Y-94591930D01*
X155878092Y-94675528D01*
X155909782Y-94746679D01*
X155924751Y-94828337D01*
X155929110Y-94943458D01*
X155929263Y-94988925D01*
X155921633Y-95149369D01*
X155901751Y-95323310D01*
X155877410Y-95456494D01*
X155842635Y-95611753D01*
X155805790Y-95785877D01*
X155781276Y-95908327D01*
X155711347Y-96155922D01*
X155603035Y-96357232D01*
X155450371Y-96520575D01*
X155247389Y-96654269D01*
X155245322Y-96655359D01*
X155203624Y-96675656D01*
X155159168Y-96691699D01*
X155103960Y-96704121D01*
X155030007Y-96713555D01*
X154929315Y-96720635D01*
X154793892Y-96725995D01*
X154615743Y-96730267D01*
X154386875Y-96734085D01*
X154222288Y-96736416D01*
X153869714Y-96739237D01*
X153575922Y-96737023D01*
X153336377Y-96729534D01*
X153146544Y-96716526D01*
X153001886Y-96697758D01*
X152897867Y-96672989D01*
X152874246Y-96664485D01*
X152851651Y-96666007D01*
X152829848Y-96695247D01*
X152805838Y-96760610D01*
X152776622Y-96870503D01*
X152739201Y-97033332D01*
X152733587Y-97058784D01*
X152687684Y-97250845D01*
X152644175Y-97400809D01*
X152605506Y-97500894D01*
X152583541Y-97536154D01*
X152548903Y-97565352D01*
X152501529Y-97583982D01*
X152427768Y-97594283D01*
X152313969Y-97598494D01*
X152200325Y-97599013D01*
X152061211Y-97596639D01*
X151945256Y-97590626D01*
X151867554Y-97581984D01*
X151844375Y-97575201D01*
X151806901Y-97535782D01*
X151753016Y-97466629D01*
X151737503Y-97444989D01*
X151701968Y-97384939D01*
X151681475Y-97319462D01*
X151676176Y-97237000D01*
X151678266Y-97213901D01*
X152019000Y-97213901D01*
X152029631Y-97260140D01*
X152073264Y-97279182D01*
X152132212Y-97282000D01*
X152226347Y-97273337D01*
X152300725Y-97252319D01*
X152303976Y-97250663D01*
X152350895Y-97194595D01*
X152382713Y-97093856D01*
X152384411Y-97083976D01*
X152402275Y-96986093D01*
X152429153Y-96853119D01*
X152459615Y-96711797D01*
X152463461Y-96694625D01*
X152497857Y-96532990D01*
X152532474Y-96356115D01*
X152559078Y-96206613D01*
X152597527Y-95972602D01*
X152669925Y-96050680D01*
X152738304Y-96138002D01*
X152793002Y-96226760D01*
X152823023Y-96272504D01*
X152865162Y-96309426D01*
X152925752Y-96338324D01*
X153011129Y-96360000D01*
X153127628Y-96375254D01*
X153281582Y-96384884D01*
X153479327Y-96389691D01*
X153727196Y-96390476D01*
X154031526Y-96388037D01*
X154066875Y-96387629D01*
X154329018Y-96384307D01*
X154535674Y-96380834D01*
X154694853Y-96376577D01*
X154814566Y-96370903D01*
X154902824Y-96363180D01*
X154967637Y-96352774D01*
X155017016Y-96339054D01*
X155058971Y-96321387D01*
X155086818Y-96307079D01*
X155257502Y-96181860D01*
X155380561Y-96014702D01*
X155425939Y-95910066D01*
X155462654Y-95786136D01*
X155502073Y-95622116D01*
X155540779Y-95436202D01*
X155575357Y-95246591D01*
X155602389Y-95071477D01*
X155618459Y-94929057D01*
X155621409Y-94869000D01*
X155619623Y-94767407D01*
X155605793Y-94708353D01*
X155569925Y-94670907D01*
X155511500Y-94638861D01*
X155477537Y-94624429D01*
X155434894Y-94612710D01*
X155377062Y-94603426D01*
X155297536Y-94596300D01*
X155189808Y-94591055D01*
X155047371Y-94587414D01*
X154863719Y-94585100D01*
X154632344Y-94583835D01*
X154346741Y-94583342D01*
X154207468Y-94583299D01*
X153873752Y-94583607D01*
X153597110Y-94585140D01*
X153371115Y-94588766D01*
X153189341Y-94595356D01*
X153045362Y-94605777D01*
X152932752Y-94620899D01*
X152845086Y-94641590D01*
X152775936Y-94668719D01*
X152718879Y-94703155D01*
X152667487Y-94745767D01*
X152615334Y-94797424D01*
X152614056Y-94798744D01*
X152537893Y-94901599D01*
X152465498Y-95039691D01*
X152407121Y-95188783D01*
X152373006Y-95324641D01*
X152368250Y-95380113D01*
X152361712Y-95437969D01*
X152343995Y-95542090D01*
X152317939Y-95676808D01*
X152291763Y-95801802D01*
X152243673Y-96027346D01*
X152195932Y-96257699D01*
X152150365Y-96483410D01*
X152108798Y-96695029D01*
X152073057Y-96883105D01*
X152044967Y-97038187D01*
X152026353Y-97150827D01*
X152019042Y-97211573D01*
X152019000Y-97213901D01*
X151678266Y-97213901D01*
X151686223Y-97125998D01*
X151711768Y-96974896D01*
X151745894Y-96805750D01*
X151774670Y-96666620D01*
X151809966Y-96493511D01*
X151846022Y-96314747D01*
X151862107Y-96234250D01*
X151927543Y-95905474D01*
X151981865Y-95633056D01*
X152026421Y-95411089D01*
X152062558Y-95233663D01*
X152091623Y-95094872D01*
X152114962Y-94988808D01*
X152133924Y-94909563D01*
X152149855Y-94851230D01*
X152164102Y-94807900D01*
X152178012Y-94773666D01*
X152192933Y-94742620D01*
X152209704Y-94709849D01*
X152304290Y-94575193D01*
X152439875Y-94445936D01*
X152595226Y-94340103D01*
X152705073Y-94289354D01*
X152750105Y-94275196D01*
X152802843Y-94263632D01*
X152869802Y-94254407D01*
X152957498Y-94247265D01*
X153072446Y-94241952D01*
X153221162Y-94238214D01*
X153410163Y-94235794D01*
X153645963Y-94234437D01*
X153935079Y-94233890D01*
X154123702Y-94233842D01*
X154441374Y-94234023D01*
G37*
X154441374Y-94234023D02*
X154701922Y-94234670D01*
X154911719Y-94236075D01*
X155077140Y-94238528D01*
X155204560Y-94242320D01*
X155300354Y-94247741D01*
X155370895Y-94255082D01*
X155422559Y-94264633D01*
X155461720Y-94276685D01*
X155494754Y-94291528D01*
X155504827Y-94296784D01*
X155605075Y-94354268D01*
X155678732Y-94410936D01*
X155745842Y-94485348D01*
X155823569Y-94591930D01*
X155878092Y-94675528D01*
X155909782Y-94746679D01*
X155924751Y-94828337D01*
X155929110Y-94943458D01*
X155929263Y-94988925D01*
X155921633Y-95149369D01*
X155901751Y-95323310D01*
X155877410Y-95456494D01*
X155842635Y-95611753D01*
X155805790Y-95785877D01*
X155781276Y-95908327D01*
X155711347Y-96155922D01*
X155603035Y-96357232D01*
X155450371Y-96520575D01*
X155247389Y-96654269D01*
X155245322Y-96655359D01*
X155203624Y-96675656D01*
X155159168Y-96691699D01*
X155103960Y-96704121D01*
X155030007Y-96713555D01*
X154929315Y-96720635D01*
X154793892Y-96725995D01*
X154615743Y-96730267D01*
X154386875Y-96734085D01*
X154222288Y-96736416D01*
X153869714Y-96739237D01*
X153575922Y-96737023D01*
X153336377Y-96729534D01*
X153146544Y-96716526D01*
X153001886Y-96697758D01*
X152897867Y-96672989D01*
X152874246Y-96664485D01*
X152851651Y-96666007D01*
X152829848Y-96695247D01*
X152805838Y-96760610D01*
X152776622Y-96870503D01*
X152739201Y-97033332D01*
X152733587Y-97058784D01*
X152687684Y-97250845D01*
X152644175Y-97400809D01*
X152605506Y-97500894D01*
X152583541Y-97536154D01*
X152548903Y-97565352D01*
X152501529Y-97583982D01*
X152427768Y-97594283D01*
X152313969Y-97598494D01*
X152200325Y-97599013D01*
X152061211Y-97596639D01*
X151945256Y-97590626D01*
X151867554Y-97581984D01*
X151844375Y-97575201D01*
X151806901Y-97535782D01*
X151753016Y-97466629D01*
X151737503Y-97444989D01*
X151701968Y-97384939D01*
X151681475Y-97319462D01*
X151676176Y-97237000D01*
X151678266Y-97213901D01*
X152019000Y-97213901D01*
X152029631Y-97260140D01*
X152073264Y-97279182D01*
X152132212Y-97282000D01*
X152226347Y-97273337D01*
X152300725Y-97252319D01*
X152303976Y-97250663D01*
X152350895Y-97194595D01*
X152382713Y-97093856D01*
X152384411Y-97083976D01*
X152402275Y-96986093D01*
X152429153Y-96853119D01*
X152459615Y-96711797D01*
X152463461Y-96694625D01*
X152497857Y-96532990D01*
X152532474Y-96356115D01*
X152559078Y-96206613D01*
X152597527Y-95972602D01*
X152669925Y-96050680D01*
X152738304Y-96138002D01*
X152793002Y-96226760D01*
X152823023Y-96272504D01*
X152865162Y-96309426D01*
X152925752Y-96338324D01*
X153011129Y-96360000D01*
X153127628Y-96375254D01*
X153281582Y-96384884D01*
X153479327Y-96389691D01*
X153727196Y-96390476D01*
X154031526Y-96388037D01*
X154066875Y-96387629D01*
X154329018Y-96384307D01*
X154535674Y-96380834D01*
X154694853Y-96376577D01*
X154814566Y-96370903D01*
X154902824Y-96363180D01*
X154967637Y-96352774D01*
X155017016Y-96339054D01*
X155058971Y-96321387D01*
X155086818Y-96307079D01*
X155257502Y-96181860D01*
X155380561Y-96014702D01*
X155425939Y-95910066D01*
X155462654Y-95786136D01*
X155502073Y-95622116D01*
X155540779Y-95436202D01*
X155575357Y-95246591D01*
X155602389Y-95071477D01*
X155618459Y-94929057D01*
X155621409Y-94869000D01*
X155619623Y-94767407D01*
X155605793Y-94708353D01*
X155569925Y-94670907D01*
X155511500Y-94638861D01*
X155477537Y-94624429D01*
X155434894Y-94612710D01*
X155377062Y-94603426D01*
X155297536Y-94596300D01*
X155189808Y-94591055D01*
X155047371Y-94587414D01*
X154863719Y-94585100D01*
X154632344Y-94583835D01*
X154346741Y-94583342D01*
X154207468Y-94583299D01*
X153873752Y-94583607D01*
X153597110Y-94585140D01*
X153371115Y-94588766D01*
X153189341Y-94595356D01*
X153045362Y-94605777D01*
X152932752Y-94620899D01*
X152845086Y-94641590D01*
X152775936Y-94668719D01*
X152718879Y-94703155D01*
X152667487Y-94745767D01*
X152615334Y-94797424D01*
X152614056Y-94798744D01*
X152537893Y-94901599D01*
X152465498Y-95039691D01*
X152407121Y-95188783D01*
X152373006Y-95324641D01*
X152368250Y-95380113D01*
X152361712Y-95437969D01*
X152343995Y-95542090D01*
X152317939Y-95676808D01*
X152291763Y-95801802D01*
X152243673Y-96027346D01*
X152195932Y-96257699D01*
X152150365Y-96483410D01*
X152108798Y-96695029D01*
X152073057Y-96883105D01*
X152044967Y-97038187D01*
X152026353Y-97150827D01*
X152019042Y-97211573D01*
X152019000Y-97213901D01*
X151678266Y-97213901D01*
X151686223Y-97125998D01*
X151711768Y-96974896D01*
X151745894Y-96805750D01*
X151774670Y-96666620D01*
X151809966Y-96493511D01*
X151846022Y-96314747D01*
X151862107Y-96234250D01*
X151927543Y-95905474D01*
X151981865Y-95633056D01*
X152026421Y-95411089D01*
X152062558Y-95233663D01*
X152091623Y-95094872D01*
X152114962Y-94988808D01*
X152133924Y-94909563D01*
X152149855Y-94851230D01*
X152164102Y-94807900D01*
X152178012Y-94773666D01*
X152192933Y-94742620D01*
X152209704Y-94709849D01*
X152304290Y-94575193D01*
X152439875Y-94445936D01*
X152595226Y-94340103D01*
X152705073Y-94289354D01*
X152750105Y-94275196D01*
X152802843Y-94263632D01*
X152869802Y-94254407D01*
X152957498Y-94247265D01*
X153072446Y-94241952D01*
X153221162Y-94238214D01*
X153410163Y-94235794D01*
X153645963Y-94234437D01*
X153935079Y-94233890D01*
X154123702Y-94233842D01*
X154441374Y-94234023D01*
G36*
X151604948Y-96908937D02*
G01*
X151597268Y-96973962D01*
X151578219Y-97079221D01*
X151551723Y-97203316D01*
X151548219Y-97218500D01*
X151492792Y-97456625D01*
X142084309Y-97464615D01*
X132675827Y-97472605D01*
X132694812Y-97385240D01*
X132709511Y-97310108D01*
X132729891Y-97196664D01*
X132751575Y-97069295D01*
X132751841Y-97067687D01*
X132789884Y-96837500D01*
X151606250Y-96837500D01*
X151604948Y-96908937D01*
G37*
X151604948Y-96908937D02*
X151597268Y-96973962D01*
X151578219Y-97079221D01*
X151551723Y-97203316D01*
X151548219Y-97218500D01*
X151492792Y-97456625D01*
X142084309Y-97464615D01*
X132675827Y-97472605D01*
X132694812Y-97385240D01*
X132709511Y-97310108D01*
X132729891Y-97196664D01*
X132751575Y-97069295D01*
X132751841Y-97067687D01*
X132789884Y-96837500D01*
X151606250Y-96837500D01*
X151604948Y-96908937D01*
G36*
X154155713Y-96837656D02*
G01*
X154371557Y-96838392D01*
X154536878Y-96840111D01*
X154658166Y-96843214D01*
X154741908Y-96848102D01*
X154794595Y-96855177D01*
X154822715Y-96864841D01*
X154832756Y-96877496D01*
X154831207Y-96893543D01*
X154830410Y-96896162D01*
X154817853Y-96946872D01*
X154798036Y-97038209D01*
X154774642Y-97151756D01*
X154751356Y-97269092D01*
X154731861Y-97371800D01*
X154719843Y-97441459D01*
X154717750Y-97459417D01*
X154687293Y-97462695D01*
X154601098Y-97465671D01*
X154466924Y-97468241D01*
X154292532Y-97470297D01*
X154085684Y-97471733D01*
X153854139Y-97472443D01*
X153765250Y-97472500D01*
X153493836Y-97472285D01*
X153279290Y-97471382D01*
X153114983Y-97469406D01*
X152994283Y-97465968D01*
X152910559Y-97460682D01*
X152857182Y-97453162D01*
X152827519Y-97443020D01*
X152814942Y-97429870D01*
X152812725Y-97416937D01*
X152818679Y-97361123D01*
X152834526Y-97261825D01*
X152857210Y-97137723D01*
X152864695Y-97099437D01*
X152916689Y-96837500D01*
X153882859Y-96837500D01*
X154155713Y-96837656D01*
G37*
X154155713Y-96837656D02*
X154371557Y-96838392D01*
X154536878Y-96840111D01*
X154658166Y-96843214D01*
X154741908Y-96848102D01*
X154794595Y-96855177D01*
X154822715Y-96864841D01*
X154832756Y-96877496D01*
X154831207Y-96893543D01*
X154830410Y-96896162D01*
X154817853Y-96946872D01*
X154798036Y-97038209D01*
X154774642Y-97151756D01*
X154751356Y-97269092D01*
X154731861Y-97371800D01*
X154719843Y-97441459D01*
X154717750Y-97459417D01*
X154687293Y-97462695D01*
X154601098Y-97465671D01*
X154466924Y-97468241D01*
X154292532Y-97470297D01*
X154085684Y-97471733D01*
X153854139Y-97472443D01*
X153765250Y-97472500D01*
X153493836Y-97472285D01*
X153279290Y-97471382D01*
X153114983Y-97469406D01*
X152994283Y-97465968D01*
X152910559Y-97460682D01*
X152857182Y-97453162D01*
X152827519Y-97443020D01*
X152814942Y-97429870D01*
X152812725Y-97416937D01*
X152818679Y-97361123D01*
X152834526Y-97261825D01*
X152857210Y-97137723D01*
X152864695Y-97099437D01*
X152916689Y-96837500D01*
X153882859Y-96837500D01*
X154155713Y-96837656D01*
G36*
X155720318Y-96956562D02*
G01*
X155701391Y-97055431D01*
X155675780Y-97182261D01*
X155658239Y-97266125D01*
X155617709Y-97456625D01*
X155242875Y-97465606D01*
X154868042Y-97474588D01*
X154890238Y-97306856D01*
X154910567Y-97172776D01*
X154935443Y-97033923D01*
X154944723Y-96988312D01*
X154977011Y-96837500D01*
X155741865Y-96837500D01*
X155720318Y-96956562D01*
G37*
X155720318Y-96956562D02*
X155701391Y-97055431D01*
X155675780Y-97182261D01*
X155658239Y-97266125D01*
X155617709Y-97456625D01*
X155242875Y-97465606D01*
X154868042Y-97474588D01*
X154890238Y-97306856D01*
X154910567Y-97172776D01*
X154935443Y-97033923D01*
X154944723Y-96988312D01*
X154977011Y-96837500D01*
X155741865Y-96837500D01*
X155720318Y-96956562D01*
G36*
X156262645Y-96939072D02*
G01*
X156247545Y-97025914D01*
X156226791Y-97147026D01*
X156207924Y-97258187D01*
X156171731Y-97472500D01*
X155764749Y-97472500D01*
X155784950Y-97337562D01*
X155804120Y-97224861D01*
X155829954Y-97091283D01*
X155843279Y-97028000D01*
X155881408Y-96853375D01*
X156081290Y-96843822D01*
X156281172Y-96834270D01*
X156262645Y-96939072D01*
G37*
X156262645Y-96939072D02*
X156247545Y-97025914D01*
X156226791Y-97147026D01*
X156207924Y-97258187D01*
X156171731Y-97472500D01*
X155764749Y-97472500D01*
X155784950Y-97337562D01*
X155804120Y-97224861D01*
X155829954Y-97091283D01*
X155843279Y-97028000D01*
X155881408Y-96853375D01*
X156081290Y-96843822D01*
X156281172Y-96834270D01*
X156262645Y-96939072D01*
G36*
X156581875Y-96843672D02*
G01*
X156624093Y-96858830D01*
X156628493Y-96899348D01*
X156619413Y-96986474D01*
X156598773Y-97105212D01*
X156583132Y-97178812D01*
X156516813Y-97472500D01*
X156408508Y-97472500D01*
X156336361Y-97468656D01*
X156312283Y-97444630D01*
X156320861Y-97381678D01*
X156323649Y-97369312D01*
X156341526Y-97282266D01*
X156363969Y-97161800D01*
X156381734Y-97059750D01*
X156402328Y-96948660D01*
X156422845Y-96885601D01*
X156451916Y-96855700D01*
X156498170Y-96844088D01*
X156507555Y-96842955D01*
X156581875Y-96843672D01*
G37*
X156581875Y-96843672D02*
X156624093Y-96858830D01*
X156628493Y-96899348D01*
X156619413Y-96986474D01*
X156598773Y-97105212D01*
X156583132Y-97178812D01*
X156516813Y-97472500D01*
X156408508Y-97472500D01*
X156336361Y-97468656D01*
X156312283Y-97444630D01*
X156320861Y-97381678D01*
X156323649Y-97369312D01*
X156341526Y-97282266D01*
X156363969Y-97161800D01*
X156381734Y-97059750D01*
X156402328Y-96948660D01*
X156422845Y-96885601D01*
X156451916Y-96855700D01*
X156498170Y-96844088D01*
X156507555Y-96842955D01*
X156581875Y-96843672D01*
G36*
X156882580Y-96843005D02*
G01*
X156900132Y-96866266D01*
X156902523Y-96917401D01*
X156889723Y-97006529D01*
X156861704Y-97143769D01*
X156848829Y-97202625D01*
X156813675Y-97342502D01*
X156781114Y-97427051D01*
X156747878Y-97464176D01*
X156739524Y-97466890D01*
X156698243Y-97456140D01*
X156686250Y-97396355D01*
X156692976Y-97326300D01*
X156710708Y-97216830D01*
X156735772Y-97090309D01*
X156738772Y-97076527D01*
X156769247Y-96951252D01*
X156796188Y-96877409D01*
X156824917Y-96843549D01*
X156849897Y-96837500D01*
X156882580Y-96843005D01*
G37*
X156882580Y-96843005D02*
X156900132Y-96866266D01*
X156902523Y-96917401D01*
X156889723Y-97006529D01*
X156861704Y-97143769D01*
X156848829Y-97202625D01*
X156813675Y-97342502D01*
X156781114Y-97427051D01*
X156747878Y-97464176D01*
X156739524Y-97466890D01*
X156698243Y-97456140D01*
X156686250Y-97396355D01*
X156692976Y-97326300D01*
X156710708Y-97216830D01*
X156735772Y-97090309D01*
X156738772Y-97076527D01*
X156769247Y-96951252D01*
X156796188Y-96877409D01*
X156824917Y-96843549D01*
X156849897Y-96837500D01*
X156882580Y-96843005D01*
G36*
X156986816Y-93346429D02*
G01*
X157096082Y-93354643D01*
X157169929Y-93375528D01*
X157222392Y-93414972D01*
X157267511Y-93478861D01*
X157304030Y-93544607D01*
X157337196Y-93614191D01*
X157350300Y-93676165D01*
X157344947Y-93754299D01*
X157325331Y-93859772D01*
X157287612Y-94020492D01*
X157248171Y-94129387D01*
X157200625Y-94197964D01*
X157138593Y-94237727D01*
X157110220Y-94247579D01*
X157010316Y-94277034D01*
X157092154Y-94400699D01*
X157130437Y-94461085D01*
X157152439Y-94511693D01*
X157159902Y-94569780D01*
X157154566Y-94652601D01*
X157138169Y-94777409D01*
X157133486Y-94810556D01*
X157106266Y-94980967D01*
X157071791Y-95166719D01*
X157036927Y-95331130D01*
X157032490Y-95350010D01*
X156994008Y-95521509D01*
X156974737Y-95641944D01*
X156975439Y-95721011D01*
X156996879Y-95768406D01*
X157039818Y-95793826D01*
X157067999Y-95801012D01*
X157142429Y-95831586D01*
X157183950Y-95876418D01*
X157221339Y-95947329D01*
X157250893Y-95987382D01*
X157277041Y-96036867D01*
X157285248Y-96113455D01*
X157277222Y-96234102D01*
X157276448Y-96241382D01*
X157251179Y-96420894D01*
X157218020Y-96547361D01*
X157173333Y-96631094D01*
X157122885Y-96676805D01*
X157056415Y-96698891D01*
X156944955Y-96716518D01*
X156806934Y-96728435D01*
X156660782Y-96733391D01*
X156524928Y-96730134D01*
X156448125Y-96722630D01*
X156300106Y-96693267D01*
X156190861Y-96646461D01*
X156101489Y-96569357D01*
X156013094Y-96449101D01*
X155988417Y-96409954D01*
X155940937Y-96323505D01*
X155908073Y-96235377D01*
X155895642Y-96167385D01*
X156190707Y-96167385D01*
X156191908Y-96255431D01*
X156202363Y-96288230D01*
X156267631Y-96340308D01*
X156384270Y-96373709D01*
X156556576Y-96389474D01*
X156626799Y-96390987D01*
X156777059Y-96386502D01*
X156870779Y-96370429D01*
X156900234Y-96353312D01*
X156931258Y-96293057D01*
X156951477Y-96229795D01*
X156958150Y-96172029D01*
X156930809Y-96142750D01*
X156863048Y-96125627D01*
X156781394Y-96096233D01*
X156716169Y-96032979D01*
X156675933Y-95970996D01*
X156637536Y-95902522D01*
X156617019Y-95847513D01*
X156612812Y-95786578D01*
X156623343Y-95700329D01*
X156644495Y-95583039D01*
X156672005Y-95440691D01*
X156707678Y-95263500D01*
X156745992Y-95078634D01*
X156768379Y-94973351D01*
X156798724Y-94830946D01*
X156823389Y-94712533D01*
X156839692Y-94631167D01*
X156845000Y-94600288D01*
X156816437Y-94590536D01*
X156743461Y-94584371D01*
X156687367Y-94583250D01*
X156605362Y-94585867D01*
X156547563Y-94600588D01*
X156506637Y-94637719D01*
X156475252Y-94707562D01*
X156446076Y-94820423D01*
X156416256Y-94964250D01*
X156385488Y-95116036D01*
X156347576Y-95300781D01*
X156308520Y-95489319D01*
X156288871Y-95583375D01*
X156238788Y-95834620D01*
X156206201Y-96028202D01*
X156190707Y-96167385D01*
X155895642Y-96167385D01*
X155890054Y-96136824D01*
X155887111Y-96019099D01*
X155899473Y-95873455D01*
X155927370Y-95691148D01*
X155971031Y-95463431D01*
X156019310Y-95234125D01*
X156052537Y-95074940D01*
X156085311Y-94909430D01*
X156111616Y-94768174D01*
X156116174Y-94742000D01*
X156161889Y-94533618D01*
X156219040Y-94383284D01*
X156290094Y-94286180D01*
X156374217Y-94238411D01*
X156432950Y-94218100D01*
X156445493Y-94206081D01*
X156440187Y-94205113D01*
X156403224Y-94181409D01*
X156400500Y-94169214D01*
X156383164Y-94122771D01*
X156341088Y-94054932D01*
X156337631Y-94050151D01*
X156305654Y-94001316D01*
X156291267Y-93954622D01*
X156292600Y-93916500D01*
X156630770Y-93916500D01*
X156797681Y-93916500D01*
X156897365Y-93913101D01*
X156951309Y-93898402D01*
X156977110Y-93865646D01*
X156983738Y-93845062D01*
X157001925Y-93759286D01*
X156990178Y-93714084D01*
X156937293Y-93698329D01*
X156838224Y-93700528D01*
X156740907Y-93708728D01*
X156688881Y-93726045D01*
X156663965Y-93763475D01*
X156651734Y-93813312D01*
X156630770Y-93916500D01*
X156292600Y-93916500D01*
X156293490Y-93891081D01*
X156311347Y-93791706D01*
X156321756Y-93741886D01*
X156344874Y-93630234D01*
X156361649Y-93544790D01*
X156368706Y-93502789D01*
X156368750Y-93501811D01*
X156388141Y-93468296D01*
X156433486Y-93414486D01*
X156468620Y-93382942D01*
X156512458Y-93362654D01*
X156578812Y-93351189D01*
X156681495Y-93346115D01*
X156828093Y-93344999D01*
X156986816Y-93346429D01*
G37*
X156986816Y-93346429D02*
X157096082Y-93354643D01*
X157169929Y-93375528D01*
X157222392Y-93414972D01*
X157267511Y-93478861D01*
X157304030Y-93544607D01*
X157337196Y-93614191D01*
X157350300Y-93676165D01*
X157344947Y-93754299D01*
X157325331Y-93859772D01*
X157287612Y-94020492D01*
X157248171Y-94129387D01*
X157200625Y-94197964D01*
X157138593Y-94237727D01*
X157110220Y-94247579D01*
X157010316Y-94277034D01*
X157092154Y-94400699D01*
X157130437Y-94461085D01*
X157152439Y-94511693D01*
X157159902Y-94569780D01*
X157154566Y-94652601D01*
X157138169Y-94777409D01*
X157133486Y-94810556D01*
X157106266Y-94980967D01*
X157071791Y-95166719D01*
X157036927Y-95331130D01*
X157032490Y-95350010D01*
X156994008Y-95521509D01*
X156974737Y-95641944D01*
X156975439Y-95721011D01*
X156996879Y-95768406D01*
X157039818Y-95793826D01*
X157067999Y-95801012D01*
X157142429Y-95831586D01*
X157183950Y-95876418D01*
X157221339Y-95947329D01*
X157250893Y-95987382D01*
X157277041Y-96036867D01*
X157285248Y-96113455D01*
X157277222Y-96234102D01*
X157276448Y-96241382D01*
X157251179Y-96420894D01*
X157218020Y-96547361D01*
X157173333Y-96631094D01*
X157122885Y-96676805D01*
X157056415Y-96698891D01*
X156944955Y-96716518D01*
X156806934Y-96728435D01*
X156660782Y-96733391D01*
X156524928Y-96730134D01*
X156448125Y-96722630D01*
X156300106Y-96693267D01*
X156190861Y-96646461D01*
X156101489Y-96569357D01*
X156013094Y-96449101D01*
X155988417Y-96409954D01*
X155940937Y-96323505D01*
X155908073Y-96235377D01*
X155895642Y-96167385D01*
X156190707Y-96167385D01*
X156191908Y-96255431D01*
X156202363Y-96288230D01*
X156267631Y-96340308D01*
X156384270Y-96373709D01*
X156556576Y-96389474D01*
X156626799Y-96390987D01*
X156777059Y-96386502D01*
X156870779Y-96370429D01*
X156900234Y-96353312D01*
X156931258Y-96293057D01*
X156951477Y-96229795D01*
X156958150Y-96172029D01*
X156930809Y-96142750D01*
X156863048Y-96125627D01*
X156781394Y-96096233D01*
X156716169Y-96032979D01*
X156675933Y-95970996D01*
X156637536Y-95902522D01*
X156617019Y-95847513D01*
X156612812Y-95786578D01*
X156623343Y-95700329D01*
X156644495Y-95583039D01*
X156672005Y-95440691D01*
X156707678Y-95263500D01*
X156745992Y-95078634D01*
X156768379Y-94973351D01*
X156798724Y-94830946D01*
X156823389Y-94712533D01*
X156839692Y-94631167D01*
X156845000Y-94600288D01*
X156816437Y-94590536D01*
X156743461Y-94584371D01*
X156687367Y-94583250D01*
X156605362Y-94585867D01*
X156547563Y-94600588D01*
X156506637Y-94637719D01*
X156475252Y-94707562D01*
X156446076Y-94820423D01*
X156416256Y-94964250D01*
X156385488Y-95116036D01*
X156347576Y-95300781D01*
X156308520Y-95489319D01*
X156288871Y-95583375D01*
X156238788Y-95834620D01*
X156206201Y-96028202D01*
X156190707Y-96167385D01*
X155895642Y-96167385D01*
X155890054Y-96136824D01*
X155887111Y-96019099D01*
X155899473Y-95873455D01*
X155927370Y-95691148D01*
X155971031Y-95463431D01*
X156019310Y-95234125D01*
X156052537Y-95074940D01*
X156085311Y-94909430D01*
X156111616Y-94768174D01*
X156116174Y-94742000D01*
X156161889Y-94533618D01*
X156219040Y-94383284D01*
X156290094Y-94286180D01*
X156374217Y-94238411D01*
X156432950Y-94218100D01*
X156445493Y-94206081D01*
X156440187Y-94205113D01*
X156403224Y-94181409D01*
X156400500Y-94169214D01*
X156383164Y-94122771D01*
X156341088Y-94054932D01*
X156337631Y-94050151D01*
X156305654Y-94001316D01*
X156291267Y-93954622D01*
X156292600Y-93916500D01*
X156630770Y-93916500D01*
X156797681Y-93916500D01*
X156897365Y-93913101D01*
X156951309Y-93898402D01*
X156977110Y-93865646D01*
X156983738Y-93845062D01*
X157001925Y-93759286D01*
X156990178Y-93714084D01*
X156937293Y-93698329D01*
X156838224Y-93700528D01*
X156740907Y-93708728D01*
X156688881Y-93726045D01*
X156663965Y-93763475D01*
X156651734Y-93813312D01*
X156630770Y-93916500D01*
X156292600Y-93916500D01*
X156293490Y-93891081D01*
X156311347Y-93791706D01*
X156321756Y-93741886D01*
X156344874Y-93630234D01*
X156361649Y-93544790D01*
X156368706Y-93502789D01*
X156368750Y-93501811D01*
X156388141Y-93468296D01*
X156433486Y-93414486D01*
X156468620Y-93382942D01*
X156512458Y-93362654D01*
X156578812Y-93351189D01*
X156681495Y-93346115D01*
X156828093Y-93344999D01*
X156986816Y-93346429D01*
G36*
X134761643Y-94330330D02*
G01*
X134960379Y-94334521D01*
X135112938Y-94343250D01*
X135227969Y-94357944D01*
X135314123Y-94380028D01*
X135380049Y-94410928D01*
X135434398Y-94452072D01*
X135470372Y-94487932D01*
X135535988Y-94558363D01*
X135641556Y-94479941D01*
X135709105Y-94433514D01*
X135777440Y-94397650D01*
X135855720Y-94371009D01*
X135953104Y-94352250D01*
X136078751Y-94340036D01*
X136241817Y-94333027D01*
X136451462Y-94329883D01*
X136671970Y-94329250D01*
X136934014Y-94330327D01*
X137141017Y-94334685D01*
X137301419Y-94344009D01*
X137423659Y-94359988D01*
X137516176Y-94384307D01*
X137587409Y-94418654D01*
X137645799Y-94464716D01*
X137699784Y-94524179D01*
X137709914Y-94536723D01*
X137805456Y-94674273D01*
X137862983Y-94808122D01*
X137885345Y-94954313D01*
X137875388Y-95128891D01*
X137845680Y-95301667D01*
X137809767Y-95479083D01*
X137768201Y-95686921D01*
X137724990Y-95904910D01*
X137684144Y-96112777D01*
X137649672Y-96290249D01*
X137634409Y-96370047D01*
X137604495Y-96490321D01*
X137561081Y-96570532D01*
X137492527Y-96617772D01*
X137387195Y-96639130D01*
X137233447Y-96641700D01*
X137190685Y-96640403D01*
X137056855Y-96633468D01*
X136972385Y-96621956D01*
X136923143Y-96602469D01*
X136895000Y-96571611D01*
X136893471Y-96568965D01*
X136846225Y-96497484D01*
X136818687Y-96463510D01*
X136792420Y-96424816D01*
X136782308Y-96373966D01*
X136788753Y-96296852D01*
X136812160Y-96179364D01*
X136828882Y-96107250D01*
X136850080Y-96013662D01*
X136877805Y-95885355D01*
X136909390Y-95735386D01*
X136942169Y-95576813D01*
X136973475Y-95422694D01*
X137000641Y-95286088D01*
X137021003Y-95180053D01*
X137031892Y-95117646D01*
X137033000Y-95107646D01*
X137003031Y-95102081D01*
X136920249Y-95097326D01*
X136795338Y-95093728D01*
X136638983Y-95091637D01*
X136530534Y-95091250D01*
X136319478Y-95092344D01*
X136162494Y-95099127D01*
X136050158Y-95116848D01*
X135973043Y-95150759D01*
X135921723Y-95206109D01*
X135886773Y-95288148D01*
X135858766Y-95402127D01*
X135844268Y-95473503D01*
X135785454Y-95766375D01*
X135736856Y-96002965D01*
X135697040Y-96189414D01*
X135664569Y-96331861D01*
X135638008Y-96436446D01*
X135615920Y-96509310D01*
X135596871Y-96556592D01*
X135586814Y-96574462D01*
X135559588Y-96609828D01*
X135525048Y-96631249D01*
X135468855Y-96641518D01*
X135376667Y-96643426D01*
X135248925Y-96640234D01*
X135108252Y-96634025D01*
X135017671Y-96624168D01*
X134963776Y-96607713D01*
X134933162Y-96581711D01*
X134924987Y-96568965D01*
X134877232Y-96496952D01*
X134849334Y-96462657D01*
X134833073Y-96440082D01*
X134824021Y-96408977D01*
X134823186Y-96360475D01*
X134831579Y-96285708D01*
X134850211Y-96175809D01*
X134880092Y-96021910D01*
X134922231Y-95815146D01*
X134924192Y-95805625D01*
X134969329Y-95585871D01*
X135002925Y-95420217D01*
X135026383Y-95300593D01*
X135041103Y-95218932D01*
X135048486Y-95167166D01*
X135049935Y-95137225D01*
X135046850Y-95121043D01*
X135044043Y-95115586D01*
X135008644Y-95107037D01*
X134921273Y-95099801D01*
X134793449Y-95094457D01*
X134636695Y-95091583D01*
X134558907Y-95091250D01*
X134372818Y-95092081D01*
X134239027Y-95095412D01*
X134146348Y-95102497D01*
X134083591Y-95114592D01*
X134039569Y-95132951D01*
X134010633Y-95152746D01*
X133987210Y-95172516D01*
X133966990Y-95196052D01*
X133948086Y-95230233D01*
X133928608Y-95281937D01*
X133906669Y-95358044D01*
X133880379Y-95465432D01*
X133847850Y-95610981D01*
X133807194Y-95801569D01*
X133756523Y-96044075D01*
X133727271Y-96184876D01*
X133688173Y-96363414D01*
X133651181Y-96488836D01*
X133607050Y-96570508D01*
X133546538Y-96617791D01*
X133460402Y-96640049D01*
X133339398Y-96646646D01*
X133271075Y-96647000D01*
X133001650Y-96647000D01*
X132838542Y-96400526D01*
X132889117Y-96134825D01*
X132921079Y-95970371D01*
X132958820Y-95781239D01*
X132994859Y-95604851D01*
X132999329Y-95583375D01*
X133031901Y-95424161D01*
X133064677Y-95258789D01*
X133091614Y-95117855D01*
X133096363Y-95092030D01*
X133125900Y-94962853D01*
X133163773Y-94840590D01*
X133192928Y-94770460D01*
X133281600Y-94642765D01*
X133406259Y-94521165D01*
X133546200Y-94422843D01*
X133680722Y-94364981D01*
X133681822Y-94364702D01*
X133761288Y-94353044D01*
X133894152Y-94343236D01*
X134070329Y-94335713D01*
X134279733Y-94330907D01*
X134508079Y-94329249D01*
X134761643Y-94330330D01*
G37*
X134761643Y-94330330D02*
X134960379Y-94334521D01*
X135112938Y-94343250D01*
X135227969Y-94357944D01*
X135314123Y-94380028D01*
X135380049Y-94410928D01*
X135434398Y-94452072D01*
X135470372Y-94487932D01*
X135535988Y-94558363D01*
X135641556Y-94479941D01*
X135709105Y-94433514D01*
X135777440Y-94397650D01*
X135855720Y-94371009D01*
X135953104Y-94352250D01*
X136078751Y-94340036D01*
X136241817Y-94333027D01*
X136451462Y-94329883D01*
X136671970Y-94329250D01*
X136934014Y-94330327D01*
X137141017Y-94334685D01*
X137301419Y-94344009D01*
X137423659Y-94359988D01*
X137516176Y-94384307D01*
X137587409Y-94418654D01*
X137645799Y-94464716D01*
X137699784Y-94524179D01*
X137709914Y-94536723D01*
X137805456Y-94674273D01*
X137862983Y-94808122D01*
X137885345Y-94954313D01*
X137875388Y-95128891D01*
X137845680Y-95301667D01*
X137809767Y-95479083D01*
X137768201Y-95686921D01*
X137724990Y-95904910D01*
X137684144Y-96112777D01*
X137649672Y-96290249D01*
X137634409Y-96370047D01*
X137604495Y-96490321D01*
X137561081Y-96570532D01*
X137492527Y-96617772D01*
X137387195Y-96639130D01*
X137233447Y-96641700D01*
X137190685Y-96640403D01*
X137056855Y-96633468D01*
X136972385Y-96621956D01*
X136923143Y-96602469D01*
X136895000Y-96571611D01*
X136893471Y-96568965D01*
X136846225Y-96497484D01*
X136818687Y-96463510D01*
X136792420Y-96424816D01*
X136782308Y-96373966D01*
X136788753Y-96296852D01*
X136812160Y-96179364D01*
X136828882Y-96107250D01*
X136850080Y-96013662D01*
X136877805Y-95885355D01*
X136909390Y-95735386D01*
X136942169Y-95576813D01*
X136973475Y-95422694D01*
X137000641Y-95286088D01*
X137021003Y-95180053D01*
X137031892Y-95117646D01*
X137033000Y-95107646D01*
X137003031Y-95102081D01*
X136920249Y-95097326D01*
X136795338Y-95093728D01*
X136638983Y-95091637D01*
X136530534Y-95091250D01*
X136319478Y-95092344D01*
X136162494Y-95099127D01*
X136050158Y-95116848D01*
X135973043Y-95150759D01*
X135921723Y-95206109D01*
X135886773Y-95288148D01*
X135858766Y-95402127D01*
X135844268Y-95473503D01*
X135785454Y-95766375D01*
X135736856Y-96002965D01*
X135697040Y-96189414D01*
X135664569Y-96331861D01*
X135638008Y-96436446D01*
X135615920Y-96509310D01*
X135596871Y-96556592D01*
X135586814Y-96574462D01*
X135559588Y-96609828D01*
X135525048Y-96631249D01*
X135468855Y-96641518D01*
X135376667Y-96643426D01*
X135248925Y-96640234D01*
X135108252Y-96634025D01*
X135017671Y-96624168D01*
X134963776Y-96607713D01*
X134933162Y-96581711D01*
X134924987Y-96568965D01*
X134877232Y-96496952D01*
X134849334Y-96462657D01*
X134833073Y-96440082D01*
X134824021Y-96408977D01*
X134823186Y-96360475D01*
X134831579Y-96285708D01*
X134850211Y-96175809D01*
X134880092Y-96021910D01*
X134922231Y-95815146D01*
X134924192Y-95805625D01*
X134969329Y-95585871D01*
X135002925Y-95420217D01*
X135026383Y-95300593D01*
X135041103Y-95218932D01*
X135048486Y-95167166D01*
X135049935Y-95137225D01*
X135046850Y-95121043D01*
X135044043Y-95115586D01*
X135008644Y-95107037D01*
X134921273Y-95099801D01*
X134793449Y-95094457D01*
X134636695Y-95091583D01*
X134558907Y-95091250D01*
X134372818Y-95092081D01*
X134239027Y-95095412D01*
X134146348Y-95102497D01*
X134083591Y-95114592D01*
X134039569Y-95132951D01*
X134010633Y-95152746D01*
X133987210Y-95172516D01*
X133966990Y-95196052D01*
X133948086Y-95230233D01*
X133928608Y-95281937D01*
X133906669Y-95358044D01*
X133880379Y-95465432D01*
X133847850Y-95610981D01*
X133807194Y-95801569D01*
X133756523Y-96044075D01*
X133727271Y-96184876D01*
X133688173Y-96363414D01*
X133651181Y-96488836D01*
X133607050Y-96570508D01*
X133546538Y-96617791D01*
X133460402Y-96640049D01*
X133339398Y-96646646D01*
X133271075Y-96647000D01*
X133001650Y-96647000D01*
X132838542Y-96400526D01*
X132889117Y-96134825D01*
X132921079Y-95970371D01*
X132958820Y-95781239D01*
X132994859Y-95604851D01*
X132999329Y-95583375D01*
X133031901Y-95424161D01*
X133064677Y-95258789D01*
X133091614Y-95117855D01*
X133096363Y-95092030D01*
X133125900Y-94962853D01*
X133163773Y-94840590D01*
X133192928Y-94770460D01*
X133281600Y-94642765D01*
X133406259Y-94521165D01*
X133546200Y-94422843D01*
X133680722Y-94364981D01*
X133681822Y-94364702D01*
X133761288Y-94353044D01*
X133894152Y-94343236D01*
X134070329Y-94335713D01*
X134279733Y-94330907D01*
X134508079Y-94329249D01*
X134761643Y-94330330D01*
G36*
X139222878Y-93791680D02*
G01*
X139310788Y-93800705D01*
X139369884Y-93823941D01*
X139417509Y-93868269D01*
X139471005Y-93940568D01*
X139472020Y-93942013D01*
X139517316Y-94017513D01*
X139530561Y-94085579D01*
X139517517Y-94178777D01*
X139515557Y-94188076D01*
X139485447Y-94329250D01*
X140781071Y-94329250D01*
X140811250Y-94408625D01*
X140845931Y-94467572D01*
X140878373Y-94488000D01*
X140897764Y-94516042D01*
X140903407Y-94589093D01*
X140896878Y-94690536D01*
X140879751Y-94803757D01*
X140853603Y-94912139D01*
X140832472Y-94972224D01*
X140782740Y-95091250D01*
X139322890Y-95091250D01*
X139301542Y-95242062D01*
X139281738Y-95361149D01*
X139254232Y-95502126D01*
X139236566Y-95583375D01*
X139213282Y-95690851D01*
X139197270Y-95775837D01*
X139192469Y-95813562D01*
X139207214Y-95827811D01*
X139256052Y-95838468D01*
X139345309Y-95845931D01*
X139481313Y-95850599D01*
X139670390Y-95852870D01*
X139823231Y-95853250D01*
X140454463Y-95853250D01*
X140537606Y-95962256D01*
X140596589Y-96064801D01*
X140618457Y-96178929D01*
X140605011Y-96321713D01*
X140584974Y-96411709D01*
X140566474Y-96480147D01*
X140544575Y-96533832D01*
X140511951Y-96574549D01*
X140461281Y-96604080D01*
X140385242Y-96624208D01*
X140276511Y-96636716D01*
X140127765Y-96643387D01*
X139931681Y-96646004D01*
X139680937Y-96646350D01*
X139621497Y-96646302D01*
X139372026Y-96645679D01*
X139177396Y-96643916D01*
X139028951Y-96640438D01*
X138918036Y-96634670D01*
X138835993Y-96626036D01*
X138774167Y-96613961D01*
X138723902Y-96597869D01*
X138692335Y-96584533D01*
X138560884Y-96495701D01*
X138461751Y-96372014D01*
X138387775Y-96245137D01*
X138343528Y-96134903D01*
X138326297Y-96022365D01*
X138333371Y-95888573D01*
X138362035Y-95714581D01*
X138365249Y-95698001D01*
X138394138Y-95546107D01*
X138420761Y-95399214D01*
X138440904Y-95280832D01*
X138446578Y-95244175D01*
X138468326Y-95095475D01*
X138349191Y-95085425D01*
X138241708Y-95057109D01*
X138195090Y-95011875D01*
X138155176Y-94952208D01*
X138131468Y-94927632D01*
X138118674Y-94885957D01*
X138117451Y-94801889D01*
X138125802Y-94695066D01*
X138141725Y-94585127D01*
X138163221Y-94491711D01*
X138180419Y-94446848D01*
X138220694Y-94384597D01*
X138271241Y-94349254D01*
X138350095Y-94333427D01*
X138466092Y-94329736D01*
X138645059Y-94329250D01*
X138684836Y-94118443D01*
X138718888Y-93971318D01*
X138763253Y-93875616D01*
X138831098Y-93820632D01*
X138935593Y-93795658D01*
X139088812Y-93789986D01*
X139222878Y-93791680D01*
G37*
X139222878Y-93791680D02*
X139310788Y-93800705D01*
X139369884Y-93823941D01*
X139417509Y-93868269D01*
X139471005Y-93940568D01*
X139472020Y-93942013D01*
X139517316Y-94017513D01*
X139530561Y-94085579D01*
X139517517Y-94178777D01*
X139515557Y-94188076D01*
X139485447Y-94329250D01*
X140781071Y-94329250D01*
X140811250Y-94408625D01*
X140845931Y-94467572D01*
X140878373Y-94488000D01*
X140897764Y-94516042D01*
X140903407Y-94589093D01*
X140896878Y-94690536D01*
X140879751Y-94803757D01*
X140853603Y-94912139D01*
X140832472Y-94972224D01*
X140782740Y-95091250D01*
X139322890Y-95091250D01*
X139301542Y-95242062D01*
X139281738Y-95361149D01*
X139254232Y-95502126D01*
X139236566Y-95583375D01*
X139213282Y-95690851D01*
X139197270Y-95775837D01*
X139192469Y-95813562D01*
X139207214Y-95827811D01*
X139256052Y-95838468D01*
X139345309Y-95845931D01*
X139481313Y-95850599D01*
X139670390Y-95852870D01*
X139823231Y-95853250D01*
X140454463Y-95853250D01*
X140537606Y-95962256D01*
X140596589Y-96064801D01*
X140618457Y-96178929D01*
X140605011Y-96321713D01*
X140584974Y-96411709D01*
X140566474Y-96480147D01*
X140544575Y-96533832D01*
X140511951Y-96574549D01*
X140461281Y-96604080D01*
X140385242Y-96624208D01*
X140276511Y-96636716D01*
X140127765Y-96643387D01*
X139931681Y-96646004D01*
X139680937Y-96646350D01*
X139621497Y-96646302D01*
X139372026Y-96645679D01*
X139177396Y-96643916D01*
X139028951Y-96640438D01*
X138918036Y-96634670D01*
X138835993Y-96626036D01*
X138774167Y-96613961D01*
X138723902Y-96597869D01*
X138692335Y-96584533D01*
X138560884Y-96495701D01*
X138461751Y-96372014D01*
X138387775Y-96245137D01*
X138343528Y-96134903D01*
X138326297Y-96022365D01*
X138333371Y-95888573D01*
X138362035Y-95714581D01*
X138365249Y-95698001D01*
X138394138Y-95546107D01*
X138420761Y-95399214D01*
X138440904Y-95280832D01*
X138446578Y-95244175D01*
X138468326Y-95095475D01*
X138349191Y-95085425D01*
X138241708Y-95057109D01*
X138195090Y-95011875D01*
X138155176Y-94952208D01*
X138131468Y-94927632D01*
X138118674Y-94885957D01*
X138117451Y-94801889D01*
X138125802Y-94695066D01*
X138141725Y-94585127D01*
X138163221Y-94491711D01*
X138180419Y-94446848D01*
X138220694Y-94384597D01*
X138271241Y-94349254D01*
X138350095Y-94333427D01*
X138466092Y-94329736D01*
X138645059Y-94329250D01*
X138684836Y-94118443D01*
X138718888Y-93971318D01*
X138763253Y-93875616D01*
X138831098Y-93820632D01*
X138935593Y-93795658D01*
X139088812Y-93789986D01*
X139222878Y-93791680D01*
G36*
X142647825Y-93567244D02*
G01*
X143019868Y-93567668D01*
X143157094Y-93567745D01*
X143578028Y-93568020D01*
X143940395Y-93569084D01*
X144249127Y-93571688D01*
X144509155Y-93576582D01*
X144725413Y-93584516D01*
X144902833Y-93596240D01*
X145046346Y-93612504D01*
X145160886Y-93634057D01*
X145251385Y-93661650D01*
X145322774Y-93696033D01*
X145379987Y-93737955D01*
X145427956Y-93788167D01*
X145471612Y-93847419D01*
X145515889Y-93916460D01*
X145522723Y-93927439D01*
X145585303Y-94049107D01*
X145611194Y-94167548D01*
X145613859Y-94241882D01*
X145595055Y-94449271D01*
X145544411Y-94651027D01*
X145467948Y-94833078D01*
X145371684Y-94981352D01*
X145261641Y-95081775D01*
X145252135Y-95087486D01*
X145168646Y-95135646D01*
X145279348Y-95296010D01*
X145337576Y-95384592D01*
X145369264Y-95453751D01*
X145380597Y-95528298D01*
X145377763Y-95633043D01*
X145374763Y-95678625D01*
X145332544Y-95948825D01*
X145247001Y-96178484D01*
X145120087Y-96364379D01*
X144953754Y-96503288D01*
X144839993Y-96561054D01*
X144803004Y-96575711D01*
X144765783Y-96588193D01*
X144723113Y-96598700D01*
X144669777Y-96607431D01*
X144600558Y-96614585D01*
X144510240Y-96620363D01*
X144393605Y-96624964D01*
X144245438Y-96628588D01*
X144060520Y-96631433D01*
X143833635Y-96633700D01*
X143559567Y-96635588D01*
X143233098Y-96637296D01*
X142849012Y-96639025D01*
X142795625Y-96639257D01*
X142456106Y-96640333D01*
X142135310Y-96640576D01*
X141838899Y-96640036D01*
X141572535Y-96638759D01*
X141341881Y-96636792D01*
X141152598Y-96634182D01*
X141010350Y-96630977D01*
X140920799Y-96627224D01*
X140889891Y-96623382D01*
X140800441Y-96519124D01*
X140760305Y-96375847D01*
X140763532Y-96238436D01*
X140792585Y-96066906D01*
X140832828Y-95949720D01*
X140888859Y-95878068D01*
X140965277Y-95843135D01*
X140970391Y-95842059D01*
X141021505Y-95838074D01*
X141129707Y-95834344D01*
X141288588Y-95830944D01*
X141491736Y-95827950D01*
X141732741Y-95825436D01*
X142005192Y-95823479D01*
X142302678Y-95822154D01*
X142618788Y-95821536D01*
X142716701Y-95821500D01*
X143083529Y-95821375D01*
X143392125Y-95820887D01*
X143647757Y-95819864D01*
X143855691Y-95818135D01*
X144021195Y-95815529D01*
X144149537Y-95811875D01*
X144245983Y-95807001D01*
X144315803Y-95800736D01*
X144364262Y-95792908D01*
X144396629Y-95783348D01*
X144418171Y-95771883D01*
X144425878Y-95765937D01*
X144483747Y-95691769D01*
X144512213Y-95623062D01*
X144532883Y-95535750D01*
X143086883Y-95535750D01*
X142748090Y-95535067D01*
X142441781Y-95533087D01*
X142172863Y-95529909D01*
X141946238Y-95525631D01*
X141766812Y-95520353D01*
X141639487Y-95514176D01*
X141569169Y-95507197D01*
X141559441Y-95504785D01*
X141499433Y-95467470D01*
X141478000Y-95429298D01*
X141455567Y-95372942D01*
X141430375Y-95345250D01*
X141396104Y-95297109D01*
X141384920Y-95221136D01*
X141396406Y-95105587D01*
X141417849Y-94994213D01*
X141430910Y-94928495D01*
X141443073Y-94873744D01*
X141459828Y-94828964D01*
X141486667Y-94793156D01*
X141529081Y-94765326D01*
X141592561Y-94744475D01*
X141682599Y-94729607D01*
X141804686Y-94719725D01*
X141964313Y-94713832D01*
X142166972Y-94710932D01*
X142418153Y-94710028D01*
X142723348Y-94710123D01*
X142982156Y-94710249D01*
X143278920Y-94709801D01*
X143558980Y-94708518D01*
X143815327Y-94706494D01*
X144040954Y-94703824D01*
X144228854Y-94700602D01*
X144372020Y-94696921D01*
X144463442Y-94692877D01*
X144492431Y-94689976D01*
X144596718Y-94641081D01*
X144671078Y-94539817D01*
X144699458Y-94464187D01*
X144720779Y-94392750D01*
X143065552Y-94392750D01*
X142646359Y-94392102D01*
X142283549Y-94390172D01*
X141978259Y-94386983D01*
X141731626Y-94382556D01*
X141544788Y-94376913D01*
X141418881Y-94370076D01*
X141355042Y-94362066D01*
X141348912Y-94359882D01*
X141299411Y-94314326D01*
X141287500Y-94280507D01*
X141271156Y-94238961D01*
X141257889Y-94234000D01*
X141220684Y-94205011D01*
X141205587Y-94121513D01*
X141213100Y-93988708D01*
X141225953Y-93902786D01*
X141236811Y-93832519D01*
X141246231Y-93772760D01*
X141259082Y-93722663D01*
X141280236Y-93681383D01*
X141314563Y-93648077D01*
X141366933Y-93621898D01*
X141442215Y-93602002D01*
X141545282Y-93587543D01*
X141681002Y-93577678D01*
X141854246Y-93571560D01*
X142069884Y-93568345D01*
X142332787Y-93567188D01*
X142647825Y-93567244D01*
G37*
X142647825Y-93567244D02*
X143019868Y-93567668D01*
X143157094Y-93567745D01*
X143578028Y-93568020D01*
X143940395Y-93569084D01*
X144249127Y-93571688D01*
X144509155Y-93576582D01*
X144725413Y-93584516D01*
X144902833Y-93596240D01*
X145046346Y-93612504D01*
X145160886Y-93634057D01*
X145251385Y-93661650D01*
X145322774Y-93696033D01*
X145379987Y-93737955D01*
X145427956Y-93788167D01*
X145471612Y-93847419D01*
X145515889Y-93916460D01*
X145522723Y-93927439D01*
X145585303Y-94049107D01*
X145611194Y-94167548D01*
X145613859Y-94241882D01*
X145595055Y-94449271D01*
X145544411Y-94651027D01*
X145467948Y-94833078D01*
X145371684Y-94981352D01*
X145261641Y-95081775D01*
X145252135Y-95087486D01*
X145168646Y-95135646D01*
X145279348Y-95296010D01*
X145337576Y-95384592D01*
X145369264Y-95453751D01*
X145380597Y-95528298D01*
X145377763Y-95633043D01*
X145374763Y-95678625D01*
X145332544Y-95948825D01*
X145247001Y-96178484D01*
X145120087Y-96364379D01*
X144953754Y-96503288D01*
X144839993Y-96561054D01*
X144803004Y-96575711D01*
X144765783Y-96588193D01*
X144723113Y-96598700D01*
X144669777Y-96607431D01*
X144600558Y-96614585D01*
X144510240Y-96620363D01*
X144393605Y-96624964D01*
X144245438Y-96628588D01*
X144060520Y-96631433D01*
X143833635Y-96633700D01*
X143559567Y-96635588D01*
X143233098Y-96637296D01*
X142849012Y-96639025D01*
X142795625Y-96639257D01*
X142456106Y-96640333D01*
X142135310Y-96640576D01*
X141838899Y-96640036D01*
X141572535Y-96638759D01*
X141341881Y-96636792D01*
X141152598Y-96634182D01*
X141010350Y-96630977D01*
X140920799Y-96627224D01*
X140889891Y-96623382D01*
X140800441Y-96519124D01*
X140760305Y-96375847D01*
X140763532Y-96238436D01*
X140792585Y-96066906D01*
X140832828Y-95949720D01*
X140888859Y-95878068D01*
X140965277Y-95843135D01*
X140970391Y-95842059D01*
X141021505Y-95838074D01*
X141129707Y-95834344D01*
X141288588Y-95830944D01*
X141491736Y-95827950D01*
X141732741Y-95825436D01*
X142005192Y-95823479D01*
X142302678Y-95822154D01*
X142618788Y-95821536D01*
X142716701Y-95821500D01*
X143083529Y-95821375D01*
X143392125Y-95820887D01*
X143647757Y-95819864D01*
X143855691Y-95818135D01*
X144021195Y-95815529D01*
X144149537Y-95811875D01*
X144245983Y-95807001D01*
X144315803Y-95800736D01*
X144364262Y-95792908D01*
X144396629Y-95783348D01*
X144418171Y-95771883D01*
X144425878Y-95765937D01*
X144483747Y-95691769D01*
X144512213Y-95623062D01*
X144532883Y-95535750D01*
X143086883Y-95535750D01*
X142748090Y-95535067D01*
X142441781Y-95533087D01*
X142172863Y-95529909D01*
X141946238Y-95525631D01*
X141766812Y-95520353D01*
X141639487Y-95514176D01*
X141569169Y-95507197D01*
X141559441Y-95504785D01*
X141499433Y-95467470D01*
X141478000Y-95429298D01*
X141455567Y-95372942D01*
X141430375Y-95345250D01*
X141396104Y-95297109D01*
X141384920Y-95221136D01*
X141396406Y-95105587D01*
X141417849Y-94994213D01*
X141430910Y-94928495D01*
X141443073Y-94873744D01*
X141459828Y-94828964D01*
X141486667Y-94793156D01*
X141529081Y-94765326D01*
X141592561Y-94744475D01*
X141682599Y-94729607D01*
X141804686Y-94719725D01*
X141964313Y-94713832D01*
X142166972Y-94710932D01*
X142418153Y-94710028D01*
X142723348Y-94710123D01*
X142982156Y-94710249D01*
X143278920Y-94709801D01*
X143558980Y-94708518D01*
X143815327Y-94706494D01*
X144040954Y-94703824D01*
X144228854Y-94700602D01*
X144372020Y-94696921D01*
X144463442Y-94692877D01*
X144492431Y-94689976D01*
X144596718Y-94641081D01*
X144671078Y-94539817D01*
X144699458Y-94464187D01*
X144720779Y-94392750D01*
X143065552Y-94392750D01*
X142646359Y-94392102D01*
X142283549Y-94390172D01*
X141978259Y-94386983D01*
X141731626Y-94382556D01*
X141544788Y-94376913D01*
X141418881Y-94370076D01*
X141355042Y-94362066D01*
X141348912Y-94359882D01*
X141299411Y-94314326D01*
X141287500Y-94280507D01*
X141271156Y-94238961D01*
X141257889Y-94234000D01*
X141220684Y-94205011D01*
X141205587Y-94121513D01*
X141213100Y-93988708D01*
X141225953Y-93902786D01*
X141236811Y-93832519D01*
X141246231Y-93772760D01*
X141259082Y-93722663D01*
X141280236Y-93681383D01*
X141314563Y-93648077D01*
X141366933Y-93621898D01*
X141442215Y-93602002D01*
X141545282Y-93587543D01*
X141681002Y-93577678D01*
X141854246Y-93571560D01*
X142069884Y-93568345D01*
X142332787Y-93567188D01*
X142647825Y-93567244D01*
G36*
X147392234Y-93570323D02*
G01*
X147759928Y-93572613D01*
X147953214Y-93573716D01*
X149717125Y-93583125D01*
X149868206Y-93657525D01*
X149994004Y-93739653D01*
X150102505Y-93859634D01*
X150135436Y-93906908D01*
X150201755Y-94015297D01*
X150236723Y-94103016D01*
X150249501Y-94198292D01*
X150250412Y-94261133D01*
X150236946Y-94427502D01*
X150202310Y-94619261D01*
X150152282Y-94813621D01*
X150092641Y-94987793D01*
X150035521Y-95108459D01*
X149916162Y-95258582D01*
X149748084Y-95380602D01*
X149574250Y-95461320D01*
X149534306Y-95474520D01*
X149484989Y-95485604D01*
X149420397Y-95494822D01*
X149334626Y-95502422D01*
X149221774Y-95508654D01*
X149075938Y-95513767D01*
X148891216Y-95518010D01*
X148661705Y-95521633D01*
X148381501Y-95524884D01*
X148044702Y-95528013D01*
X147981475Y-95528550D01*
X147631802Y-95531425D01*
X147340183Y-95534130D01*
X147101178Y-95537377D01*
X146909348Y-95541881D01*
X146759252Y-95548354D01*
X146645452Y-95557512D01*
X146562507Y-95570066D01*
X146504978Y-95586733D01*
X146467425Y-95608224D01*
X146444408Y-95635253D01*
X146430487Y-95668536D01*
X146420223Y-95708784D01*
X146414156Y-95734187D01*
X146392366Y-95821500D01*
X147997116Y-95821500D01*
X148314251Y-95822059D01*
X148613252Y-95823664D01*
X148887816Y-95826207D01*
X149131641Y-95829581D01*
X149338424Y-95833675D01*
X149501862Y-95838383D01*
X149615653Y-95843597D01*
X149673493Y-95849207D01*
X149677759Y-95850354D01*
X149749071Y-95897422D01*
X149812141Y-95968474D01*
X149841563Y-96021477D01*
X149854994Y-96077447D01*
X149853828Y-96155280D01*
X149839462Y-96273873D01*
X149836324Y-96295868D01*
X149828285Y-96364526D01*
X149822409Y-96423670D01*
X149814229Y-96474005D01*
X149799276Y-96516235D01*
X149773082Y-96551063D01*
X149731178Y-96579193D01*
X149669095Y-96601331D01*
X149582365Y-96618179D01*
X149466521Y-96630442D01*
X149317093Y-96638824D01*
X149129613Y-96644029D01*
X148899612Y-96646761D01*
X148622623Y-96647724D01*
X148294177Y-96647623D01*
X147909805Y-96647161D01*
X147607872Y-96647000D01*
X145553279Y-96647000D01*
X145466254Y-96514079D01*
X145379228Y-96381159D01*
X145458660Y-96014017D01*
X145492428Y-95854612D01*
X145522936Y-95704585D01*
X145546483Y-95582486D01*
X145558145Y-95515289D01*
X145595543Y-95369250D01*
X145659581Y-95214178D01*
X145739588Y-95070700D01*
X145824890Y-94959444D01*
X145864133Y-94923882D01*
X145922518Y-94879957D01*
X145975279Y-94843134D01*
X146028411Y-94812722D01*
X146087912Y-94788027D01*
X146159779Y-94768359D01*
X146250009Y-94753024D01*
X146364600Y-94741331D01*
X146509548Y-94732588D01*
X146690852Y-94726103D01*
X146914507Y-94721182D01*
X147186511Y-94717136D01*
X147512862Y-94713270D01*
X147708099Y-94711079D01*
X148053746Y-94707096D01*
X148341485Y-94703434D01*
X148576907Y-94699802D01*
X148765601Y-94695910D01*
X148913157Y-94691469D01*
X149025165Y-94686187D01*
X149107215Y-94679775D01*
X149164895Y-94671944D01*
X149203797Y-94662402D01*
X149229510Y-94650860D01*
X149247623Y-94637029D01*
X149253910Y-94630875D01*
X149309990Y-94549592D01*
X149337565Y-94480062D01*
X149358883Y-94392750D01*
X147765854Y-94392750D01*
X147356429Y-94392076D01*
X147002697Y-94390073D01*
X146705932Y-94386765D01*
X146467406Y-94382178D01*
X146288392Y-94376336D01*
X146170164Y-94369266D01*
X146113993Y-94360993D01*
X146111412Y-94359882D01*
X146061911Y-94314326D01*
X146050000Y-94280507D01*
X146033656Y-94238961D01*
X146020389Y-94234000D01*
X145983184Y-94205011D01*
X145968087Y-94121513D01*
X145975600Y-93988708D01*
X145988453Y-93902786D01*
X145999318Y-93832311D01*
X146008672Y-93772283D01*
X146021341Y-93721894D01*
X146042153Y-93680336D01*
X146075933Y-93646801D01*
X146127508Y-93620480D01*
X146201706Y-93600565D01*
X146303351Y-93586247D01*
X146437271Y-93576718D01*
X146608293Y-93571169D01*
X146821243Y-93568793D01*
X147080948Y-93568780D01*
X147392234Y-93570323D01*
G37*
X147392234Y-93570323D02*
X147759928Y-93572613D01*
X147953214Y-93573716D01*
X149717125Y-93583125D01*
X149868206Y-93657525D01*
X149994004Y-93739653D01*
X150102505Y-93859634D01*
X150135436Y-93906908D01*
X150201755Y-94015297D01*
X150236723Y-94103016D01*
X150249501Y-94198292D01*
X150250412Y-94261133D01*
X150236946Y-94427502D01*
X150202310Y-94619261D01*
X150152282Y-94813621D01*
X150092641Y-94987793D01*
X150035521Y-95108459D01*
X149916162Y-95258582D01*
X149748084Y-95380602D01*
X149574250Y-95461320D01*
X149534306Y-95474520D01*
X149484989Y-95485604D01*
X149420397Y-95494822D01*
X149334626Y-95502422D01*
X149221774Y-95508654D01*
X149075938Y-95513767D01*
X148891216Y-95518010D01*
X148661705Y-95521633D01*
X148381501Y-95524884D01*
X148044702Y-95528013D01*
X147981475Y-95528550D01*
X147631802Y-95531425D01*
X147340183Y-95534130D01*
X147101178Y-95537377D01*
X146909348Y-95541881D01*
X146759252Y-95548354D01*
X146645452Y-95557512D01*
X146562507Y-95570066D01*
X146504978Y-95586733D01*
X146467425Y-95608224D01*
X146444408Y-95635253D01*
X146430487Y-95668536D01*
X146420223Y-95708784D01*
X146414156Y-95734187D01*
X146392366Y-95821500D01*
X147997116Y-95821500D01*
X148314251Y-95822059D01*
X148613252Y-95823664D01*
X148887816Y-95826207D01*
X149131641Y-95829581D01*
X149338424Y-95833675D01*
X149501862Y-95838383D01*
X149615653Y-95843597D01*
X149673493Y-95849207D01*
X149677759Y-95850354D01*
X149749071Y-95897422D01*
X149812141Y-95968474D01*
X149841563Y-96021477D01*
X149854994Y-96077447D01*
X149853828Y-96155280D01*
X149839462Y-96273873D01*
X149836324Y-96295868D01*
X149828285Y-96364526D01*
X149822409Y-96423670D01*
X149814229Y-96474005D01*
X149799276Y-96516235D01*
X149773082Y-96551063D01*
X149731178Y-96579193D01*
X149669095Y-96601331D01*
X149582365Y-96618179D01*
X149466521Y-96630442D01*
X149317093Y-96638824D01*
X149129613Y-96644029D01*
X148899612Y-96646761D01*
X148622623Y-96647724D01*
X148294177Y-96647623D01*
X147909805Y-96647161D01*
X147607872Y-96647000D01*
X145553279Y-96647000D01*
X145466254Y-96514079D01*
X145379228Y-96381159D01*
X145458660Y-96014017D01*
X145492428Y-95854612D01*
X145522936Y-95704585D01*
X145546483Y-95582486D01*
X145558145Y-95515289D01*
X145595543Y-95369250D01*
X145659581Y-95214178D01*
X145739588Y-95070700D01*
X145824890Y-94959444D01*
X145864133Y-94923882D01*
X145922518Y-94879957D01*
X145975279Y-94843134D01*
X146028411Y-94812722D01*
X146087912Y-94788027D01*
X146159779Y-94768359D01*
X146250009Y-94753024D01*
X146364600Y-94741331D01*
X146509548Y-94732588D01*
X146690852Y-94726103D01*
X146914507Y-94721182D01*
X147186511Y-94717136D01*
X147512862Y-94713270D01*
X147708099Y-94711079D01*
X148053746Y-94707096D01*
X148341485Y-94703434D01*
X148576907Y-94699802D01*
X148765601Y-94695910D01*
X148913157Y-94691469D01*
X149025165Y-94686187D01*
X149107215Y-94679775D01*
X149164895Y-94671944D01*
X149203797Y-94662402D01*
X149229510Y-94650860D01*
X149247623Y-94637029D01*
X149253910Y-94630875D01*
X149309990Y-94549592D01*
X149337565Y-94480062D01*
X149358883Y-94392750D01*
X147765854Y-94392750D01*
X147356429Y-94392076D01*
X147002697Y-94390073D01*
X146705932Y-94386765D01*
X146467406Y-94382178D01*
X146288392Y-94376336D01*
X146170164Y-94369266D01*
X146113993Y-94360993D01*
X146111412Y-94359882D01*
X146061911Y-94314326D01*
X146050000Y-94280507D01*
X146033656Y-94238961D01*
X146020389Y-94234000D01*
X145983184Y-94205011D01*
X145968087Y-94121513D01*
X145975600Y-93988708D01*
X145988453Y-93902786D01*
X145999318Y-93832311D01*
X146008672Y-93772283D01*
X146021341Y-93721894D01*
X146042153Y-93680336D01*
X146075933Y-93646801D01*
X146127508Y-93620480D01*
X146201706Y-93600565D01*
X146303351Y-93586247D01*
X146437271Y-93576718D01*
X146608293Y-93571169D01*
X146821243Y-93568793D01*
X147080948Y-93568780D01*
X147392234Y-93570323D01*
G36*
X151866027Y-94916625D02*
G01*
X151902674Y-94974987D01*
X151933230Y-94996000D01*
X151946536Y-95024354D01*
X151949314Y-95098135D01*
X151943076Y-95200422D01*
X151929333Y-95314293D01*
X151909594Y-95422827D01*
X151888095Y-95501552D01*
X151846802Y-95580418D01*
X151795781Y-95631517D01*
X151795497Y-95631670D01*
X151742836Y-95643105D01*
X151639937Y-95651988D01*
X151498067Y-95658370D01*
X151328495Y-95662305D01*
X151142488Y-95663848D01*
X150951313Y-95663049D01*
X150766238Y-95659964D01*
X150598531Y-95654646D01*
X150459459Y-95647146D01*
X150360290Y-95637520D01*
X150312292Y-95625820D01*
X150310850Y-95624650D01*
X150276987Y-95568372D01*
X150272750Y-95545275D01*
X150253714Y-95507266D01*
X150241604Y-95504000D01*
X150207415Y-95475998D01*
X150189521Y-95403943D01*
X150190407Y-95305765D01*
X150203694Y-95230451D01*
X150229358Y-95125835D01*
X150251516Y-95031848D01*
X150253738Y-95022032D01*
X150268145Y-94965483D01*
X150287929Y-94921833D01*
X150320748Y-94889415D01*
X150374260Y-94866558D01*
X150456121Y-94851592D01*
X150573989Y-94842848D01*
X150735522Y-94838656D01*
X150948378Y-94837346D01*
X151101198Y-94837250D01*
X151829861Y-94837250D01*
X151866027Y-94916625D01*
G37*
X151866027Y-94916625D02*
X151902674Y-94974987D01*
X151933230Y-94996000D01*
X151946536Y-95024354D01*
X151949314Y-95098135D01*
X151943076Y-95200422D01*
X151929333Y-95314293D01*
X151909594Y-95422827D01*
X151888095Y-95501552D01*
X151846802Y-95580418D01*
X151795781Y-95631517D01*
X151795497Y-95631670D01*
X151742836Y-95643105D01*
X151639937Y-95651988D01*
X151498067Y-95658370D01*
X151328495Y-95662305D01*
X151142488Y-95663848D01*
X150951313Y-95663049D01*
X150766238Y-95659964D01*
X150598531Y-95654646D01*
X150459459Y-95647146D01*
X150360290Y-95637520D01*
X150312292Y-95625820D01*
X150310850Y-95624650D01*
X150276987Y-95568372D01*
X150272750Y-95545275D01*
X150253714Y-95507266D01*
X150241604Y-95504000D01*
X150207415Y-95475998D01*
X150189521Y-95403943D01*
X150190407Y-95305765D01*
X150203694Y-95230451D01*
X150229358Y-95125835D01*
X150251516Y-95031848D01*
X150253738Y-95022032D01*
X150268145Y-94965483D01*
X150287929Y-94921833D01*
X150320748Y-94889415D01*
X150374260Y-94866558D01*
X150456121Y-94851592D01*
X150573989Y-94842848D01*
X150735522Y-94838656D01*
X150948378Y-94837346D01*
X151101198Y-94837250D01*
X151829861Y-94837250D01*
X151866027Y-94916625D01*
G36*
X135067176Y-93289224D02*
G01*
X135076530Y-93298066D01*
X135138099Y-93337200D01*
X135173357Y-93345000D01*
X135215710Y-93365939D01*
X135217238Y-93414722D01*
X135177631Y-93470296D01*
X135175233Y-93472324D01*
X135145359Y-93518484D01*
X135160900Y-93552760D01*
X135170771Y-93595666D01*
X135146704Y-93626962D01*
X135109128Y-93622155D01*
X135105659Y-93618992D01*
X135070481Y-93622911D01*
X135009149Y-93656781D01*
X135002830Y-93661196D01*
X134925203Y-93699356D01*
X134875996Y-93695484D01*
X134859019Y-93668379D01*
X134893824Y-93630976D01*
X134917164Y-93614877D01*
X134968930Y-93567754D01*
X134981892Y-93529451D01*
X134954929Y-93515407D01*
X134923819Y-93523176D01*
X134873539Y-93526352D01*
X134860823Y-93490419D01*
X134873879Y-93456125D01*
X135032750Y-93456125D01*
X135048625Y-93472000D01*
X135064500Y-93456125D01*
X135048625Y-93440250D01*
X135032750Y-93456125D01*
X134873879Y-93456125D01*
X134884986Y-93426952D01*
X134933464Y-93360620D01*
X134995060Y-93295690D01*
X135034267Y-93274237D01*
X135067176Y-93289224D01*
G37*
X135067176Y-93289224D02*
X135076530Y-93298066D01*
X135138099Y-93337200D01*
X135173357Y-93345000D01*
X135215710Y-93365939D01*
X135217238Y-93414722D01*
X135177631Y-93470296D01*
X135175233Y-93472324D01*
X135145359Y-93518484D01*
X135160900Y-93552760D01*
X135170771Y-93595666D01*
X135146704Y-93626962D01*
X135109128Y-93622155D01*
X135105659Y-93618992D01*
X135070481Y-93622911D01*
X135009149Y-93656781D01*
X135002830Y-93661196D01*
X134925203Y-93699356D01*
X134875996Y-93695484D01*
X134859019Y-93668379D01*
X134893824Y-93630976D01*
X134917164Y-93614877D01*
X134968930Y-93567754D01*
X134981892Y-93529451D01*
X134954929Y-93515407D01*
X134923819Y-93523176D01*
X134873539Y-93526352D01*
X134860823Y-93490419D01*
X134873879Y-93456125D01*
X135032750Y-93456125D01*
X135048625Y-93472000D01*
X135064500Y-93456125D01*
X135048625Y-93440250D01*
X135032750Y-93456125D01*
X134873879Y-93456125D01*
X134884986Y-93426952D01*
X134933464Y-93360620D01*
X134995060Y-93295690D01*
X135034267Y-93274237D01*
X135067176Y-93289224D01*
G36*
X138097246Y-93304748D02*
G01*
X138091097Y-93343489D01*
X138071407Y-93369531D01*
X138038121Y-93434754D01*
X138015172Y-93531226D01*
X138011523Y-93564839D01*
X137995592Y-93660146D01*
X137970227Y-93712366D01*
X137944049Y-93716899D01*
X137925683Y-93669145D01*
X137922000Y-93612599D01*
X137919584Y-93537618D01*
X137906636Y-93515814D01*
X137874605Y-93536894D01*
X137865712Y-93544847D01*
X137800133Y-93577484D01*
X137762524Y-93566538D01*
X137738206Y-93539878D01*
X137761174Y-93507140D01*
X137795000Y-93481779D01*
X137877694Y-93416801D01*
X137949310Y-93351830D01*
X138011513Y-93306766D01*
X138065772Y-93291790D01*
X138097246Y-93304748D01*
G37*
X138097246Y-93304748D02*
X138091097Y-93343489D01*
X138071407Y-93369531D01*
X138038121Y-93434754D01*
X138015172Y-93531226D01*
X138011523Y-93564839D01*
X137995592Y-93660146D01*
X137970227Y-93712366D01*
X137944049Y-93716899D01*
X137925683Y-93669145D01*
X137922000Y-93612599D01*
X137919584Y-93537618D01*
X137906636Y-93515814D01*
X137874605Y-93536894D01*
X137865712Y-93544847D01*
X137800133Y-93577484D01*
X137762524Y-93566538D01*
X137738206Y-93539878D01*
X137761174Y-93507140D01*
X137795000Y-93481779D01*
X137877694Y-93416801D01*
X137949310Y-93351830D01*
X138011513Y-93306766D01*
X138065772Y-93291790D01*
X138097246Y-93304748D01*
G36*
X138654382Y-93274888D02*
G01*
X138662965Y-93281896D01*
X138682907Y-93318897D01*
X138659989Y-93335805D01*
X138635934Y-93368382D01*
X138641027Y-93384278D01*
X138637714Y-93429158D01*
X138616976Y-93453004D01*
X138567955Y-93504242D01*
X138516875Y-93574070D01*
X138452637Y-93652758D01*
X138386920Y-93699659D01*
X138334225Y-93706215D01*
X138317359Y-93691798D01*
X138323931Y-93650510D01*
X138363058Y-93610537D01*
X138412883Y-93555553D01*
X138426316Y-93509887D01*
X138421543Y-93473986D01*
X138411444Y-93499142D01*
X138408113Y-93511687D01*
X138379514Y-93560464D01*
X138330744Y-93553084D01*
X138271250Y-93503750D01*
X138217985Y-93435360D01*
X138214801Y-93390804D01*
X138255375Y-93376750D01*
X138293010Y-93357048D01*
X138295062Y-93338948D01*
X138313998Y-93301546D01*
X138342687Y-93288995D01*
X138389883Y-93299341D01*
X138398250Y-93326796D01*
X138414694Y-93370521D01*
X138430000Y-93376750D01*
X138454588Y-93353388D01*
X138453812Y-93341031D01*
X138472409Y-93303289D01*
X138529010Y-93274886D01*
X138598154Y-93263019D01*
X138654382Y-93274888D01*
G37*
X138654382Y-93274888D02*
X138662965Y-93281896D01*
X138682907Y-93318897D01*
X138659989Y-93335805D01*
X138635934Y-93368382D01*
X138641027Y-93384278D01*
X138637714Y-93429158D01*
X138616976Y-93453004D01*
X138567955Y-93504242D01*
X138516875Y-93574070D01*
X138452637Y-93652758D01*
X138386920Y-93699659D01*
X138334225Y-93706215D01*
X138317359Y-93691798D01*
X138323931Y-93650510D01*
X138363058Y-93610537D01*
X138412883Y-93555553D01*
X138426316Y-93509887D01*
X138421543Y-93473986D01*
X138411444Y-93499142D01*
X138408113Y-93511687D01*
X138379514Y-93560464D01*
X138330744Y-93553084D01*
X138271250Y-93503750D01*
X138217985Y-93435360D01*
X138214801Y-93390804D01*
X138255375Y-93376750D01*
X138293010Y-93357048D01*
X138295062Y-93338948D01*
X138313998Y-93301546D01*
X138342687Y-93288995D01*
X138389883Y-93299341D01*
X138398250Y-93326796D01*
X138414694Y-93370521D01*
X138430000Y-93376750D01*
X138454588Y-93353388D01*
X138453812Y-93341031D01*
X138472409Y-93303289D01*
X138529010Y-93274886D01*
X138598154Y-93263019D01*
X138654382Y-93274888D01*
G36*
X140358812Y-93414986D02*
G01*
X140469623Y-93425640D01*
X140542011Y-93443614D01*
X140569517Y-93464729D01*
X140545682Y-93484809D01*
X140485983Y-93497234D01*
X140414031Y-93535799D01*
X140372476Y-93597559D01*
X140324354Y-93673628D01*
X140271490Y-93710246D01*
X140227727Y-93698843D01*
X140221781Y-93690862D01*
X140224968Y-93645226D01*
X140252514Y-93602436D01*
X140296801Y-93542316D01*
X140287658Y-93512015D01*
X140223875Y-93503750D01*
X140159508Y-93486792D01*
X140144500Y-93454674D01*
X140155317Y-93428480D01*
X140196181Y-93415171D01*
X140279712Y-93412410D01*
X140358812Y-93414986D01*
G37*
X140358812Y-93414986D02*
X140469623Y-93425640D01*
X140542011Y-93443614D01*
X140569517Y-93464729D01*
X140545682Y-93484809D01*
X140485983Y-93497234D01*
X140414031Y-93535799D01*
X140372476Y-93597559D01*
X140324354Y-93673628D01*
X140271490Y-93710246D01*
X140227727Y-93698843D01*
X140221781Y-93690862D01*
X140224968Y-93645226D01*
X140252514Y-93602436D01*
X140296801Y-93542316D01*
X140287658Y-93512015D01*
X140223875Y-93503750D01*
X140159508Y-93486792D01*
X140144500Y-93454674D01*
X140155317Y-93428480D01*
X140196181Y-93415171D01*
X140279712Y-93412410D01*
X140358812Y-93414986D01*
G36*
X134179044Y-93318090D02*
G01*
X134251722Y-93331489D01*
X134270750Y-93347087D01*
X134252089Y-93415908D01*
X134208893Y-93477191D01*
X134160337Y-93503749D01*
X134160240Y-93503750D01*
X134115988Y-93529678D01*
X134073803Y-93590674D01*
X134022362Y-93660447D01*
X133962415Y-93691510D01*
X133914660Y-93676826D01*
X133919703Y-93643145D01*
X133955895Y-93596354D01*
X134006997Y-93520758D01*
X134012243Y-93453128D01*
X133972301Y-93409442D01*
X133947799Y-93402770D01*
X133887097Y-93378495D01*
X133865778Y-93352937D01*
X133877288Y-93330256D01*
X133935604Y-93317563D01*
X134048544Y-93313277D01*
X134061729Y-93313250D01*
X134179044Y-93318090D01*
G37*
X134179044Y-93318090D02*
X134251722Y-93331489D01*
X134270750Y-93347087D01*
X134252089Y-93415908D01*
X134208893Y-93477191D01*
X134160337Y-93503749D01*
X134160240Y-93503750D01*
X134115988Y-93529678D01*
X134073803Y-93590674D01*
X134022362Y-93660447D01*
X133962415Y-93691510D01*
X133914660Y-93676826D01*
X133919703Y-93643145D01*
X133955895Y-93596354D01*
X134006997Y-93520758D01*
X134012243Y-93453128D01*
X133972301Y-93409442D01*
X133947799Y-93402770D01*
X133887097Y-93378495D01*
X133865778Y-93352937D01*
X133877288Y-93330256D01*
X133935604Y-93317563D01*
X134048544Y-93313277D01*
X134061729Y-93313250D01*
X134179044Y-93318090D01*
G36*
X134680356Y-93311307D02*
G01*
X134705529Y-93344421D01*
X134687605Y-93400741D01*
X134684574Y-93406491D01*
X134663679Y-93475386D01*
X134682838Y-93518827D01*
X134697604Y-93565153D01*
X134665207Y-93589399D01*
X134612924Y-93582108D01*
X134560973Y-93590593D01*
X134509888Y-93629630D01*
X134448873Y-93678628D01*
X134395279Y-93693292D01*
X134367033Y-93669882D01*
X134366000Y-93659651D01*
X134388192Y-93616003D01*
X134437437Y-93565046D01*
X134483101Y-93518093D01*
X134479324Y-93487487D01*
X134465119Y-93476194D01*
X134437603Y-93435412D01*
X134457226Y-93399946D01*
X134509247Y-93389369D01*
X134527421Y-93393473D01*
X134577806Y-93393732D01*
X134588250Y-93364888D01*
X134608410Y-93307214D01*
X134659826Y-93301211D01*
X134680356Y-93311307D01*
G37*
X134680356Y-93311307D02*
X134705529Y-93344421D01*
X134687605Y-93400741D01*
X134684574Y-93406491D01*
X134663679Y-93475386D01*
X134682838Y-93518827D01*
X134697604Y-93565153D01*
X134665207Y-93589399D01*
X134612924Y-93582108D01*
X134560973Y-93590593D01*
X134509888Y-93629630D01*
X134448873Y-93678628D01*
X134395279Y-93693292D01*
X134367033Y-93669882D01*
X134366000Y-93659651D01*
X134388192Y-93616003D01*
X134437437Y-93565046D01*
X134483101Y-93518093D01*
X134479324Y-93487487D01*
X134465119Y-93476194D01*
X134437603Y-93435412D01*
X134457226Y-93399946D01*
X134509247Y-93389369D01*
X134527421Y-93393473D01*
X134577806Y-93393732D01*
X134588250Y-93364888D01*
X134608410Y-93307214D01*
X134659826Y-93301211D01*
X134680356Y-93311307D01*
G36*
X136202034Y-93387667D02*
G01*
X136207500Y-93421900D01*
X136184212Y-93466541D01*
X136125958Y-93531480D01*
X136050148Y-93601117D01*
X135974193Y-93659851D01*
X135915504Y-93692080D01*
X135903556Y-93694250D01*
X135859696Y-93668751D01*
X135846768Y-93646625D01*
X135850437Y-93605698D01*
X135869406Y-93599000D01*
X135915082Y-93579608D01*
X135988024Y-93529876D01*
X136040144Y-93487875D01*
X136127726Y-93415729D01*
X136178567Y-93383557D01*
X136202034Y-93387667D01*
G37*
X136202034Y-93387667D02*
X136207500Y-93421900D01*
X136184212Y-93466541D01*
X136125958Y-93531480D01*
X136050148Y-93601117D01*
X135974193Y-93659851D01*
X135915504Y-93692080D01*
X135903556Y-93694250D01*
X135859696Y-93668751D01*
X135846768Y-93646625D01*
X135850437Y-93605698D01*
X135869406Y-93599000D01*
X135915082Y-93579608D01*
X135988024Y-93529876D01*
X136040144Y-93487875D01*
X136127726Y-93415729D01*
X136178567Y-93383557D01*
X136202034Y-93387667D01*
G36*
X136680755Y-93385083D02*
G01*
X136683750Y-93403453D01*
X136654574Y-93474542D01*
X136571158Y-93558808D01*
X136456474Y-93639587D01*
X136393533Y-93672393D01*
X136355849Y-93667595D01*
X136333524Y-93645449D01*
X136313803Y-93607762D01*
X136322674Y-93598863D01*
X136360474Y-93580880D01*
X136432227Y-93534002D01*
X136517062Y-93472350D01*
X136607272Y-93406975D01*
X136658720Y-93379174D01*
X136680755Y-93385083D01*
G37*
X136680755Y-93385083D02*
X136683750Y-93403453D01*
X136654574Y-93474542D01*
X136571158Y-93558808D01*
X136456474Y-93639587D01*
X136393533Y-93672393D01*
X136355849Y-93667595D01*
X136333524Y-93645449D01*
X136313803Y-93607762D01*
X136322674Y-93598863D01*
X136360474Y-93580880D01*
X136432227Y-93534002D01*
X136517062Y-93472350D01*
X136607272Y-93406975D01*
X136658720Y-93379174D01*
X136680755Y-93385083D01*
G36*
X136958685Y-93330864D02*
G01*
X137001888Y-93367538D01*
X137045001Y-93371531D01*
X137131930Y-93374861D01*
X137166712Y-93411692D01*
X137146787Y-93478851D01*
X137140120Y-93489530D01*
X137081447Y-93552118D01*
X137028685Y-93562361D01*
X136993367Y-93518541D01*
X136991386Y-93511687D01*
X136979914Y-93483423D01*
X136973870Y-93515813D01*
X136973183Y-93527562D01*
X136981467Y-93578246D01*
X137025455Y-93597212D01*
X137067395Y-93599000D01*
X137138393Y-93609742D01*
X137152263Y-93638687D01*
X137114308Y-93667643D01*
X137040926Y-93684432D01*
X136959675Y-93684974D01*
X136913937Y-93673960D01*
X136882691Y-93632572D01*
X136874250Y-93584006D01*
X136856447Y-93525136D01*
X136822104Y-93515215D01*
X136768807Y-93501777D01*
X136760869Y-93465977D01*
X136802175Y-93433534D01*
X136809451Y-93431389D01*
X136864380Y-93388778D01*
X136874250Y-93347972D01*
X136891096Y-93291942D01*
X136927376Y-93287646D01*
X136958685Y-93330864D01*
G37*
X136958685Y-93330864D02*
X137001888Y-93367538D01*
X137045001Y-93371531D01*
X137131930Y-93374861D01*
X137166712Y-93411692D01*
X137146787Y-93478851D01*
X137140120Y-93489530D01*
X137081447Y-93552118D01*
X137028685Y-93562361D01*
X136993367Y-93518541D01*
X136991386Y-93511687D01*
X136979914Y-93483423D01*
X136973870Y-93515813D01*
X136973183Y-93527562D01*
X136981467Y-93578246D01*
X137025455Y-93597212D01*
X137067395Y-93599000D01*
X137138393Y-93609742D01*
X137152263Y-93638687D01*
X137114308Y-93667643D01*
X137040926Y-93684432D01*
X136959675Y-93684974D01*
X136913937Y-93673960D01*
X136882691Y-93632572D01*
X136874250Y-93584006D01*
X136856447Y-93525136D01*
X136822104Y-93515215D01*
X136768807Y-93501777D01*
X136760869Y-93465977D01*
X136802175Y-93433534D01*
X136809451Y-93431389D01*
X136864380Y-93388778D01*
X136874250Y-93347972D01*
X136891096Y-93291942D01*
X136927376Y-93287646D01*
X136958685Y-93330864D01*
G36*
X137400468Y-93290325D02*
G01*
X137414000Y-93329125D01*
X137439414Y-93371218D01*
X137461625Y-93376750D01*
X137499260Y-93357048D01*
X137501312Y-93338948D01*
X137520238Y-93301526D01*
X137548826Y-93289016D01*
X137588487Y-93293203D01*
X137585116Y-93326818D01*
X137588316Y-93369063D01*
X137616978Y-93376750D01*
X137661212Y-93400714D01*
X137668000Y-93424375D01*
X137646625Y-93466962D01*
X137628312Y-93472687D01*
X137589745Y-93499303D01*
X137546928Y-93563712D01*
X137541000Y-93575874D01*
X137482658Y-93657491D01*
X137421937Y-93688520D01*
X137366565Y-93686646D01*
X137350500Y-93672345D01*
X137374371Y-93636909D01*
X137414000Y-93606368D01*
X137459839Y-93560161D01*
X137477621Y-93509062D01*
X137462046Y-93475496D01*
X137445750Y-93472000D01*
X137417582Y-93497716D01*
X137414000Y-93519625D01*
X137396328Y-93561868D01*
X137381253Y-93567250D01*
X137342589Y-93541877D01*
X137330231Y-93519625D01*
X137290255Y-93477428D01*
X137267728Y-93472000D01*
X137228601Y-93446511D01*
X137223500Y-93424375D01*
X137247170Y-93382242D01*
X137267728Y-93376750D01*
X137316742Y-93351139D01*
X137330231Y-93329125D01*
X137364398Y-93286976D01*
X137400468Y-93290325D01*
G37*
X137400468Y-93290325D02*
X137414000Y-93329125D01*
X137439414Y-93371218D01*
X137461625Y-93376750D01*
X137499260Y-93357048D01*
X137501312Y-93338948D01*
X137520238Y-93301526D01*
X137548826Y-93289016D01*
X137588487Y-93293203D01*
X137585116Y-93326818D01*
X137588316Y-93369063D01*
X137616978Y-93376750D01*
X137661212Y-93400714D01*
X137668000Y-93424375D01*
X137646625Y-93466962D01*
X137628312Y-93472687D01*
X137589745Y-93499303D01*
X137546928Y-93563712D01*
X137541000Y-93575874D01*
X137482658Y-93657491D01*
X137421937Y-93688520D01*
X137366565Y-93686646D01*
X137350500Y-93672345D01*
X137374371Y-93636909D01*
X137414000Y-93606368D01*
X137459839Y-93560161D01*
X137477621Y-93509062D01*
X137462046Y-93475496D01*
X137445750Y-93472000D01*
X137417582Y-93497716D01*
X137414000Y-93519625D01*
X137396328Y-93561868D01*
X137381253Y-93567250D01*
X137342589Y-93541877D01*
X137330231Y-93519625D01*
X137290255Y-93477428D01*
X137267728Y-93472000D01*
X137228601Y-93446511D01*
X137223500Y-93424375D01*
X137247170Y-93382242D01*
X137267728Y-93376750D01*
X137316742Y-93351139D01*
X137330231Y-93329125D01*
X137364398Y-93286976D01*
X137400468Y-93290325D01*
G36*
X139604531Y-93416277D02*
G01*
X139594283Y-93453480D01*
X139560442Y-93496060D01*
X139493788Y-93556239D01*
X139413433Y-93619170D01*
X139338488Y-93670005D01*
X139288065Y-93693897D01*
X139284360Y-93694250D01*
X139246923Y-93671108D01*
X139235877Y-93656436D01*
X139236515Y-93615590D01*
X139251714Y-93605553D01*
X139297264Y-93580064D01*
X139373266Y-93528174D01*
X139435081Y-93482445D01*
X139533224Y-93414303D01*
X139589284Y-93392324D01*
X139604531Y-93416277D01*
G37*
X139604531Y-93416277D02*
X139594283Y-93453480D01*
X139560442Y-93496060D01*
X139493788Y-93556239D01*
X139413433Y-93619170D01*
X139338488Y-93670005D01*
X139288065Y-93693897D01*
X139284360Y-93694250D01*
X139246923Y-93671108D01*
X139235877Y-93656436D01*
X139236515Y-93615590D01*
X139251714Y-93605553D01*
X139297264Y-93580064D01*
X139373266Y-93528174D01*
X139435081Y-93482445D01*
X139533224Y-93414303D01*
X139589284Y-93392324D01*
X139604531Y-93416277D01*
G36*
X139953108Y-93325428D02*
G01*
X140001991Y-93354379D01*
X140006837Y-93363009D01*
X140004884Y-93425459D01*
X139990188Y-93448511D01*
X139976242Y-93488993D01*
X140012093Y-93545426D01*
X140020110Y-93554153D01*
X140058631Y-93614797D01*
X140047022Y-93648420D01*
X139995803Y-93646806D01*
X139938384Y-93617964D01*
X139873902Y-93589363D01*
X139842762Y-93599182D01*
X139796162Y-93644571D01*
X139736816Y-93671912D01*
X139691252Y-93670311D01*
X139685024Y-93663954D01*
X139695524Y-93627096D01*
X139742858Y-93565702D01*
X139786284Y-93521853D01*
X139906375Y-93410218D01*
X139803187Y-93409359D01*
X139723861Y-93396358D01*
X139700000Y-93360875D01*
X139727038Y-93329013D01*
X139793194Y-93312589D01*
X139876030Y-93311446D01*
X139953108Y-93325428D01*
G37*
X139953108Y-93325428D02*
X140001991Y-93354379D01*
X140006837Y-93363009D01*
X140004884Y-93425459D01*
X139990188Y-93448511D01*
X139976242Y-93488993D01*
X140012093Y-93545426D01*
X140020110Y-93554153D01*
X140058631Y-93614797D01*
X140047022Y-93648420D01*
X139995803Y-93646806D01*
X139938384Y-93617964D01*
X139873902Y-93589363D01*
X139842762Y-93599182D01*
X139796162Y-93644571D01*
X139736816Y-93671912D01*
X139691252Y-93670311D01*
X139685024Y-93663954D01*
X139695524Y-93627096D01*
X139742858Y-93565702D01*
X139786284Y-93521853D01*
X139906375Y-93410218D01*
X139803187Y-93409359D01*
X139723861Y-93396358D01*
X139700000Y-93360875D01*
X139727038Y-93329013D01*
X139793194Y-93312589D01*
X139876030Y-93311446D01*
X139953108Y-93325428D01*
G36*
X140884067Y-93301400D02*
G01*
X140884871Y-93340237D01*
X140859585Y-93407071D01*
X140857608Y-93410948D01*
X140818156Y-93503137D01*
X140819283Y-93553037D01*
X140857878Y-93567250D01*
X140889909Y-93546213D01*
X140886231Y-93519625D01*
X140883766Y-93477333D01*
X140913317Y-93470990D01*
X140958806Y-93495081D01*
X141004156Y-93544089D01*
X141016024Y-93564154D01*
X141045080Y-93629415D01*
X141040649Y-93661034D01*
X141017856Y-93673892D01*
X140968749Y-93675745D01*
X140956272Y-93665975D01*
X140918319Y-93655161D01*
X140840274Y-93657013D01*
X140795375Y-93662500D01*
X140705785Y-93670231D01*
X140645408Y-93664542D01*
X140633430Y-93657331D01*
X140639395Y-93616291D01*
X140676747Y-93553765D01*
X140679991Y-93549577D01*
X140733478Y-93459493D01*
X140763952Y-93375259D01*
X140796619Y-93302899D01*
X140844792Y-93280517D01*
X140884067Y-93301400D01*
G37*
X140884067Y-93301400D02*
X140884871Y-93340237D01*
X140859585Y-93407071D01*
X140857608Y-93410948D01*
X140818156Y-93503137D01*
X140819283Y-93553037D01*
X140857878Y-93567250D01*
X140889909Y-93546213D01*
X140886231Y-93519625D01*
X140883766Y-93477333D01*
X140913317Y-93470990D01*
X140958806Y-93495081D01*
X141004156Y-93544089D01*
X141016024Y-93564154D01*
X141045080Y-93629415D01*
X141040649Y-93661034D01*
X141017856Y-93673892D01*
X140968749Y-93675745D01*
X140956272Y-93665975D01*
X140918319Y-93655161D01*
X140840274Y-93657013D01*
X140795375Y-93662500D01*
X140705785Y-93670231D01*
X140645408Y-93664542D01*
X140633430Y-93657331D01*
X140639395Y-93616291D01*
X140676747Y-93553765D01*
X140679991Y-93549577D01*
X140733478Y-93459493D01*
X140763952Y-93375259D01*
X140796619Y-93302899D01*
X140844792Y-93280517D01*
X140884067Y-93301400D01*
G36*
X135579791Y-93351023D02*
G01*
X135580818Y-93428872D01*
X135578975Y-93442274D01*
X135564288Y-93542344D01*
X135644829Y-93489572D01*
X135714885Y-93457861D01*
X135746058Y-93470274D01*
X135752174Y-93521572D01*
X135703129Y-93574754D01*
X135633054Y-93616398D01*
X135542861Y-93647690D01*
X135490948Y-93628727D01*
X135477250Y-93574186D01*
X135470283Y-93546194D01*
X135443920Y-93569826D01*
X135427824Y-93591935D01*
X135368770Y-93653374D01*
X135321346Y-93653345D01*
X135304848Y-93634347D01*
X135311171Y-93593929D01*
X135334724Y-93566959D01*
X135370228Y-93507469D01*
X135382000Y-93439804D01*
X135397327Y-93368609D01*
X135454150Y-93333918D01*
X135462835Y-93331595D01*
X135543624Y-93321610D01*
X135579791Y-93351023D01*
G37*
X135579791Y-93351023D02*
X135580818Y-93428872D01*
X135578975Y-93442274D01*
X135564288Y-93542344D01*
X135644829Y-93489572D01*
X135714885Y-93457861D01*
X135746058Y-93470274D01*
X135752174Y-93521572D01*
X135703129Y-93574754D01*
X135633054Y-93616398D01*
X135542861Y-93647690D01*
X135490948Y-93628727D01*
X135477250Y-93574186D01*
X135470283Y-93546194D01*
X135443920Y-93569826D01*
X135427824Y-93591935D01*
X135368770Y-93653374D01*
X135321346Y-93653345D01*
X135304848Y-93634347D01*
X135311171Y-93593929D01*
X135334724Y-93566959D01*
X135370228Y-93507469D01*
X135382000Y-93439804D01*
X135397327Y-93368609D01*
X135454150Y-93333918D01*
X135462835Y-93331595D01*
X135543624Y-93321610D01*
X135579791Y-93351023D01*
G36*
X133582179Y-93394220D02*
G01*
X133657104Y-93437207D01*
X133733433Y-93491569D01*
X133791070Y-93543169D01*
X133810375Y-93574921D01*
X133790372Y-93615884D01*
X133735925Y-93611265D01*
X133655376Y-93562405D01*
X133636277Y-93546946D01*
X133533560Y-93460516D01*
X133480707Y-93530585D01*
X133435300Y-93576434D01*
X133398654Y-93570484D01*
X133389149Y-93561949D01*
X133371153Y-93523520D01*
X133398259Y-93473571D01*
X133419256Y-93449997D01*
X133479658Y-93398364D01*
X133528583Y-93376750D01*
X133528749Y-93376749D01*
X133582179Y-93394220D01*
G37*
X133582179Y-93394220D02*
X133657104Y-93437207D01*
X133733433Y-93491569D01*
X133791070Y-93543169D01*
X133810375Y-93574921D01*
X133790372Y-93615884D01*
X133735925Y-93611265D01*
X133655376Y-93562405D01*
X133636277Y-93546946D01*
X133533560Y-93460516D01*
X133480707Y-93530585D01*
X133435300Y-93576434D01*
X133398654Y-93570484D01*
X133389149Y-93561949D01*
X133371153Y-93523520D01*
X133398259Y-93473571D01*
X133419256Y-93449997D01*
X133479658Y-93398364D01*
X133528583Y-93376750D01*
X133528749Y-93376749D01*
X133582179Y-93394220D01*
G36*
X135908459Y-93434801D02*
G01*
X135949553Y-93473914D01*
X135953500Y-93490014D01*
X135937723Y-93530888D01*
X135888382Y-93521186D01*
X135840555Y-93490470D01*
X135801309Y-93448797D01*
X135800344Y-93424071D01*
X135848106Y-93413615D01*
X135908459Y-93434801D01*
G37*
X135908459Y-93434801D02*
X135949553Y-93473914D01*
X135953500Y-93490014D01*
X135937723Y-93530888D01*
X135888382Y-93521186D01*
X135840555Y-93490470D01*
X135801309Y-93448797D01*
X135800344Y-93424071D01*
X135848106Y-93413615D01*
X135908459Y-93434801D01*
G36*
X138911667Y-93446672D02*
G01*
X139031310Y-93458713D01*
X139103900Y-93479759D01*
X139120688Y-93495812D01*
X139109209Y-93518491D01*
X139050935Y-93531183D01*
X138938047Y-93535472D01*
X138924770Y-93535500D01*
X138808949Y-93532565D01*
X138744154Y-93521836D01*
X138718104Y-93500425D01*
X138715750Y-93486359D01*
X138727144Y-93459223D01*
X138769995Y-93446153D01*
X138857300Y-93444519D01*
X138911667Y-93446672D01*
G37*
X138911667Y-93446672D02*
X139031310Y-93458713D01*
X139103900Y-93479759D01*
X139120688Y-93495812D01*
X139109209Y-93518491D01*
X139050935Y-93531183D01*
X138938047Y-93535472D01*
X138924770Y-93535500D01*
X138808949Y-93532565D01*
X138744154Y-93521836D01*
X138718104Y-93500425D01*
X138715750Y-93486359D01*
X138727144Y-93459223D01*
X138769995Y-93446153D01*
X138857300Y-93444519D01*
X138911667Y-93446672D01*
G36*
X139287018Y-93427315D02*
G01*
X139326425Y-93468377D01*
X139333608Y-93508611D01*
X139329307Y-93514608D01*
X139295939Y-93531984D01*
X139241350Y-93518301D01*
X139231687Y-93514472D01*
X139196995Y-93478183D01*
X139197792Y-93432574D01*
X139232893Y-93408577D01*
X139235737Y-93408500D01*
X139287018Y-93427315D01*
G37*
X139287018Y-93427315D02*
X139326425Y-93468377D01*
X139333608Y-93508611D01*
X139329307Y-93514608D01*
X139295939Y-93531984D01*
X139241350Y-93518301D01*
X139231687Y-93514472D01*
X139196995Y-93478183D01*
X139197792Y-93432574D01*
X139232893Y-93408577D01*
X139235737Y-93408500D01*
X139287018Y-93427315D01*
G36*
X136412529Y-93343883D02*
G01*
X136453618Y-93397999D01*
X136461500Y-93428262D01*
X136440320Y-93466139D01*
X136391373Y-93465329D01*
X136336548Y-93426727D01*
X136333383Y-93423029D01*
X136311633Y-93365843D01*
X136335271Y-93327994D01*
X136386194Y-93327582D01*
X136412529Y-93343883D01*
G37*
X136412529Y-93343883D02*
X136453618Y-93397999D01*
X136461500Y-93428262D01*
X136440320Y-93466139D01*
X136391373Y-93465329D01*
X136336548Y-93426727D01*
X136333383Y-93423029D01*
X136311633Y-93365843D01*
X136335271Y-93327994D01*
X136386194Y-93327582D01*
X136412529Y-93343883D01*
G36*
X133748316Y-93325284D02*
G01*
X133783509Y-93350760D01*
X133763151Y-93392138D01*
X133762438Y-93393000D01*
X133705627Y-93437060D01*
X133659290Y-93418837D01*
X133649915Y-93405733D01*
X133647531Y-93357899D01*
X133686809Y-93324864D01*
X133745982Y-93324426D01*
X133748316Y-93325284D01*
G37*
X133748316Y-93325284D02*
X133783509Y-93350760D01*
X133763151Y-93392138D01*
X133762438Y-93393000D01*
X133705627Y-93437060D01*
X133659290Y-93418837D01*
X133649915Y-93405733D01*
X133647531Y-93357899D01*
X133686809Y-93324864D01*
X133745982Y-93324426D01*
X133748316Y-93325284D01*
G36*
X135971081Y-93326868D02*
G01*
X136011348Y-93372942D01*
X135999418Y-93406481D01*
X135953279Y-93420799D01*
X135904168Y-93394881D01*
X135863901Y-93348807D01*
X135875831Y-93315268D01*
X135921970Y-93300950D01*
X135971081Y-93326868D01*
G37*
X135971081Y-93326868D02*
X136011348Y-93372942D01*
X135999418Y-93406481D01*
X135953279Y-93420799D01*
X135904168Y-93394881D01*
X135863901Y-93348807D01*
X135875831Y-93315268D01*
X135921970Y-93300950D01*
X135971081Y-93326868D01*
G36*
X139361982Y-93335027D02*
G01*
X139401963Y-93365769D01*
X139406075Y-93385397D01*
X139368290Y-93428100D01*
X139313732Y-93417189D01*
X139287490Y-93392915D01*
X139261694Y-93345227D01*
X139264457Y-93325458D01*
X139306287Y-93317418D01*
X139361982Y-93335027D01*
G37*
X139361982Y-93335027D02*
X139401963Y-93365769D01*
X139406075Y-93385397D01*
X139368290Y-93428100D01*
X139313732Y-93417189D01*
X139287490Y-93392915D01*
X139261694Y-93345227D01*
X139264457Y-93325458D01*
X139306287Y-93317418D01*
X139361982Y-93335027D01*
G36*
X140445045Y-93287732D02*
G01*
X140487940Y-93308925D01*
X140493750Y-93329125D01*
X140475051Y-93360515D01*
X140411473Y-93374813D01*
X140350875Y-93376750D01*
X140256704Y-93370517D01*
X140213809Y-93349324D01*
X140208000Y-93329125D01*
X140226698Y-93297734D01*
X140290276Y-93283436D01*
X140350875Y-93281500D01*
X140445045Y-93287732D01*
G37*
X140445045Y-93287732D02*
X140487940Y-93308925D01*
X140493750Y-93329125D01*
X140475051Y-93360515D01*
X140411473Y-93374813D01*
X140350875Y-93376750D01*
X140256704Y-93370517D01*
X140213809Y-93349324D01*
X140208000Y-93329125D01*
X140226698Y-93297734D01*
X140290276Y-93283436D01*
X140350875Y-93281500D01*
X140445045Y-93287732D01*
G36*
X154015547Y-94837250D02*
G01*
X154967498Y-94837250D01*
X155084771Y-94980365D01*
X155146935Y-95066601D01*
X155184675Y-95151963D01*
X155199316Y-95250351D01*
X155192183Y-95375663D01*
X155164602Y-95541799D01*
X155146688Y-95629715D01*
X155098964Y-95817138D01*
X155043793Y-95950451D01*
X154975740Y-96039009D01*
X154889369Y-96092170D01*
X154874932Y-96097520D01*
X154812595Y-96107977D01*
X154697569Y-96116803D01*
X154540166Y-96123961D01*
X154350698Y-96129416D01*
X154139476Y-96133129D01*
X153916813Y-96135066D01*
X153693020Y-96135189D01*
X153478410Y-96133462D01*
X153283294Y-96129848D01*
X153117984Y-96124311D01*
X152992793Y-96116815D01*
X152918032Y-96107323D01*
X152908000Y-96104477D01*
X152843261Y-96059025D01*
X152776601Y-95980683D01*
X152757187Y-95949881D01*
X152706451Y-95824941D01*
X152694781Y-95730646D01*
X153003250Y-95730646D01*
X153033801Y-95738087D01*
X153120686Y-95744093D01*
X153256751Y-95748501D01*
X153434842Y-95751150D01*
X153647806Y-95751878D01*
X153884312Y-95750564D01*
X154765375Y-95742125D01*
X154894889Y-95202375D01*
X154059080Y-95193916D01*
X153796484Y-95192490D01*
X153571466Y-95193766D01*
X153389837Y-95197597D01*
X153257405Y-95203832D01*
X153179982Y-95212322D01*
X153164517Y-95216902D01*
X153118627Y-95273403D01*
X153075197Y-95392698D01*
X153054506Y-95475318D01*
X153029453Y-95589899D01*
X153011193Y-95680357D01*
X153003326Y-95728755D01*
X153003250Y-95730646D01*
X152694781Y-95730646D01*
X152688227Y-95677694D01*
X152702401Y-95497390D01*
X152748860Y-95273277D01*
X152749974Y-95268842D01*
X152778441Y-95156549D01*
X152805898Y-95065633D01*
X152838959Y-94993837D01*
X152884235Y-94938907D01*
X152948339Y-94898589D01*
X153037884Y-94870626D01*
X153159482Y-94852764D01*
X153319746Y-94842748D01*
X153525288Y-94838323D01*
X153782721Y-94837234D01*
X154015547Y-94837250D01*
G37*
X154015547Y-94837250D02*
X154967498Y-94837250D01*
X155084771Y-94980365D01*
X155146935Y-95066601D01*
X155184675Y-95151963D01*
X155199316Y-95250351D01*
X155192183Y-95375663D01*
X155164602Y-95541799D01*
X155146688Y-95629715D01*
X155098964Y-95817138D01*
X155043793Y-95950451D01*
X154975740Y-96039009D01*
X154889369Y-96092170D01*
X154874932Y-96097520D01*
X154812595Y-96107977D01*
X154697569Y-96116803D01*
X154540166Y-96123961D01*
X154350698Y-96129416D01*
X154139476Y-96133129D01*
X153916813Y-96135066D01*
X153693020Y-96135189D01*
X153478410Y-96133462D01*
X153283294Y-96129848D01*
X153117984Y-96124311D01*
X152992793Y-96116815D01*
X152918032Y-96107323D01*
X152908000Y-96104477D01*
X152843261Y-96059025D01*
X152776601Y-95980683D01*
X152757187Y-95949881D01*
X152706451Y-95824941D01*
X152694781Y-95730646D01*
X153003250Y-95730646D01*
X153033801Y-95738087D01*
X153120686Y-95744093D01*
X153256751Y-95748501D01*
X153434842Y-95751150D01*
X153647806Y-95751878D01*
X153884312Y-95750564D01*
X154765375Y-95742125D01*
X154894889Y-95202375D01*
X154059080Y-95193916D01*
X153796484Y-95192490D01*
X153571466Y-95193766D01*
X153389837Y-95197597D01*
X153257405Y-95203832D01*
X153179982Y-95212322D01*
X153164517Y-95216902D01*
X153118627Y-95273403D01*
X153075197Y-95392698D01*
X153054506Y-95475318D01*
X153029453Y-95589899D01*
X153011193Y-95680357D01*
X153003326Y-95728755D01*
X153003250Y-95730646D01*
X152694781Y-95730646D01*
X152688227Y-95677694D01*
X152702401Y-95497390D01*
X152748860Y-95273277D01*
X152749974Y-95268842D01*
X152778441Y-95156549D01*
X152805898Y-95065633D01*
X152838959Y-94993837D01*
X152884235Y-94938907D01*
X152948339Y-94898589D01*
X153037884Y-94870626D01*
X153159482Y-94852764D01*
X153319746Y-94842748D01*
X153525288Y-94838323D01*
X153782721Y-94837234D01*
X154015547Y-94837250D01*
D11*
%TO.C,J1*%
X176018500Y-75117000D02*
X176018500Y-69917000D01*
X127698500Y-75117000D02*
X176018500Y-75117000D01*
X125098500Y-69917000D02*
X176018500Y-69917000D01*
X127698500Y-75117000D02*
X127698500Y-72517000D01*
X127698500Y-72517000D02*
X125098500Y-72517000D01*
X125098500Y-72517000D02*
X125098500Y-69917000D01*
X126428500Y-75117000D02*
X125098500Y-75117000D01*
X125098500Y-75117000D02*
X125098500Y-73787000D01*
%TO.C,J2*%
X125860500Y-97850000D02*
X128520500Y-97850000D01*
X125860500Y-85090000D02*
X125860500Y-97850000D01*
X128520500Y-85090000D02*
X128520500Y-97850000D01*
X125860500Y-85090000D02*
X128520500Y-85090000D01*
X125860500Y-83820000D02*
X125860500Y-82490000D01*
X125860500Y-82490000D02*
X127190500Y-82490000D01*
%TO.C,J3*%
X149990500Y-84642000D02*
X152650500Y-84642000D01*
X149990500Y-84582000D02*
X149990500Y-84642000D01*
X152650500Y-84582000D02*
X152650500Y-84642000D01*
X149990500Y-84582000D02*
X152650500Y-84582000D01*
X149990500Y-83312000D02*
X149990500Y-81982000D01*
X149990500Y-81982000D02*
X151320500Y-81982000D01*
%TO.C,C1*%
X177935000Y-77306500D02*
X177935000Y-80046500D01*
X168695000Y-77306500D02*
X168695000Y-80046500D01*
X168695000Y-80046500D02*
X177935000Y-80046500D01*
X168695000Y-77306500D02*
X177935000Y-77306500D01*
%TO.C,D1*%
X163770500Y-88796000D02*
X163770500Y-91036000D01*
X164010500Y-88796000D02*
X164010500Y-91036000D01*
X163890500Y-88796000D02*
X163890500Y-91036000D01*
X168060500Y-89916000D02*
X167410500Y-89916000D01*
X162520500Y-89916000D02*
X163170500Y-89916000D01*
X167410500Y-88796000D02*
X163170500Y-88796000D01*
X167410500Y-91036000D02*
X167410500Y-88796000D01*
X163170500Y-91036000D02*
X167410500Y-91036000D01*
X163170500Y-88796000D02*
X163170500Y-91036000D01*
%TO.C,J4*%
X119066000Y-79124500D02*
X120396000Y-79124500D01*
X119066000Y-80454500D02*
X119066000Y-79124500D01*
X119066000Y-81724500D02*
X121726000Y-81724500D01*
X121726000Y-81724500D02*
X121726000Y-89404500D01*
X119066000Y-81724500D02*
X119066000Y-89404500D01*
X119066000Y-89404500D02*
X121726000Y-89404500D01*
%TO.C,J5*%
X125797000Y-80133500D02*
X125797000Y-78803500D01*
X127127000Y-80133500D02*
X125797000Y-80133500D01*
X128397000Y-80133500D02*
X128397000Y-77473500D01*
X128397000Y-77473500D02*
X130997000Y-77473500D01*
X128397000Y-80133500D02*
X130997000Y-80133500D01*
X130997000Y-80133500D02*
X130997000Y-77473500D01*
%TO.C,J6*%
X138299500Y-80197000D02*
X138299500Y-77537000D01*
X135699500Y-80197000D02*
X138299500Y-80197000D01*
X135699500Y-77537000D02*
X138299500Y-77537000D01*
X135699500Y-80197000D02*
X135699500Y-77537000D01*
X134429500Y-80197000D02*
X133099500Y-80197000D01*
X133099500Y-80197000D02*
X133099500Y-78867000D01*
%TO.C,J7*%
X150618500Y-80197000D02*
X150618500Y-77537000D01*
X142938500Y-80197000D02*
X150618500Y-80197000D01*
X142938500Y-77537000D02*
X150618500Y-77537000D01*
X142938500Y-80197000D02*
X142938500Y-77537000D01*
X141668500Y-80197000D02*
X140338500Y-80197000D01*
X140338500Y-80197000D02*
X140338500Y-78867000D01*
%TO.C,J8*%
X171961500Y-86617500D02*
X173291500Y-86617500D01*
X171961500Y-87947500D02*
X171961500Y-86617500D01*
X171961500Y-89217500D02*
X174621500Y-89217500D01*
X174621500Y-89217500D02*
X174621500Y-94357500D01*
X171961500Y-89217500D02*
X171961500Y-94357500D01*
X171961500Y-94357500D02*
X174621500Y-94357500D01*
%TO.C,R1*%
X176625000Y-84301000D02*
X176625000Y-83971000D01*
X170085000Y-84301000D02*
X176625000Y-84301000D01*
X170085000Y-83971000D02*
X170085000Y-84301000D01*
X176625000Y-81561000D02*
X176625000Y-81891000D01*
X170085000Y-81561000D02*
X176625000Y-81561000D01*
X170085000Y-81891000D02*
X170085000Y-81561000D01*
%TO.C,R2*%
X162020500Y-92876500D02*
X162020500Y-92546500D01*
X162020500Y-92546500D02*
X168560500Y-92546500D01*
X168560500Y-92546500D02*
X168560500Y-92876500D01*
X162020500Y-94956500D02*
X162020500Y-95286500D01*
X162020500Y-95286500D02*
X168560500Y-95286500D01*
X168560500Y-95286500D02*
X168560500Y-94956500D01*
%TO.C,U1*%
X160150500Y-79773000D02*
X160150500Y-81423000D01*
X167890500Y-79773000D02*
X160150500Y-79773000D01*
X167890500Y-85073000D02*
X167890500Y-79773000D01*
X160150500Y-85073000D02*
X167890500Y-85073000D01*
X160150500Y-83423000D02*
X160150500Y-85073000D01*
X160150500Y-81423000D02*
G75*
G02*
X160150500Y-83423000I0J-1000000D01*
G01*
%TO.C,J1*%
D10*
X123872666Y-75588880D02*
X123872666Y-76303166D01*
X123825047Y-76446023D01*
X123729809Y-76541261D01*
X123586952Y-76588880D01*
X123491714Y-76588880D01*
X124872666Y-76588880D02*
X124301238Y-76588880D01*
X124586952Y-76588880D02*
X124586952Y-75588880D01*
X124491714Y-75731738D01*
X124396476Y-75826976D01*
X124301238Y-75874595D01*
%TO.C,J2*%
X124507666Y-97623380D02*
X124507666Y-98337666D01*
X124460047Y-98480523D01*
X124364809Y-98575761D01*
X124221952Y-98623380D01*
X124126714Y-98623380D01*
X124936238Y-97718619D02*
X124983857Y-97671000D01*
X125079095Y-97623380D01*
X125317190Y-97623380D01*
X125412428Y-97671000D01*
X125460047Y-97718619D01*
X125507666Y-97813857D01*
X125507666Y-97909095D01*
X125460047Y-98051952D01*
X124888619Y-98623380D01*
X125507666Y-98623380D01*
%TO.C,J3*%
X148764666Y-82256380D02*
X148764666Y-82970666D01*
X148717047Y-83113523D01*
X148621809Y-83208761D01*
X148478952Y-83256380D01*
X148383714Y-83256380D01*
X149145619Y-82256380D02*
X149764666Y-82256380D01*
X149431333Y-82637333D01*
X149574190Y-82637333D01*
X149669428Y-82684952D01*
X149717047Y-82732571D01*
X149764666Y-82827809D01*
X149764666Y-83065904D01*
X149717047Y-83161142D01*
X149669428Y-83208761D01*
X149574190Y-83256380D01*
X149288476Y-83256380D01*
X149193238Y-83208761D01*
X149145619Y-83161142D01*
%TO.C,C1*%
X173188333Y-76938142D02*
X173140714Y-76985761D01*
X172997857Y-77033380D01*
X172902619Y-77033380D01*
X172759761Y-76985761D01*
X172664523Y-76890523D01*
X172616904Y-76795285D01*
X172569285Y-76604809D01*
X172569285Y-76461952D01*
X172616904Y-76271476D01*
X172664523Y-76176238D01*
X172759761Y-76081000D01*
X172902619Y-76033380D01*
X172997857Y-76033380D01*
X173140714Y-76081000D01*
X173188333Y-76128619D01*
X174140714Y-77033380D02*
X173569285Y-77033380D01*
X173855000Y-77033380D02*
X173855000Y-76033380D01*
X173759761Y-76176238D01*
X173664523Y-76271476D01*
X173569285Y-76319095D01*
%TO.C,D1*%
X164806404Y-88463380D02*
X164806404Y-87463380D01*
X165044500Y-87463380D01*
X165187357Y-87511000D01*
X165282595Y-87606238D01*
X165330214Y-87701476D01*
X165377833Y-87891952D01*
X165377833Y-88034809D01*
X165330214Y-88225285D01*
X165282595Y-88320523D01*
X165187357Y-88415761D01*
X165044500Y-88463380D01*
X164806404Y-88463380D01*
X166330214Y-88463380D02*
X165758785Y-88463380D01*
X166044500Y-88463380D02*
X166044500Y-87463380D01*
X165949261Y-87606238D01*
X165854023Y-87701476D01*
X165758785Y-87749095D01*
X161218595Y-88568380D02*
X161218595Y-87568380D01*
X161790023Y-88568380D02*
X161361452Y-87996952D01*
X161790023Y-87568380D02*
X161218595Y-88139809D01*
%TO.C,J4*%
X120062666Y-77576880D02*
X120062666Y-78291166D01*
X120015047Y-78434023D01*
X119919809Y-78529261D01*
X119776952Y-78576880D01*
X119681714Y-78576880D01*
X120967428Y-77910214D02*
X120967428Y-78576880D01*
X120729333Y-77529261D02*
X120491238Y-78243547D01*
X121110285Y-78243547D01*
%TO.C,J5*%
X124483880Y-79136833D02*
X125198166Y-79136833D01*
X125341023Y-79184452D01*
X125436261Y-79279690D01*
X125483880Y-79422547D01*
X125483880Y-79517785D01*
X124483880Y-78184452D02*
X124483880Y-78660642D01*
X124960071Y-78708261D01*
X124912452Y-78660642D01*
X124864833Y-78565404D01*
X124864833Y-78327309D01*
X124912452Y-78232071D01*
X124960071Y-78184452D01*
X125055309Y-78136833D01*
X125293404Y-78136833D01*
X125388642Y-78184452D01*
X125436261Y-78232071D01*
X125483880Y-78327309D01*
X125483880Y-78565404D01*
X125436261Y-78660642D01*
X125388642Y-78708261D01*
%TO.C,J6*%
X131786380Y-79200333D02*
X132500666Y-79200333D01*
X132643523Y-79247952D01*
X132738761Y-79343190D01*
X132786380Y-79486047D01*
X132786380Y-79581285D01*
X131786380Y-78295571D02*
X131786380Y-78486047D01*
X131834000Y-78581285D01*
X131881619Y-78628904D01*
X132024476Y-78724142D01*
X132214952Y-78771761D01*
X132595904Y-78771761D01*
X132691142Y-78724142D01*
X132738761Y-78676523D01*
X132786380Y-78581285D01*
X132786380Y-78390809D01*
X132738761Y-78295571D01*
X132691142Y-78247952D01*
X132595904Y-78200333D01*
X132357809Y-78200333D01*
X132262571Y-78247952D01*
X132214952Y-78295571D01*
X132167333Y-78390809D01*
X132167333Y-78581285D01*
X132214952Y-78676523D01*
X132262571Y-78724142D01*
X132357809Y-78771761D01*
%TO.C,J7*%
X139025380Y-79200333D02*
X139739666Y-79200333D01*
X139882523Y-79247952D01*
X139977761Y-79343190D01*
X140025380Y-79486047D01*
X140025380Y-79581285D01*
X139025380Y-78819380D02*
X139025380Y-78152714D01*
X140025380Y-78581285D01*
%TO.C,J8*%
X172958166Y-85069880D02*
X172958166Y-85784166D01*
X172910547Y-85927023D01*
X172815309Y-86022261D01*
X172672452Y-86069880D01*
X172577214Y-86069880D01*
X173577214Y-85498452D02*
X173481976Y-85450833D01*
X173434357Y-85403214D01*
X173386738Y-85307976D01*
X173386738Y-85260357D01*
X173434357Y-85165119D01*
X173481976Y-85117500D01*
X173577214Y-85069880D01*
X173767690Y-85069880D01*
X173862928Y-85117500D01*
X173910547Y-85165119D01*
X173958166Y-85260357D01*
X173958166Y-85307976D01*
X173910547Y-85403214D01*
X173862928Y-85450833D01*
X173767690Y-85498452D01*
X173577214Y-85498452D01*
X173481976Y-85546071D01*
X173434357Y-85593690D01*
X173386738Y-85688928D01*
X173386738Y-85879404D01*
X173434357Y-85974642D01*
X173481976Y-86022261D01*
X173577214Y-86069880D01*
X173767690Y-86069880D01*
X173862928Y-86022261D01*
X173910547Y-85974642D01*
X173958166Y-85879404D01*
X173958166Y-85688928D01*
X173910547Y-85593690D01*
X173862928Y-85546071D01*
X173767690Y-85498452D01*
%TO.C,R1*%
X173124833Y-81351380D02*
X172791500Y-80875190D01*
X172553404Y-81351380D02*
X172553404Y-80351380D01*
X172934357Y-80351380D01*
X173029595Y-80399000D01*
X173077214Y-80446619D01*
X173124833Y-80541857D01*
X173124833Y-80684714D01*
X173077214Y-80779952D01*
X173029595Y-80827571D01*
X172934357Y-80875190D01*
X172553404Y-80875190D01*
X174077214Y-81351380D02*
X173505785Y-81351380D01*
X173791500Y-81351380D02*
X173791500Y-80351380D01*
X173696261Y-80494238D01*
X173601023Y-80589476D01*
X173505785Y-80637095D01*
%TO.C,R2*%
X165123833Y-92273380D02*
X164790500Y-91797190D01*
X164552404Y-92273380D02*
X164552404Y-91273380D01*
X164933357Y-91273380D01*
X165028595Y-91321000D01*
X165076214Y-91368619D01*
X165123833Y-91463857D01*
X165123833Y-91606714D01*
X165076214Y-91701952D01*
X165028595Y-91749571D01*
X164933357Y-91797190D01*
X164552404Y-91797190D01*
X165504785Y-91368619D02*
X165552404Y-91321000D01*
X165647642Y-91273380D01*
X165885738Y-91273380D01*
X165980976Y-91321000D01*
X166028595Y-91368619D01*
X166076214Y-91463857D01*
X166076214Y-91559095D01*
X166028595Y-91701952D01*
X165457166Y-92273380D01*
X166076214Y-92273380D01*
%TO.C,U1*%
X158602880Y-83184904D02*
X159412404Y-83184904D01*
X159507642Y-83137285D01*
X159555261Y-83089666D01*
X159602880Y-82994428D01*
X159602880Y-82803952D01*
X159555261Y-82708714D01*
X159507642Y-82661095D01*
X159412404Y-82613476D01*
X158602880Y-82613476D01*
X159602880Y-81613476D02*
X159602880Y-82184904D01*
X159602880Y-81899190D02*
X158602880Y-81899190D01*
X158745738Y-81994428D01*
X158840976Y-82089666D01*
X158888595Y-82184904D01*
%TD*%
M02*
