%FSLAX45Y45*%
G04 Gerber Fmt 4.5, Leading zero omitted, Abs format (unit mm)*
G04 Created by KiCad (PCBNEW (5.1.6)-1) date 2025-04-15 16:12:10*
%MOMM*%
%LPD*%
G01*
G04 APERTURE LIST*
%TA.AperFunction,Profile*%
%ADD10C,0.100000*%
%TD*%
%ADD11C,0.200000*%
%ADD12C,0.300000*%
G04 APERTURE END LIST*
D10*
X12103700Y-9901350D02*
X18003700Y-9901350D01*
X11803700Y-7201350D02*
X11803700Y-9601350D01*
X11803700Y-9601350D02*
G75*
G03*
X12103700Y-9901350I300000J0D01*
G01*
X18003700Y-9901350D02*
G75*
G03*
X18303700Y-9601350I0J300000D01*
G01*
X12103700Y-6901350D02*
G75*
G03*
X11803700Y-7201350I0J-300000D01*
G01*
X12103700Y-6901350D02*
X18003700Y-6901350D01*
X18303700Y-7201350D02*
G75*
G03*
X18003700Y-6901350I-300000J0D01*
G01*
X18303700Y-7201350D02*
X18303700Y-9601350D01*
D11*
X12016200Y-7113850D02*
X12291200Y-7388850D01*
X12291200Y-7113850D02*
X12016200Y-7388850D01*
X12016200Y-9413850D02*
X12291200Y-9688850D01*
X12291200Y-9413850D02*
X12016200Y-9688850D01*
X17816200Y-9413850D02*
X18091200Y-9688850D01*
X18091200Y-9413850D02*
X17816200Y-9688850D01*
X17816200Y-7113850D02*
X18091200Y-7388850D01*
X18091200Y-7113850D02*
X17816200Y-7388850D01*
D12*
X12085128Y-10372064D02*
X12085128Y-10072064D01*
X12156557Y-10072064D01*
X12199414Y-10086350D01*
X12227986Y-10114922D01*
X12242271Y-10143493D01*
X12256557Y-10200636D01*
X12256557Y-10243493D01*
X12242271Y-10300636D01*
X12227986Y-10329207D01*
X12199414Y-10357779D01*
X12156557Y-10372064D01*
X12085128Y-10372064D01*
X12385128Y-10372064D02*
X12385128Y-10172064D01*
X12385128Y-10229207D02*
X12399414Y-10200636D01*
X12413700Y-10186350D01*
X12442271Y-10172064D01*
X12470843Y-10172064D01*
X12570843Y-10372064D02*
X12570843Y-10172064D01*
X12570843Y-10072064D02*
X12556557Y-10086350D01*
X12570843Y-10100636D01*
X12585128Y-10086350D01*
X12570843Y-10072064D01*
X12570843Y-10100636D01*
X12756557Y-10372064D02*
X12727986Y-10357779D01*
X12713700Y-10329207D01*
X12713700Y-10072064D01*
X12913700Y-10372064D02*
X12885128Y-10357779D01*
X12870843Y-10329207D01*
X12870843Y-10072064D01*
X13256557Y-10372064D02*
X13256557Y-10072064D01*
X13356557Y-10286350D01*
X13456557Y-10072064D01*
X13456557Y-10372064D01*
X13727986Y-10372064D02*
X13727986Y-10214922D01*
X13713700Y-10186350D01*
X13685128Y-10172064D01*
X13627986Y-10172064D01*
X13599414Y-10186350D01*
X13727986Y-10357779D02*
X13699414Y-10372064D01*
X13627986Y-10372064D01*
X13599414Y-10357779D01*
X13585128Y-10329207D01*
X13585128Y-10300636D01*
X13599414Y-10272064D01*
X13627986Y-10257779D01*
X13699414Y-10257779D01*
X13727986Y-10243493D01*
X13870843Y-10172064D02*
X13870843Y-10472064D01*
X13870843Y-10186350D02*
X13899414Y-10172064D01*
X13956557Y-10172064D01*
X13985128Y-10186350D01*
X13999414Y-10200636D01*
X14013700Y-10229207D01*
X14013700Y-10314922D01*
X13999414Y-10343493D01*
X13985128Y-10357779D01*
X13956557Y-10372064D01*
X13899414Y-10372064D01*
X13870843Y-10357779D01*
X14142271Y-10343493D02*
X14156557Y-10357779D01*
X14142271Y-10372064D01*
X14127986Y-10357779D01*
X14142271Y-10343493D01*
X14142271Y-10372064D01*
X14142271Y-10186350D02*
X14156557Y-10200636D01*
X14142271Y-10214922D01*
X14127986Y-10200636D01*
X14142271Y-10186350D01*
X14142271Y-10214922D01*
X11523700Y-10728850D02*
X11798700Y-11003850D01*
X11798700Y-10728850D02*
X11523700Y-11003850D01*
X12070843Y-10730636D02*
X12085128Y-10716350D01*
X12113700Y-10702064D01*
X12185128Y-10702064D01*
X12213700Y-10716350D01*
X12227986Y-10730636D01*
X12242271Y-10759207D01*
X12242271Y-10787779D01*
X12227986Y-10830636D01*
X12056557Y-11002064D01*
X12242271Y-11002064D01*
X12370843Y-10973493D02*
X12385128Y-10987779D01*
X12370843Y-11002064D01*
X12356557Y-10987779D01*
X12370843Y-10973493D01*
X12370843Y-11002064D01*
X12485128Y-10702064D02*
X12685128Y-10702064D01*
X12556557Y-11002064D01*
X12942271Y-10702064D02*
X12799414Y-10702064D01*
X12785128Y-10844922D01*
X12799414Y-10830636D01*
X12827986Y-10816350D01*
X12899414Y-10816350D01*
X12927986Y-10830636D01*
X12942271Y-10844922D01*
X12956557Y-10873493D01*
X12956557Y-10944922D01*
X12942271Y-10973493D01*
X12927986Y-10987779D01*
X12899414Y-11002064D01*
X12827986Y-11002064D01*
X12799414Y-10987779D01*
X12785128Y-10973493D01*
X13085128Y-11002064D02*
X13085128Y-10802064D01*
X13085128Y-10830636D02*
X13099414Y-10816350D01*
X13127986Y-10802064D01*
X13170843Y-10802064D01*
X13199414Y-10816350D01*
X13213700Y-10844922D01*
X13213700Y-11002064D01*
X13213700Y-10844922D02*
X13227986Y-10816350D01*
X13256557Y-10802064D01*
X13299414Y-10802064D01*
X13327986Y-10816350D01*
X13342271Y-10844922D01*
X13342271Y-11002064D01*
X13485128Y-11002064D02*
X13485128Y-10802064D01*
X13485128Y-10830636D02*
X13499414Y-10816350D01*
X13527986Y-10802064D01*
X13570843Y-10802064D01*
X13599414Y-10816350D01*
X13613700Y-10844922D01*
X13613700Y-11002064D01*
X13613700Y-10844922D02*
X13627986Y-10816350D01*
X13656557Y-10802064D01*
X13699414Y-10802064D01*
X13727986Y-10816350D01*
X13742271Y-10844922D01*
X13742271Y-11002064D01*
X14327986Y-10687779D02*
X14070843Y-11073493D01*
X14713700Y-10702064D02*
X14742271Y-10702064D01*
X14770843Y-10716350D01*
X14785128Y-10730636D01*
X14799414Y-10759207D01*
X14813700Y-10816350D01*
X14813700Y-10887779D01*
X14799414Y-10944922D01*
X14785128Y-10973493D01*
X14770843Y-10987779D01*
X14742271Y-11002064D01*
X14713700Y-11002064D01*
X14685128Y-10987779D01*
X14670843Y-10973493D01*
X14656557Y-10944922D01*
X14642271Y-10887779D01*
X14642271Y-10816350D01*
X14656557Y-10759207D01*
X14670843Y-10730636D01*
X14685128Y-10716350D01*
X14713700Y-10702064D01*
X14942271Y-10973493D02*
X14956557Y-10987779D01*
X14942271Y-11002064D01*
X14927986Y-10987779D01*
X14942271Y-10973493D01*
X14942271Y-11002064D01*
X15242271Y-11002064D02*
X15070843Y-11002064D01*
X15156557Y-11002064D02*
X15156557Y-10702064D01*
X15127986Y-10744922D01*
X15099414Y-10773493D01*
X15070843Y-10787779D01*
X15427986Y-10702064D02*
X15456557Y-10702064D01*
X15485128Y-10716350D01*
X15499414Y-10730636D01*
X15513700Y-10759207D01*
X15527986Y-10816350D01*
X15527986Y-10887779D01*
X15513700Y-10944922D01*
X15499414Y-10973493D01*
X15485128Y-10987779D01*
X15456557Y-11002064D01*
X15427986Y-11002064D01*
X15399414Y-10987779D01*
X15385128Y-10973493D01*
X15370843Y-10944922D01*
X15356557Y-10887779D01*
X15356557Y-10816350D01*
X15370843Y-10759207D01*
X15385128Y-10730636D01*
X15399414Y-10716350D01*
X15427986Y-10702064D01*
X15699414Y-10830636D02*
X15670843Y-10816350D01*
X15656557Y-10802064D01*
X15642271Y-10773493D01*
X15642271Y-10759207D01*
X15656557Y-10730636D01*
X15670843Y-10716350D01*
X15699414Y-10702064D01*
X15756557Y-10702064D01*
X15785128Y-10716350D01*
X15799414Y-10730636D01*
X15813700Y-10759207D01*
X15813700Y-10773493D01*
X15799414Y-10802064D01*
X15785128Y-10816350D01*
X15756557Y-10830636D01*
X15699414Y-10830636D01*
X15670843Y-10844922D01*
X15656557Y-10859207D01*
X15642271Y-10887779D01*
X15642271Y-10944922D01*
X15656557Y-10973493D01*
X15670843Y-10987779D01*
X15699414Y-11002064D01*
X15756557Y-11002064D01*
X15785128Y-10987779D01*
X15799414Y-10973493D01*
X15813700Y-10944922D01*
X15813700Y-10887779D01*
X15799414Y-10859207D01*
X15785128Y-10844922D01*
X15756557Y-10830636D01*
X15927986Y-10702064D02*
X15927986Y-10759207D01*
X16042271Y-10702064D02*
X16042271Y-10759207D01*
X16485128Y-11116350D02*
X16470843Y-11102064D01*
X16442271Y-11059207D01*
X16427986Y-11030636D01*
X16413700Y-10987779D01*
X16399414Y-10916350D01*
X16399414Y-10859207D01*
X16413700Y-10787779D01*
X16427986Y-10744922D01*
X16442271Y-10716350D01*
X16470843Y-10673493D01*
X16485128Y-10659207D01*
X16727986Y-10802064D02*
X16727986Y-11002064D01*
X16656557Y-10687779D02*
X16585128Y-10902064D01*
X16770843Y-10902064D01*
X17113700Y-11002064D02*
X17113700Y-10702064D01*
X17242271Y-11002064D02*
X17242271Y-10844922D01*
X17227986Y-10816350D01*
X17199414Y-10802064D01*
X17156557Y-10802064D01*
X17127986Y-10816350D01*
X17113700Y-10830636D01*
X17427986Y-11002064D02*
X17399414Y-10987779D01*
X17385128Y-10973493D01*
X17370843Y-10944922D01*
X17370843Y-10859207D01*
X17385128Y-10830636D01*
X17399414Y-10816350D01*
X17427986Y-10802064D01*
X17470843Y-10802064D01*
X17499414Y-10816350D01*
X17513700Y-10830636D01*
X17527986Y-10859207D01*
X17527986Y-10944922D01*
X17513700Y-10973493D01*
X17499414Y-10987779D01*
X17470843Y-11002064D01*
X17427986Y-11002064D01*
X17699414Y-11002064D02*
X17670843Y-10987779D01*
X17656557Y-10959207D01*
X17656557Y-10702064D01*
X17927986Y-10987779D02*
X17899414Y-11002064D01*
X17842271Y-11002064D01*
X17813700Y-10987779D01*
X17799414Y-10959207D01*
X17799414Y-10844922D01*
X17813700Y-10816350D01*
X17842271Y-10802064D01*
X17899414Y-10802064D01*
X17927986Y-10816350D01*
X17942271Y-10844922D01*
X17942271Y-10873493D01*
X17799414Y-10902064D01*
X18056557Y-10987779D02*
X18085128Y-11002064D01*
X18142271Y-11002064D01*
X18170843Y-10987779D01*
X18185128Y-10959207D01*
X18185128Y-10944922D01*
X18170843Y-10916350D01*
X18142271Y-10902064D01*
X18099414Y-10902064D01*
X18070843Y-10887779D01*
X18056557Y-10859207D01*
X18056557Y-10844922D01*
X18070843Y-10816350D01*
X18099414Y-10802064D01*
X18142271Y-10802064D01*
X18170843Y-10816350D01*
X18285128Y-11116350D02*
X18299414Y-11102064D01*
X18327986Y-11059207D01*
X18342271Y-11030636D01*
X18356557Y-10987779D01*
X18370843Y-10916350D01*
X18370843Y-10859207D01*
X18356557Y-10787779D01*
X18342271Y-10744922D01*
X18327986Y-10716350D01*
X18299414Y-10673493D01*
X18285128Y-10659207D01*
X18827986Y-11116350D02*
X18813700Y-11102064D01*
X18785128Y-11059207D01*
X18770843Y-11030636D01*
X18756557Y-10987779D01*
X18742271Y-10916350D01*
X18742271Y-10859207D01*
X18756557Y-10787779D01*
X18770843Y-10744922D01*
X18785128Y-10716350D01*
X18813700Y-10673493D01*
X18827986Y-10659207D01*
X18942271Y-10802064D02*
X18942271Y-11002064D01*
X18942271Y-10830636D02*
X18956557Y-10816350D01*
X18985128Y-10802064D01*
X19027986Y-10802064D01*
X19056557Y-10816350D01*
X19070843Y-10844922D01*
X19070843Y-11002064D01*
X19256557Y-11002064D02*
X19227986Y-10987779D01*
X19213700Y-10973493D01*
X19199414Y-10944922D01*
X19199414Y-10859207D01*
X19213700Y-10830636D01*
X19227986Y-10816350D01*
X19256557Y-10802064D01*
X19299414Y-10802064D01*
X19327986Y-10816350D01*
X19342271Y-10830636D01*
X19356557Y-10859207D01*
X19356557Y-10944922D01*
X19342271Y-10973493D01*
X19327986Y-10987779D01*
X19299414Y-11002064D01*
X19256557Y-11002064D01*
X19442271Y-10802064D02*
X19556557Y-10802064D01*
X19485128Y-10702064D02*
X19485128Y-10959207D01*
X19499414Y-10987779D01*
X19527986Y-11002064D01*
X19556557Y-11002064D01*
X19885128Y-10802064D02*
X19885128Y-11102064D01*
X19885128Y-10816350D02*
X19913700Y-10802064D01*
X19970843Y-10802064D01*
X19999414Y-10816350D01*
X20013700Y-10830636D01*
X20027986Y-10859207D01*
X20027986Y-10944922D01*
X20013700Y-10973493D01*
X19999414Y-10987779D01*
X19970843Y-11002064D01*
X19913700Y-11002064D01*
X19885128Y-10987779D01*
X20199414Y-11002064D02*
X20170843Y-10987779D01*
X20156557Y-10959207D01*
X20156557Y-10702064D01*
X20442271Y-11002064D02*
X20442271Y-10844922D01*
X20427986Y-10816350D01*
X20399414Y-10802064D01*
X20342271Y-10802064D01*
X20313700Y-10816350D01*
X20442271Y-10987779D02*
X20413700Y-11002064D01*
X20342271Y-11002064D01*
X20313700Y-10987779D01*
X20299414Y-10959207D01*
X20299414Y-10930636D01*
X20313700Y-10902064D01*
X20342271Y-10887779D01*
X20413700Y-10887779D01*
X20442271Y-10873493D01*
X20542271Y-10802064D02*
X20656557Y-10802064D01*
X20585128Y-10702064D02*
X20585128Y-10959207D01*
X20599414Y-10987779D01*
X20627986Y-11002064D01*
X20656557Y-11002064D01*
X20870843Y-10987779D02*
X20842271Y-11002064D01*
X20785128Y-11002064D01*
X20756557Y-10987779D01*
X20742271Y-10959207D01*
X20742271Y-10844922D01*
X20756557Y-10816350D01*
X20785128Y-10802064D01*
X20842271Y-10802064D01*
X20870843Y-10816350D01*
X20885128Y-10844922D01*
X20885128Y-10873493D01*
X20742271Y-10902064D01*
X21142271Y-11002064D02*
X21142271Y-10702064D01*
X21142271Y-10987779D02*
X21113700Y-11002064D01*
X21056557Y-11002064D01*
X21027986Y-10987779D01*
X21013700Y-10973493D01*
X20999414Y-10944922D01*
X20999414Y-10859207D01*
X21013700Y-10830636D01*
X21027986Y-10816350D01*
X21056557Y-10802064D01*
X21113700Y-10802064D01*
X21142271Y-10816350D01*
X21256557Y-11116350D02*
X21270843Y-11102064D01*
X21299414Y-11059207D01*
X21313700Y-11030636D01*
X21327986Y-10987779D01*
X21342271Y-10916350D01*
X21342271Y-10859207D01*
X21327986Y-10787779D01*
X21313700Y-10744922D01*
X21299414Y-10716350D01*
X21270843Y-10673493D01*
X21256557Y-10659207D01*
M02*
